<svg width="1793" height="1057" xmlns="http://www.w3.org/2000/svg"><g><path d="M-95,-90L-263,1385L-62,574Z" fill="#add9f7" stroke="#add9f7"/><path d="M-95,-90L-62,574L-18,122Z" fill="#eefbff" stroke="#eefbff"/><path d="M-95,-90L-18,122L282,-205Z" fill="#f3f7fe" stroke="#f3f7fe"/><path d="M282,-205L-18,122L416,168Z" fill="#e6f0f9" stroke="#e6f0f9"/><path d="M282,-205L416,168L456,-124Z" fill="#ddebf5" stroke="#ddebf5"/><path d="M282,-205L456,-124L614,-251Z" fill="#d9e9f4" stroke="#d9e9f4"/><path d="M456,-124L416,168L754,106Z" fill="#d0e6f2" stroke="#d0e6f2"/><path d="M456,-124L754,106L614,-251Z" fill="#cee4f0" stroke="#cee4f0"/><path d="M614,-251L754,106L1049,-187Z" fill="#bddbec" stroke="#bddbec"/><path d="M614,-251L1049,-187L1461,-261Z" fill="#a7cce5" stroke="#a7cce5"/><path d="M614,-251L1461,-261L1599,-266Z" fill="#96bedd" stroke="#96bedd"/><path d="M1049,-187L754,106L947,152Z" fill="#b2d5ea" stroke="#b2d5ea"/><path d="M1049,-187L947,152L1392,64Z" fill="#9ec6e1" stroke="#9ec6e1"/><path d="M1049,-187L1392,64L1461,-261Z" fill="#91b8d8" stroke="#91b8d8"/><path d="M1461,-261L1392,64L1599,-266Z" fill="#84a9ce" stroke="#84a9ce"/><path d="M1599,-266L1392,64L1730,184Z" fill="#80a2c9" stroke="#80a2c9"/><path d="M1599,-266L1730,184L1823,-149Z" fill="#8096c1" stroke="#8096c1"/><path d="M1823,-149L1730,184L1854,109Z" fill="#7d8fbd" stroke="#7d8fbd"/><path d="M1823,-149L1854,109L2026,318Z" fill="#7b87b7" stroke="#7b87b7"/><path d="M-18,122L-62,574L15,284Z" fill="#dbf4ff" stroke="#dbf4ff"/><path d="M-18,122L15,284L416,168Z" fill="#e2f3fc" stroke="#e2f3fc"/><path d="M15,284L-62,574L243,395Z" fill="#c6e9fe" stroke="#c6e9fe"/><path d="M15,284L243,395L416,168Z" fill="#d0ecf9" stroke="#d0ecf9"/><path d="M416,168L243,395L519,358Z" fill="#c1e6f5" stroke="#c1e6f5"/><path d="M416,168L519,358L754,106Z" fill="#c3e4f1" stroke="#c3e4f1"/><path d="M754,106L519,358L753,379Z" fill="#b0ddef" stroke="#b0ddef"/><path d="M754,106L753,379L947,152Z" fill="#add9ec" stroke="#add9ec"/><path d="M947,152L753,379L1081,406Z" fill="#96cfe9" stroke="#96cfe9"/><path d="M947,152L1081,406L1392,64Z" fill="#90c4e1" stroke="#90c4e1"/><path d="M1392,64L1081,406L1404,515Z" fill="#74b3d9" stroke="#74b3d9"/><path d="M1392,64L1404,515L1730,184Z" fill="#6fa4cd" stroke="#6fa4cd"/><path d="M1730,184L1404,515L1707,531Z" fill="#5492c7" stroke="#5492c7"/><path d="M1730,184L1707,531L2026,318Z" fill="#5f87bc" stroke="#5f87bc"/><path d="M1730,184L2026,318L1854,109Z" fill="#7388b9" stroke="#7388b9"/><path d="M-62,574L-263,1385L-46,942Z" fill="#8ca0d3" stroke="#8ca0d3"/><path d="M-62,574L-46,942L-26,796Z" fill="#93bee9" stroke="#93bee9"/><path d="M-62,574L-26,796L158,778Z" fill="#93c4ee" stroke="#93c4ee"/><path d="M-62,574L158,778L243,395Z" fill="#a5d5f8" stroke="#a5d5f8"/><path d="M243,395L158,778L548,773Z" fill="#8ac3ed" stroke="#8ac3ed"/><path d="M243,395L548,773L519,358Z" fill="#9dd3f4" stroke="#9dd3f4"/><path d="M519,358L548,773L753,379Z" fill="#92cff0" stroke="#92cff0"/><path d="M753,379L548,773L880,687Z" fill="#73bae7" stroke="#73bae7"/><path d="M753,379L880,687L1081,406Z" fill="#7bc2ea" stroke="#7bc2ea"/><path d="M1081,406L880,687L1448,714Z" fill="#4fa2da" stroke="#4fa2da"/><path d="M1081,406L1448,714L1404,515Z" fill="#4d9dd6" stroke="#4d9dd6"/><path d="M1404,515L1448,714L1707,531Z" fill="#3786c7" stroke="#3786c7"/><path d="M1707,531L1448,714L1580,753Z" fill="#2575be" stroke="#2575be"/><path d="M1707,531L1580,753L1839,908Z" fill="#1c60b0" stroke="#1c60b0"/><path d="M1707,531L1839,908L1958,881Z" fill="#194fa4" stroke="#194fa4"/><path d="M1707,531L1958,881L2026,318Z" fill="#3668b4" stroke="#3668b4"/><path d="M2026,318L1958,881L2008,1482Z" fill="#112e8e" stroke="#112e8e"/><path d="M-26,796L-46,942L158,778Z" fill="#8ab0e0" stroke="#8ab0e0"/><path d="M158,778L-46,942L18,1166Z" fill="#819bd3" stroke="#819bd3"/><path d="M158,778L18,1166L404,1032Z" fill="#748fcb" stroke="#748fcb"/><path d="M158,778L404,1032L548,773Z" fill="#719fd5" stroke="#719fd5"/><path d="M548,773L404,1032L871,1141Z" fill="#5984c3" stroke="#5984c3"/><path d="M548,773L871,1141L937,892Z" fill="#4d83c4" stroke="#4d83c4"/><path d="M548,773L937,892L880,687Z" fill="#579cd5" stroke="#579cd5"/><path d="M880,687L937,892L1448,714Z" fill="#3c8dcd" stroke="#3c8dcd"/><path d="M937,892L871,1141L1191,1112Z" fill="#3264b1" stroke="#3264b1"/><path d="M937,892L1191,1112L1343,1036Z" fill="#255eaf" stroke="#255eaf"/><path d="M937,892L1343,1036L1448,714Z" fill="#276db9" stroke="#276db9"/><path d="M1448,714L1343,1036L1580,753Z" fill="#1b64b2" stroke="#1b64b2"/><path d="M1580,753L1343,1036L1711,967Z" fill="#104ea4" stroke="#104ea4"/><path d="M1580,753L1711,967L1839,908Z" fill="#1248a0" stroke="#1248a0"/><path d="M1958,881L1839,908L2008,1482Z" fill="#04127c" stroke="#04127c"/><path d="M-46,942L-263,1385L18,1166Z" fill="#7e7ebd" stroke="#7e7ebd"/><path d="M18,1166L-263,1385L243,1495Z" fill="#787aa9" stroke="#787aa9"/><path d="M18,1166L243,1495L331,1270Z" fill="#6a72a8" stroke="#6a72a8"/><path d="M18,1166L331,1270L404,1032Z" fill="#6772b8" stroke="#6772b8"/><path d="M404,1032L331,1270L871,1141Z" fill="#536bb2" stroke="#536bb2"/><path d="M871,1141L331,1270L883,1450Z" fill="#47619f" stroke="#47619f"/><path d="M871,1141L883,1450L1000,1373Z" fill="#345696" stroke="#345696"/><path d="M871,1141L1000,1373L1191,1112Z" fill="#2a4e9f" stroke="#2a4e9f"/><path d="M1191,1112L1000,1373L1396,1242Z" fill="#194194" stroke="#194194"/><path d="M1191,1112L1396,1242L1343,1036Z" fill="#123e9a" stroke="#123e9a"/><path d="M1343,1036L1396,1242L1711,967Z" fill="#093896" stroke="#093896"/><path d="M1711,967L1396,1242L1605,1323Z" fill="#002286" stroke="#002286"/><path d="M1711,967L1605,1323L2008,1482Z" fill="#001272" stroke="#001272"/><path d="M1711,967L2008,1482L1839,908Z" fill="#02137d" stroke="#02137d"/><path d="M243,1495L2008,1482L883,1450Z" fill="#274c80" stroke="#274c80"/><path d="M243,1495L883,1450L331,1270Z" fill="#576896" stroke="#576896"/><path d="M883,1450L2008,1482L1605,1323Z" fill="#042870" stroke="#042870"/><path d="M883,1450L1605,1323L1000,1373Z" fill="#1c4486" stroke="#1c4486"/><path d="M1000,1373L1605,1323L1396,1242Z" fill="#0f3684" stroke="#0f3684"/></g><filter id="noise"><feTurbulence type="fractalNoise" in="fillPaint" fill="#F00" baseFrequency="0.7" numOctaves="3" stitchTiles="stitch"/><feComponentTransfer><feFuncR type="linear" slope="2" intercept="-.5"/><feFuncG type="linear" slope="2" intercept="-.5"/><feFuncB type="linear" slope="2" intercept="-.5"/></feComponentTransfer><feColorMatrix type="matrix" values="0.3333 0.3333 0.3333 0 0 &#10; 0.3333 0.3333 0.3333 0 0 &#10; 0.3333 0.3333 0.3333 0 0 &#10; 0 0 0 1 0"/></filter><rect opacity="0.4000000000000001" width="100%" height="100%" filter="url(#noise)"/></svg>