<svg width="1793" height="1057" xmlns="http://www.w3.org/2000/svg"><g><path d="M-3,-110L-193,175L83,-50Z" fill="#f4fbf1" stroke="#f4fbf1"/><path d="M-3,-110L83,-50L524,-259Z" fill="#e7f6e4" stroke="#e7f6e4"/><path d="M83,-50L-193,175L247,106Z" fill="#e9f9e6" stroke="#e9f9e6"/><path d="M83,-50L247,106L410,64Z" fill="#e1f4de" stroke="#e1f4de"/><path d="M83,-50L410,64L524,-259Z" fill="#dff2dc" stroke="#dff2dc"/><path d="M524,-259L410,64L819,-158Z" fill="#d1edce" stroke="#d1edce"/><path d="M524,-259L819,-158L1216,-241Z" fill="#b8e1be" stroke="#b8e1be"/><path d="M819,-158L410,64L881,33Z" fill="#c6e7c7" stroke="#c6e7c7"/><path d="M819,-158L881,33L1106,-165Z" fill="#b1ddb9" stroke="#b1ddb9"/><path d="M819,-158L1106,-165L1216,-241Z" fill="#a6d8b3" stroke="#a6d8b3"/><path d="M1106,-165L881,33L1080,93Z" fill="#a8d9b4" stroke="#a8d9b4"/><path d="M1106,-165L1080,93L1339,5Z" fill="#9ad2ab" stroke="#9ad2ab"/><path d="M1106,-165L1339,5L1216,-241Z" fill="#96d0a8" stroke="#96d0a8"/><path d="M1216,-241L1339,5L1693,-163Z" fill="#84c79d" stroke="#84c79d"/><path d="M1216,-241L1693,-163L2078,-102Z" fill="#80bc8e" stroke="#80bc8e"/><path d="M1693,-163L1339,5L1721,175Z" fill="#7fc092" stroke="#7fc092"/><path d="M1693,-163L1721,175L1997,183Z" fill="#7ab67f" stroke="#7ab67f"/><path d="M1693,-163L1997,183L2078,-102Z" fill="#80b080" stroke="#80b080"/><path d="M2078,-102L1997,183L2049,1185Z" fill="#53a554" stroke="#53a554"/><path d="M-193,175L-274,327L95,559Z" fill="#d9fdd4" stroke="#d9fdd4"/><path d="M-193,175L95,559L247,106Z" fill="#d6f9d1" stroke="#d6f9d1"/><path d="M247,106L95,559L546,589Z" fill="#b5eeb4" stroke="#b5eeb4"/><path d="M247,106L546,589L410,64Z" fill="#c5f1c0" stroke="#c5f1c0"/><path d="M410,64L546,589L830,458Z" fill="#adeba8" stroke="#adeba8"/><path d="M410,64L830,458L881,33Z" fill="#b6e7b4" stroke="#b6e7b4"/><path d="M881,33L830,458L1080,93Z" fill="#a0dda6" stroke="#a0dda6"/><path d="M1080,93L830,458L974,570Z" fill="#8bda92" stroke="#8bda92"/><path d="M1080,93L974,570L1391,415Z" fill="#7cd389" stroke="#7cd389"/><path d="M1080,93L1391,415L1339,5Z" fill="#82ce94" stroke="#82ce94"/><path d="M1339,5L1391,415L1646,340Z" fill="#69c581" stroke="#69c581"/><path d="M1339,5L1646,340L1721,175Z" fill="#70c083" stroke="#70c083"/><path d="M1721,175L1646,340L1923,325Z" fill="#67b86c" stroke="#67b86c"/><path d="M1721,175L1923,325L1997,183Z" fill="#6bb26b" stroke="#6bb26b"/><path d="M1997,183L1923,325L2049,1185Z" fill="#389b43" stroke="#389b43"/><path d="M-274,327L-224,1317L-123,775Z" fill="#88d8a2" stroke="#88d8a2"/><path d="M-274,327L-123,775L64,610Z" fill="#b0eab9" stroke="#b0eab9"/><path d="M-274,327L64,610L95,559Z" fill="#b9efbd" stroke="#b9efbd"/><path d="M95,559L64,610L466,795Z" fill="#8ddb9c" stroke="#8ddb9c"/><path d="M95,559L466,795L546,589Z" fill="#86d894" stroke="#86d894"/><path d="M546,589L466,795L680,730Z" fill="#70cf82" stroke="#70cf82"/><path d="M546,589L680,730L830,458Z" fill="#7bd388" stroke="#7bd388"/><path d="M830,458L680,730L974,570Z" fill="#6fce81" stroke="#6fce81"/><path d="M974,570L680,730L797,917Z" fill="#53c16f" stroke="#53c16f"/><path d="M974,570L797,917L1130,758Z" fill="#43b964" stroke="#43b964"/><path d="M974,570L1130,758L1391,415Z" fill="#50bf6d" stroke="#50bf6d"/><path d="M1391,415L1130,758L1381,854Z" fill="#31b059" stroke="#31b059"/><path d="M1391,415L1381,854L1697,900Z" fill="#1aa449" stroke="#1aa449"/><path d="M1391,415L1697,900L1646,340Z" fill="#3aae58" stroke="#3aae58"/><path d="M1646,340L1697,900L1870,873Z" fill="#1d9a3c" stroke="#1d9a3c"/><path d="M1646,340L1870,873L1923,325Z" fill="#42a74f" stroke="#42a74f"/><path d="M1923,325L1870,873L2049,1185Z" fill="#0c8927" stroke="#0c8927"/><path d="M-123,775L-224,1317L-9,1180Z" fill="#7abd7b" stroke="#7abd7b"/><path d="M-123,775L-9,1180L297,924Z" fill="#70c480" stroke="#70c480"/><path d="M-123,775L297,924L64,610Z" fill="#7fd496" stroke="#7fd496"/><path d="M64,610L297,924L466,795Z" fill="#73cf8a" stroke="#73cf8a"/><path d="M466,795L297,924L366,1043Z" fill="#5dc073" stroke="#5dc073"/><path d="M466,795L366,1043L797,917Z" fill="#54bd69" stroke="#54bd69"/><path d="M466,795L797,917L680,730Z" fill="#54c270" stroke="#54c270"/><path d="M1130,758L797,917L983,1065Z" fill="#2eab51" stroke="#2eab51"/><path d="M1130,758L983,1065L1381,854Z" fill="#1ca448" stroke="#1ca448"/><path d="M1381,854L983,1065L1242,1281Z" fill="#189330" stroke="#189330"/><path d="M1381,854L1242,1281L1478,1177Z" fill="#098822" stroke="#098822"/><path d="M1381,854L1478,1177L1673,1063Z" fill="#008822" stroke="#008822"/><path d="M1381,854L1673,1063L1697,900Z" fill="#008d29" stroke="#008d29"/><path d="M1697,900L1673,1063L1870,873Z" fill="#00851f" stroke="#00851f"/><path d="M1870,873L1673,1063L2049,1185Z" fill="#00780c" stroke="#00780c"/><path d="M-9,1180L-224,1317L96,1485Z" fill="#75a773" stroke="#75a773"/><path d="M-9,1180L96,1485L313,1300Z" fill="#6ba369" stroke="#6ba369"/><path d="M-9,1180L313,1300L366,1043Z" fill="#66ae63" stroke="#66ae63"/><path d="M-9,1180L366,1043L297,924Z" fill="#66b96c" stroke="#66b96c"/><path d="M366,1043L313,1300L870,1426Z" fill="#55a052" stroke="#55a052"/><path d="M366,1043L870,1426L797,917Z" fill="#49a649" stroke="#49a649"/><path d="M797,917L870,1426L983,1065Z" fill="#369b3d" stroke="#369b3d"/><path d="M983,1065L870,1426L1070,1340Z" fill="#2d8b37" stroke="#2d8b37"/><path d="M983,1065L1070,1340L1242,1281Z" fill="#228a30" stroke="#228a30"/><path d="M1478,1177L1242,1281L1525,1242Z" fill="#047b1d" stroke="#047b1d"/><path d="M1478,1177L1525,1242L1673,1063Z" fill="#007b15" stroke="#007b15"/><path d="M1673,1063L1525,1242L2049,1185Z" fill="#007209" stroke="#007209"/><path d="M2049,1185L1525,1242L2039,1480Z" fill="#006102" stroke="#006102"/><path d="M96,1485L2039,1480L870,1426Z" fill="#2b7a36" stroke="#2b7a36"/><path d="M96,1485L870,1426L313,1300Z" fill="#5a9558" stroke="#5a9558"/><path d="M870,1426L2039,1480L1070,1340Z" fill="#0c6f22" stroke="#0c6f22"/><path d="M1070,1340L2039,1480L1242,1281Z" fill="#016e1b" stroke="#016e1b"/><path d="M1242,1281L2039,1480L1525,1242Z" fill="#006a12" stroke="#006a12"/></g><filter id="noise"><feTurbulence type="fractalNoise" in="fillPaint" fill="#F00" baseFrequency="0.7" numOctaves="3" stitchTiles="stitch"/><feComponentTransfer><feFuncR type="linear" slope="2" intercept="-.5"/><feFuncG type="linear" slope="2" intercept="-.5"/><feFuncB type="linear" slope="2" intercept="-.5"/></feComponentTransfer><feColorMatrix type="matrix" values="0.3333 0.3333 0.3333 0 0 &#10; 0.3333 0.3333 0.3333 0 0 &#10; 0.3333 0.3333 0.3333 0 0 &#10; 0 0 0 1 0"/></filter><rect opacity="0.8" width="100%" height="100%" filter="url(#noise)"/></svg>