<svg width="1793" height="1057" xmlns="http://www.w3.org/2000/svg"><g><path d="M-104,-77L-290,141L52,197Z" fill="#c92f35" stroke="#c92f35"/><path d="M-104,-77L52,197L156,-41Z" fill="#cb2d37" stroke="#cb2d37"/><path d="M-104,-77L156,-41L491,-126Z" fill="#c52d31" stroke="#c52d31"/><path d="M-104,-77L491,-126L727,-196Z" fill="#ca4e40" stroke="#ca4e40"/><path d="M156,-41L52,197L469,205Z" fill="#ed6f59" stroke="#ed6f59"/><path d="M156,-41L469,205L491,-126Z" fill="#e56459" stroke="#e56459"/><path d="M491,-126L469,205L723,223Z" fill="#fa9c88" stroke="#fa9c88"/><path d="M491,-126L723,223L727,-196Z" fill="#e2787d" stroke="#e2787d"/><path d="M727,-196L723,223L1205,-24Z" fill="#dd8a94" stroke="#dd8a94"/><path d="M727,-196L1205,-24L1504,-113Z" fill="#a76778" stroke="#a76778"/><path d="M727,-196L1504,-113L1802,-136Z" fill="#7b5065" stroke="#7b5065"/><path d="M727,-196L1802,-136L2211,-183Z" fill="#5c3557" stroke="#5c3557"/><path d="M1205,-24L723,223L1142,303Z" fill="#e4bbb3" stroke="#e4bbb3"/><path d="M1205,-24L1142,303L1434,79Z" fill="#bc9499" stroke="#bc9499"/><path d="M1205,-24L1434,79L1504,-113Z" fill="#8b5679" stroke="#8b5679"/><path d="M1504,-113L1434,79L1676,199Z" fill="#8a5e7c" stroke="#8a5e7c"/><path d="M1504,-113L1676,199L1802,-136Z" fill="#723869" stroke="#723869"/><path d="M1802,-136L1676,199L2037,299Z" fill="#805277" stroke="#805277"/><path d="M1802,-136L2037,299L2211,-183Z" fill="#691356" stroke="#691356"/><path d="M2211,-183L2037,299L2224,446Z" fill="#805276" stroke="#805276"/><path d="M-290,141L-103,1253L-127,553Z" fill="#b37a86" stroke="#b37a86"/><path d="M-290,141L-127,553L52,197Z" fill="#ce726e" stroke="#ce726e"/><path d="M52,197L-127,553L74,424Z" fill="#d98c8f" stroke="#d98c8f"/><path d="M52,197L74,424L469,205Z" fill="#eb9d82" stroke="#eb9d82"/><path d="M469,205L74,424L493,383Z" fill="#f6c6ac" stroke="#f6c6ac"/><path d="M469,205L493,383L723,223Z" fill="#fdd4b8" stroke="#fdd4b8"/><path d="M723,223L493,383L866,370Z" fill="#fdeedc" stroke="#fdeedc"/><path d="M723,223L866,370L1142,303Z" fill="#f0e9de" stroke="#f0e9de"/><path d="M1142,303L866,370L1099,623Z" fill="#e2eff3" stroke="#e2eff3"/><path d="M1142,303L1099,623L1300,673Z" fill="#cae3ef" stroke="#cae3ef"/><path d="M1142,303L1300,673L1463,345Z" fill="#b4d5e5" stroke="#b4d5e5"/><path d="M1142,303L1463,345L1434,79Z" fill="#abb4b5" stroke="#abb4b5"/><path d="M1434,79L1463,345L1676,199Z" fill="#9694a0" stroke="#9694a0"/><path d="M1676,199L1463,345L1673,602Z" fill="#8fb2cf" stroke="#8fb2cf"/><path d="M1676,199L1673,602L2037,299Z" fill="#809cc2" stroke="#809cc2"/><path d="M2037,299L1673,602L1841,771Z" fill="#7e96c7" stroke="#7e96c7"/><path d="M2037,299L1841,771L2132,706Z" fill="#7b84be" stroke="#7b84be"/><path d="M2037,299L2132,706L2224,446Z" fill="#7f80b7" stroke="#7f80b7"/><path d="M-127,553L-103,1253L-48,671Z" fill="#785782" stroke="#785782"/><path d="M-127,553L-48,671L74,424Z" fill="#d48692" stroke="#d48692"/><path d="M74,424L-48,671L390,883Z" fill="#cb9fa1" stroke="#cb9fa1"/><path d="M74,424L390,883L493,383Z" fill="#f1c4b6" stroke="#f1c4b6"/><path d="M493,383L390,883L808,761Z" fill="#dee1dd" stroke="#dee1dd"/><path d="M493,383L808,761L866,370Z" fill="#fbf6f2" stroke="#fbf6f2"/><path d="M866,370L808,761L1099,623Z" fill="#ecf5f9" stroke="#ecf5f9"/><path d="M1099,623L808,761L1144,803Z" fill="#b3e1f4" stroke="#b3e1f4"/><path d="M1099,623L1144,803L1300,673Z" fill="#a4daef" stroke="#a4daef"/><path d="M1463,345L1300,673L1673,602Z" fill="#98c0dc" stroke="#98c0dc"/><path d="M1673,602L1300,673L1312,1093Z" fill="#54a6d7" stroke="#54a6d7"/><path d="M1673,602L1312,1093L1841,771Z" fill="#3789ca" stroke="#3789ca"/><path d="M2224,446L2132,706L2206,1339Z" fill="#2756a7" stroke="#2756a7"/><path d="M-48,671L-103,1253L261,937Z" fill="#6e4c7e" stroke="#6e4c7e"/><path d="M-48,671L261,937L390,883Z" fill="#92869a" stroke="#92869a"/><path d="M261,937L-103,1253L181,1244Z" fill="#632e6d" stroke="#632e6d"/><path d="M261,937L181,1244L467,1261Z" fill="#734f82" stroke="#734f82"/><path d="M261,937L467,1261L390,883Z" fill="#7c779a" stroke="#7c779a"/><path d="M390,883L467,1261L835,1003Z" fill="#7e8db7" stroke="#7e8db7"/><path d="M390,883L835,1003L808,761Z" fill="#9bbddb" stroke="#9bbddb"/><path d="M808,761L835,1003L1144,803Z" fill="#91c6ea" stroke="#91c6ea"/><path d="M1144,803L835,1003L1312,1093Z" fill="#68a1d7" stroke="#68a1d7"/><path d="M1144,803L1312,1093L1300,673Z" fill="#60abdc" stroke="#60abdc"/><path d="M1841,771L1312,1093L1782,1242Z" fill="#0f54ae" stroke="#0f54ae"/><path d="M1841,771L1782,1242L2005,1054Z" fill="#053da2" stroke="#053da2"/><path d="M1841,771L2005,1054L2132,706Z" fill="#2459b1" stroke="#2459b1"/><path d="M2132,706L2005,1054L2206,1339Z" fill="#032794" stroke="#032794"/><path d="M-103,1253L-60,1341L181,1244Z" fill="#5a0d54" stroke="#5a0d54"/><path d="M181,1244L-60,1341L154,1492Z" fill="#621d52" stroke="#621d52"/><path d="M181,1244L154,1492L350,1370Z" fill="#6d355e" stroke="#6d355e"/><path d="M181,1244L350,1370L467,1261Z" fill="#754775" stroke="#754775"/><path d="M467,1261L350,1370L753,1542Z" fill="#7d6487" stroke="#7d6487"/><path d="M467,1261L753,1542L835,1003Z" fill="#7d74ae" stroke="#7d74ae"/><path d="M835,1003L753,1542L1199,1264Z" fill="#6f76b8" stroke="#6f76b8"/><path d="M835,1003L1199,1264L1312,1093Z" fill="#567cc4" stroke="#567cc4"/><path d="M1199,1264L753,1542L1028,1584Z" fill="#6973a0" stroke="#6973a0"/><path d="M1199,1264L1028,1584L1574,1453Z" fill="#3b5a96" stroke="#3b5a96"/><path d="M1199,1264L1574,1453L1312,1093Z" fill="#284ea3" stroke="#284ea3"/><path d="M1312,1093L1574,1453L1750,1329Z" fill="#153996" stroke="#153996"/><path d="M1312,1093L1750,1329L1782,1242Z" fill="#0f319a" stroke="#0f319a"/><path d="M1782,1242L1750,1329L2206,1339Z" fill="#000f7f" stroke="#000f7f"/><path d="M1782,1242L2206,1339L2005,1054Z" fill="#000685" stroke="#000685"/><path d="M154,1492L1028,1584L753,1542Z" fill="#7e7188" stroke="#7e7188"/><path d="M154,1492L753,1542L350,1370Z" fill="#7b566c" stroke="#7b566c"/><path d="M1028,1584L2206,1339L1574,1453Z" fill="#10327e" stroke="#10327e"/><path d="M1574,1453L2206,1339L1750,1329Z" fill="#00177b" stroke="#00177b"/></g><filter id="noise"><feTurbulence type="fractalNoise" in="fillPaint" fill="#F00" baseFrequency="0.7" numOctaves="3" stitchTiles="stitch"/><feComponentTransfer><feFuncR type="linear" slope="2" intercept="-.5"/><feFuncG type="linear" slope="2" intercept="-.5"/><feFuncB type="linear" slope="2" intercept="-.5"/></feComponentTransfer><feColorMatrix type="matrix" values="0.3333 0.3333 0.3333 0 0 &#10; 0.3333 0.3333 0.3333 0 0 &#10; 0.3333 0.3333 0.3333 0 0 &#10; 0 0 0 1 0"/></filter><rect opacity="0.6000000000000001" width="100%" height="100%" filter="url(#noise)"/></svg>