<svg width="1793" height="1057" xmlns="http://www.w3.org/2000/svg"><g><path d="M-351,-182L-281,1438L-157,896Z" fill="#bcbcbc" stroke="#bcbcbc"/><path d="M-351,-182L-157,896L-111,535Z" fill="#ededed" stroke="#ededed"/><path d="M-351,-182L-111,535L-162,100Z" fill="#ffffff" stroke="#ffffff"/><path d="M-351,-182L-162,100L136,-39Z" fill="#ffffff" stroke="#ffffff"/><path d="M-351,-182L136,-39L613,-176Z" fill="#fbfbfb" stroke="#fbfbfb"/><path d="M-351,-182L613,-176L1235,-257Z" fill="#e9e9e9" stroke="#e9e9e9"/><path d="M136,-39L-162,100L295,345Z" fill="#fcfcfc" stroke="#fcfcfc"/><path d="M136,-39L295,345L613,-176Z" fill="#f1f1f1" stroke="#f1f1f1"/><path d="M613,-176L295,345L757,357Z" fill="#e6e6e6" stroke="#e6e6e6"/><path d="M613,-176L757,357L939,31Z" fill="#d6d6d6" stroke="#d6d6d6"/><path d="M613,-176L939,31L908,-93Z" fill="#d1d1d1" stroke="#d1d1d1"/><path d="M613,-176L908,-93L1235,-257Z" fill="#c9c9c9" stroke="#c9c9c9"/><path d="M908,-93L939,31L1235,-257Z" fill="#c1c1c1" stroke="#c1c1c1"/><path d="M1235,-257L939,31L1422,73Z" fill="#b4b4b4" stroke="#b4b4b4"/><path d="M1235,-257L1422,73L1834,-41Z" fill="#999999" stroke="#999999"/><path d="M1235,-257L1834,-41L2278,-139Z" fill="#808080" stroke="#808080"/><path d="M1834,-41L1422,73L1730,261Z" fill="#898989" stroke="#898989"/><path d="M1834,-41L1730,261L2303,252Z" fill="#808080" stroke="#808080"/><path d="M1834,-41L2303,252L2278,-139Z" fill="#808080" stroke="#808080"/><path d="M-162,100L-111,535L295,345Z" fill="#f8f8f8" stroke="#f8f8f8"/><path d="M295,345L-111,535L162,676Z" fill="#d7d7d7" stroke="#d7d7d7"/><path d="M295,345L162,676L706,762Z" fill="#bfbfbf" stroke="#bfbfbf"/><path d="M295,345L706,762L757,357Z" fill="#c5c5c5" stroke="#c5c5c5"/><path d="M757,357L706,762L986,737Z" fill="#9d9d9d" stroke="#9d9d9d"/><path d="M757,357L986,737L1392,413Z" fill="#9e9e9e" stroke="#9e9e9e"/><path d="M757,357L1392,413L939,31Z" fill="#c0c0c0" stroke="#c0c0c0"/><path d="M939,31L1392,413L1422,73Z" fill="#b0b0b0" stroke="#b0b0b0"/><path d="M1422,73L1392,413L1730,261Z" fill="#989898" stroke="#989898"/><path d="M1730,261L1392,413L1772,732Z" fill="#707070" stroke="#707070"/><path d="M1730,261L1772,732L2156,679Z" fill="#555555" stroke="#555555"/><path d="M1730,261L2156,679L2303,252Z" fill="#717171" stroke="#717171"/><path d="M2303,252L2156,679L2271,901Z" fill="#4d4d4d" stroke="#4d4d4d"/><path d="M-111,535L-157,896L162,676Z" fill="#bebebe" stroke="#bebebe"/><path d="M162,676L-157,896L170,860Z" fill="#ababab" stroke="#ababab"/><path d="M162,676L170,860L706,762Z" fill="#a7a7a7" stroke="#a7a7a7"/><path d="M706,762L170,860L674,960Z" fill="#8b8b8b" stroke="#8b8b8b"/><path d="M706,762L674,960L986,737Z" fill="#808080" stroke="#808080"/><path d="M986,737L674,960L873,1145Z" fill="#616161" stroke="#616161"/><path d="M986,737L873,1145L1497,1148Z" fill="#3e3e3e" stroke="#3e3e3e"/><path d="M986,737L1497,1148L1585,960Z" fill="#393939" stroke="#393939"/><path d="M986,737L1585,960L1392,413Z" fill="#696969" stroke="#696969"/><path d="M1392,413L1585,960L1772,732Z" fill="#505050" stroke="#505050"/><path d="M1772,732L1585,960L2271,901Z" fill="#232323" stroke="#232323"/><path d="M1772,732L2271,901L2156,679Z" fill="#353535" stroke="#353535"/><path d="M-157,896L-281,1438L171,1280Z" fill="#808080" stroke="#808080"/><path d="M-157,896L171,1280L170,860Z" fill="#828282" stroke="#828282"/><path d="M170,860L171,1280L674,960Z" fill="#727272" stroke="#727272"/><path d="M674,960L171,1280L413,1513Z" fill="#6e6e6e" stroke="#6e6e6e"/><path d="M674,960L413,1513L873,1145Z" fill="#606060" stroke="#606060"/><path d="M873,1145L413,1513L988,1543Z" fill="#575757" stroke="#575757"/><path d="M873,1145L988,1543L1461,1394Z" fill="#3b3b3b" stroke="#3b3b3b"/><path d="M873,1145L1461,1394L1497,1148Z" fill="#2e2e2e" stroke="#2e2e2e"/><path d="M1497,1148L1461,1394L1722,1448Z" fill="#141414" stroke="#141414"/><path d="M1497,1148L1722,1448L1585,960Z" fill="#0f0f0f" stroke="#0f0f0f"/><path d="M1585,960L1722,1448L2001,1483Z" fill="#000000" stroke="#000000"/><path d="M1585,960L2001,1483L2271,901Z" fill="#000000" stroke="#000000"/><path d="M-281,1438L413,1513L171,1280Z" fill="#7c7c7c" stroke="#7c7c7c"/><path d="M988,1543L2001,1483L1722,1448Z" fill="#131313" stroke="#131313"/><path d="M988,1543L1722,1448L1461,1394Z" fill="#252525" stroke="#252525"/></g><filter id="noise"><feTurbulence type="fractalNoise" in="fillPaint" fill="#F00" baseFrequency="0.7" numOctaves="3" stitchTiles="stitch"/><feComponentTransfer><feFuncR type="linear" slope="2" intercept="-.5"/><feFuncG type="linear" slope="2" intercept="-.5"/><feFuncB type="linear" slope="2" intercept="-.5"/></feComponentTransfer><feColorMatrix type="matrix" values="0.3333 0.3333 0.3333 0 0 &#10; 0.3333 0.3333 0.3333 0 0 &#10; 0.3333 0.3333 0.3333 0 0 &#10; 0 0 0 1 0"/></filter><rect opacity="0.6000000000000001" width="100%" height="100%" filter="url(#noise)"/></svg>