<svg width="2048" height="1126" xmlns="http://www.w3.org/2000/svg"><g><path d="M-34,-82L-80,149L-33,64Z" fill="#f7996e" stroke="#f7996e"/><path d="M-34,-82L-33,64L82,-93Z" fill="#f79365" stroke="#f79365"/><path d="M82,-93L-33,64L63,83Z" fill="#f79c73" stroke="#f79c73"/><path d="M82,-93L63,83L140,-33Z" fill="#f89d74" stroke="#f89d74"/><path d="M82,-93L140,-33L266,-30Z" fill="#f89e74" stroke="#f89e74"/><path d="M82,-93L266,-30L401,-68Z" fill="#f9a47b" stroke="#f9a47b"/><path d="M82,-93L401,-68L563,-70Z" fill="#f9aa84" stroke="#f9aa84"/><path d="M82,-93L563,-70L860,-74Z" fill="#fab694" stroke="#fab694"/><path d="M82,-93L860,-74L1658,-97Z" fill="#e8b9a1" stroke="#e8b9a1"/><path d="M140,-33L63,83L211,27Z" fill="#f8a57f" stroke="#f8a57f"/><path d="M140,-33L211,27L266,-30Z" fill="#f8a680" stroke="#f8a680"/><path d="M266,-30L211,27L259,26Z" fill="#f9ac88" stroke="#f9ac88"/><path d="M266,-30L259,26L388,23Z" fill="#f9b18e" stroke="#f9b18e"/><path d="M266,-30L388,23L401,-68Z" fill="#f9b08e" stroke="#f9b08e"/><path d="M401,-68L388,23L511,19Z" fill="#fab99a" stroke="#fab99a"/><path d="M401,-68L511,19L563,-70Z" fill="#faba9a" stroke="#faba9a"/><path d="M563,-70L511,19L648,-33Z" fill="#fbc2a5" stroke="#fbc2a5"/><path d="M563,-70L648,-33L860,-74Z" fill="#fac6ab" stroke="#fac6ab"/><path d="M648,-33L511,19L657,25Z" fill="#fbc8ae" stroke="#fbc8ae"/><path d="M648,-33L657,25L798,-35Z" fill="#f9cbb3" stroke="#f9cbb3"/><path d="M648,-33L798,-35L860,-74Z" fill="#f2c3ab" stroke="#f2c3ab"/><path d="M798,-35L657,25L804,68Z" fill="#f4ccb8" stroke="#f4ccb8"/><path d="M798,-35L804,68L860,-74Z" fill="#edc4b0" stroke="#edc4b0"/><path d="M860,-74L804,68L884,99Z" fill="#eac8b7" stroke="#eac8b7"/><path d="M860,-74L884,99L1013,16Z" fill="#e2c2b2" stroke="#e2c2b2"/><path d="M860,-74L1013,16L1059,-41Z" fill="#dcb9a8" stroke="#dcb9a8"/><path d="M860,-74L1059,-41L1138,-56Z" fill="#d8b4a2" stroke="#d8b4a2"/><path d="M860,-74L1138,-56L1239,-57Z" fill="#d1b09f" stroke="#d1b09f"/><path d="M860,-74L1239,-57L1658,-97Z" fill="#bfa498" stroke="#bfa498"/><path d="M1059,-41L1013,16L1155,58Z" fill="#d2b9ad" stroke="#d2b9ad"/><path d="M1059,-41L1155,58L1138,-56Z" fill="#cdb3a7" stroke="#cdb3a7"/><path d="M1138,-56L1155,58L1239,-57Z" fill="#c7afa4" stroke="#c7afa4"/><path d="M1239,-57L1155,58L1282,55Z" fill="#c2b1aa" stroke="#c2b1aa"/><path d="M1239,-57L1282,55L1363,-48Z" fill="#bba9a1" stroke="#bba9a1"/><path d="M1239,-57L1363,-48L1658,-97Z" fill="#ad9c94" stroke="#ad9c94"/><path d="M1363,-48L1282,55L1400,18Z" fill="#b5a9a4" stroke="#b5a9a4"/><path d="M1363,-48L1400,18L1543,-52Z" fill="#ac9f9b" stroke="#ac9f9b"/><path d="M1363,-48L1543,-52L1658,-97Z" fill="#a39692" stroke="#a39692"/><path d="M1543,-52L1400,18L1477,90Z" fill="#a8a3a3" stroke="#a8a3a3"/><path d="M1543,-52L1477,90L1609,72Z" fill="#a1a1a4" stroke="#a1a1a4"/><path d="M1543,-52L1609,72L1658,-97Z" fill="#9a9697" stroke="#9a9697"/><path d="M1658,-97L1609,72L1697,58Z" fill="#95989c" stroke="#95989c"/><path d="M1658,-97L1697,58L1729,-61Z" fill="#919093" stroke="#919093"/><path d="M1658,-97L1729,-61L1840,-64Z" fill="#8b888a" stroke="#8b888a"/><path d="M1658,-97L1840,-64L2062,-70Z" fill="#808186" stroke="#808186"/><path d="M1729,-61L1697,58L1831,35Z" fill="#8a9299" stroke="#8a9299"/><path d="M1729,-61L1831,35L1840,-64Z" fill="#858a90" stroke="#858a90"/><path d="M1840,-64L1831,35L1938,-30Z" fill="#808790" stroke="#808790"/><path d="M1840,-64L1938,-30L2062,-70Z" fill="#807f87" stroke="#807f87"/><path d="M1938,-30L1831,35L2009,28Z" fill="#808894" stroke="#808894"/><path d="M1938,-30L2009,28L2062,-70Z" fill="#807f8b" stroke="#807f8b"/><path d="M2062,-70L2009,28L2126,40Z" fill="#807f8e" stroke="#807f8e"/><path d="M2062,-70L2126,40L2186,-24Z" fill="#807989" stroke="#807989"/><path d="M2186,-24L2126,40L2257,52Z" fill="#807a8e" stroke="#807a8e"/><path d="M-33,64L-80,149L24,195Z" fill="#f7a582" stroke="#f7a582"/><path d="M-33,64L24,195L63,83Z" fill="#f7a783" stroke="#f7a783"/><path d="M63,83L24,195L193,194Z" fill="#f8b293" stroke="#f8b293"/><path d="M63,83L193,194L211,27Z" fill="#f8b08f" stroke="#f8b08f"/><path d="M211,27L193,194L292,136Z" fill="#f9b89b" stroke="#f9b89b"/><path d="M211,27L292,136L259,26Z" fill="#f9b393" stroke="#f9b393"/><path d="M259,26L292,136L388,23Z" fill="#f9b899" stroke="#f9b899"/><path d="M388,23L292,136L404,138Z" fill="#f9c0a5" stroke="#f9c0a5"/><path d="M388,23L404,138L511,19Z" fill="#fac1a6" stroke="#fac1a6"/><path d="M511,19L404,138L510,223Z" fill="#facdb7" stroke="#facdb7"/><path d="M511,19L510,223L692,147Z" fill="#fbd4c2" stroke="#fbd4c2"/><path d="M511,19L692,147L657,25Z" fill="#fbd0bb" stroke="#fbd0bb"/><path d="M657,25L692,147L804,68Z" fill="#f8d5c4" stroke="#f8d5c4"/><path d="M804,68L692,147L823,154Z" fill="#f2d8ca" stroke="#f2d8ca"/><path d="M804,68L823,154L884,99Z" fill="#ebd2c5" stroke="#ebd2c5"/><path d="M884,99L823,154L889,194Z" fill="#e8d5cc" stroke="#e8d5cc"/><path d="M884,99L889,194L1017,208Z" fill="#e1d4ce" stroke="#e1d4ce"/><path d="M884,99L1017,208L1013,16Z" fill="#ddcac2" stroke="#ddcac2"/><path d="M1013,16L1017,208L1136,167Z" fill="#d4c8c3" stroke="#d4c8c3"/><path d="M1013,16L1136,167L1155,58Z" fill="#cfbfb9" stroke="#cfbfb9"/><path d="M1155,58L1136,167L1229,162Z" fill="#c8c1bf" stroke="#c8c1bf"/><path d="M1155,58L1229,162L1282,55Z" fill="#c2bab7" stroke="#c2bab7"/><path d="M1282,55L1229,162L1359,199Z" fill="#bbbcbe" stroke="#bbbcbe"/><path d="M1282,55L1359,199L1400,18Z" fill="#b5b3b3" stroke="#b5b3b3"/><path d="M1400,18L1359,199L1477,90Z" fill="#aeb1b4" stroke="#aeb1b4"/><path d="M1477,90L1359,199L1460,211Z" fill="#acb7bf" stroke="#acb7bf"/><path d="M1477,90L1460,211L1583,185Z" fill="#a4b2bc" stroke="#a4b2bc"/><path d="M1477,90L1583,185L1609,72Z" fill="#9faab2" stroke="#9faab2"/><path d="M1609,72L1583,185L1697,58Z" fill="#97a4ae" stroke="#97a4ae"/><path d="M1697,58L1583,185L1759,207Z" fill="#92a7b5" stroke="#92a7b5"/><path d="M1697,58L1759,207L1831,35Z" fill="#899ca9" stroke="#899ca9"/><path d="M1831,35L1759,207L1835,200Z" fill="#859fb0" stroke="#859fb0"/><path d="M1831,35L1835,200L1951,209Z" fill="#809cae" stroke="#809cae"/><path d="M1831,35L1951,209L2009,28Z" fill="#8091a2" stroke="#8091a2"/><path d="M2009,28L1951,209L2134,194Z" fill="#8092a9" stroke="#8092a9"/><path d="M2009,28L2134,194L2126,40Z" fill="#80889d" stroke="#80889d"/><path d="M2126,40L2134,194L2203,181Z" fill="#808ba5" stroke="#808ba5"/><path d="M2126,40L2203,181L2257,52Z" fill="#80829a" stroke="#80829a"/><path d="M2257,52L2203,181L2211,310Z" fill="#808cab" stroke="#808cab"/><path d="M2257,52L2211,310L2229,379Z" fill="#8093b6" stroke="#8093b6"/><path d="M2257,52L2229,379L2253,635Z" fill="#809fca" stroke="#809fca"/><path d="M2257,52L2253,635L2257,776Z" fill="#6c99cc" stroke="#6c99cc"/><path d="M-80,149L-86,309L24,195Z" fill="#f7ae8f" stroke="#f7ae8f"/><path d="M24,195L-86,309L95,296Z" fill="#f7b99e" stroke="#f7b99e"/><path d="M24,195L95,296L193,194Z" fill="#f8bba1" stroke="#f8bba1"/><path d="M193,194L95,296L153,308Z" fill="#f8c3ad" stroke="#f8c3ad"/><path d="M193,194L153,308L310,264Z" fill="#f9c8b3" stroke="#f9c8b3"/><path d="M193,194L310,264L292,136Z" fill="#f9c4ad" stroke="#f9c4ad"/><path d="M292,136L310,264L404,138Z" fill="#f9c8b1" stroke="#f9c8b1"/><path d="M404,138L310,264L384,289Z" fill="#f9d0be" stroke="#f9d0be"/><path d="M404,138L384,289L510,223Z" fill="#fad4c3" stroke="#fad4c3"/><path d="M510,223L384,289L521,300Z" fill="#faded1" stroke="#faded1"/><path d="M510,223L521,300L685,300Z" fill="#fbe6dd" stroke="#fbe6dd"/><path d="M510,223L685,300L692,147Z" fill="#fbe4d9" stroke="#fbe4d9"/><path d="M692,147L685,300L799,286Z" fill="#f7e9e2" stroke="#f7e9e2"/><path d="M692,147L799,286L823,154Z" fill="#f2e0d8" stroke="#f2e0d8"/><path d="M823,154L799,286L889,194Z" fill="#ebded9" stroke="#ebded9"/><path d="M889,194L799,286L930,272Z" fill="#e7e1df" stroke="#e7e1df"/><path d="M889,194L930,272L1017,208Z" fill="#e0dad8" stroke="#e0dad8"/><path d="M1017,208L930,272L991,330Z" fill="#dcdddf" stroke="#dcdddf"/><path d="M1017,208L991,330L1144,339Z" fill="#d4dce1" stroke="#d4dce1"/><path d="M1017,208L1144,339L1136,167Z" fill="#cfd3d6" stroke="#cfd3d6"/><path d="M1136,167L1144,339L1250,258Z" fill="#c7d1d7" stroke="#c7d1d7"/><path d="M1136,167L1250,258L1229,162Z" fill="#c4c7cb" stroke="#c4c7cb"/><path d="M1229,162L1250,258L1359,199Z" fill="#bcc5cb" stroke="#bcc5cb"/><path d="M1359,199L1250,258L1370,300Z" fill="#b7c7d2" stroke="#b7c7d2"/><path d="M1359,199L1370,300L1460,211Z" fill="#b0c1cd" stroke="#b0c1cd"/><path d="M1460,211L1370,300L1506,327Z" fill="#abc4d3" stroke="#abc4d3"/><path d="M1460,211L1506,327L1606,284Z" fill="#a3bfd0" stroke="#a3bfd0"/><path d="M1460,211L1606,284L1583,185Z" fill="#a0b8c6" stroke="#a0b8c6"/><path d="M1583,185L1606,284L1724,288Z" fill="#97b6c9" stroke="#97b6c9"/><path d="M1583,185L1724,288L1759,207Z" fill="#91b0c2" stroke="#91b0c2"/><path d="M1759,207L1724,288L1835,200Z" fill="#88abc1" stroke="#88abc1"/><path d="M1835,200L1724,288L1885,342Z" fill="#84afc8" stroke="#84afc8"/><path d="M1835,200L1885,342L1951,209Z" fill="#80a7c1" stroke="#80a7c1"/><path d="M1951,209L1885,342L2000,268Z" fill="#80a7c3" stroke="#80a7c3"/><path d="M1951,209L2000,268L2134,194Z" fill="#809cb8" stroke="#809cb8"/><path d="M2134,194L2000,268L2105,338Z" fill="#809ebe" stroke="#809ebe"/><path d="M2134,194L2105,338L2211,310Z" fill="#809cbf" stroke="#809cbf"/><path d="M2134,194L2211,310L2203,181Z" fill="#8094b4" stroke="#8094b4"/><path d="M-86,309L-98,994L-85,575Z" fill="#cbaca4" stroke="#cbaca4"/><path d="M-86,309L-85,575L-79,399Z" fill="#eebaa7" stroke="#eebaa7"/><path d="M-86,309L-79,399L20,411Z" fill="#f7c0ab" stroke="#f7c0ab"/><path d="M-86,309L20,411L95,296Z" fill="#f7c1ab" stroke="#f7c1ab"/><path d="M95,296L20,411L153,308Z" fill="#f8c7b3" stroke="#f8c7b3"/><path d="M153,308L20,411L224,391Z" fill="#f8cfbe" stroke="#f8cfbe"/><path d="M153,308L224,391L310,264Z" fill="#f9d1c0" stroke="#f9d1c0"/><path d="M310,264L224,391L316,445Z" fill="#f9dace" stroke="#f9dace"/><path d="M310,264L316,445L384,289Z" fill="#f9dbcd" stroke="#f9dbcd"/><path d="M384,289L316,445L402,411Z" fill="#f8e2d9" stroke="#f8e2d9"/><path d="M384,289L402,411L521,300Z" fill="#fae3d9" stroke="#fae3d9"/><path d="M521,300L402,411L559,378Z" fill="#faebe4" stroke="#faebe4"/><path d="M521,300L559,378L685,300Z" fill="#fbeee8" stroke="#fbeee8"/><path d="M685,300L559,378L687,405Z" fill="#fbf7f4" stroke="#fbf7f4"/><path d="M685,300L687,405L799,286Z" fill="#f7f3f2" stroke="#f7f3f2"/><path d="M799,286L687,405L767,447Z" fill="#f4f7f9" stroke="#f4f7f9"/><path d="M799,286L767,447L932,459Z" fill="#e7f1f7" stroke="#e7f1f7"/><path d="M799,286L932,459L930,272Z" fill="#e6ebef" stroke="#e6ebef"/><path d="M930,272L932,459L991,330Z" fill="#dfe9ef" stroke="#dfe9ef"/><path d="M991,330L932,459L1016,421Z" fill="#d7e8f2" stroke="#d7e8f2"/><path d="M991,330L1016,421L1115,396Z" fill="#d4e6f1" stroke="#d4e6f1"/><path d="M991,330L1115,396L1144,339Z" fill="#d1e2ec" stroke="#d1e2ec"/><path d="M1144,339L1115,396L1282,411Z" fill="#c6deed" stroke="#c6deed"/><path d="M1144,339L1282,411L1250,258Z" fill="#c2d7e4" stroke="#c2d7e4"/><path d="M1250,258L1282,411L1370,300Z" fill="#bad1e0" stroke="#bad1e0"/><path d="M1370,300L1282,411L1380,379Z" fill="#b5d4e6" stroke="#b5d4e6"/><path d="M1370,300L1380,379L1506,327Z" fill="#aeccde" stroke="#aeccde"/><path d="M1506,327L1380,379L1507,446Z" fill="#a7cee4" stroke="#a7cee4"/><path d="M1506,327L1507,446L1651,389Z" fill="#9dc8e2" stroke="#9dc8e2"/><path d="M1506,327L1651,389L1606,284Z" fill="#9cc3d9" stroke="#9cc3d9"/><path d="M1606,284L1651,389L1724,288Z" fill="#94bdd5" stroke="#94bdd5"/><path d="M1724,288L1651,389L1711,396Z" fill="#90bfdb" stroke="#90bfdb"/><path d="M1724,288L1711,396L1885,342Z" fill="#88b9d5" stroke="#88b9d5"/><path d="M1885,342L1711,396L1863,441Z" fill="#80b9da" stroke="#80b9da"/><path d="M1885,342L1863,441L2002,432Z" fill="#7bb3d7" stroke="#7bb3d7"/><path d="M1885,342L2002,432L2000,268Z" fill="#80afd1" stroke="#80afd1"/><path d="M2000,268L2002,432L2105,338Z" fill="#80aace" stroke="#80aace"/><path d="M2105,338L2002,432L2126,442Z" fill="#7baad2" stroke="#7baad2"/><path d="M2105,338L2126,442L2229,379Z" fill="#7ea6d0" stroke="#7ea6d0"/><path d="M2105,338L2229,379L2211,310Z" fill="#80a2c9" stroke="#80a2c9"/><path d="M-79,399L-85,575L20,411Z" fill="#e8bbab" stroke="#e8bbab"/><path d="M20,411L-85,575L54,527Z" fill="#e1bbaf" stroke="#e1bbaf"/><path d="M20,411L54,527L195,509Z" fill="#e5c4ba" stroke="#e5c4ba"/><path d="M20,411L195,509L224,391Z" fill="#edccc0" stroke="#edccc0"/><path d="M224,391L195,509L316,445Z" fill="#ecd3ca" stroke="#ecd3ca"/><path d="M316,445L195,509L293,559Z" fill="#e2d1cc" stroke="#e2d1cc"/><path d="M316,445L293,559L393,538Z" fill="#e1d5d4" stroke="#e1d5d4"/><path d="M316,445L393,538L402,411Z" fill="#eadcd8" stroke="#eadcd8"/><path d="M402,411L393,538L559,378Z" fill="#eee4e2" stroke="#eee4e2"/><path d="M559,378L393,538L575,583Z" fill="#e4e4e7" stroke="#e4e4e7"/><path d="M559,378L575,583L647,535Z" fill="#e5ebf0" stroke="#e5ebf0"/><path d="M559,378L647,535L687,405Z" fill="#eff3f5" stroke="#eff3f5"/><path d="M687,405L647,535L755,503Z" fill="#e7f3fa" stroke="#e7f3fa"/><path d="M687,405L755,503L767,447Z" fill="#e8f3f9" stroke="#e8f3f9"/><path d="M767,447L755,503L886,528Z" fill="#daecf6" stroke="#daecf6"/><path d="M767,447L886,528L932,459Z" fill="#d6eaf5" stroke="#d6eaf5"/><path d="M932,459L886,528L1028,511Z" fill="#c9e3f2" stroke="#c9e3f2"/><path d="M932,459L1028,511L1016,421Z" fill="#cbe3f1" stroke="#cbe3f1"/><path d="M1016,421L1028,511L1115,396Z" fill="#c8e1f0" stroke="#c8e1f0"/><path d="M1115,396L1028,511L1172,500Z" fill="#beddee" stroke="#beddee"/><path d="M1115,396L1172,500L1282,411Z" fill="#bbdaec" stroke="#bbdaec"/><path d="M1282,411L1172,500L1230,528Z" fill="#afd5ea" stroke="#afd5ea"/><path d="M1282,411L1230,528L1393,564Z" fill="#a4cfe8" stroke="#a4cfe8"/><path d="M1282,411L1393,564L1380,379Z" fill="#a7d0e7" stroke="#a7d0e7"/><path d="M1380,379L1393,564L1507,446Z" fill="#9dcae4" stroke="#9dcae4"/><path d="M1507,446L1393,564L1523,575Z" fill="#8dc3e3" stroke="#8dc3e3"/><path d="M1507,446L1523,575L1592,550Z" fill="#87c0e1" stroke="#87c0e1"/><path d="M1507,446L1592,550L1651,389Z" fill="#8dc2e0" stroke="#8dc2e0"/><path d="M1651,389L1592,550L1711,396Z" fill="#89bfde" stroke="#89bfde"/><path d="M1711,396L1592,550L1745,575Z" fill="#7bb9dc" stroke="#7bb9dc"/><path d="M1711,396L1745,575L1863,441Z" fill="#77b6da" stroke="#77b6da"/><path d="M1863,441L1745,575L1873,563Z" fill="#68afd8" stroke="#68afd8"/><path d="M1863,441L1873,563L2007,500Z" fill="#6aacd6" stroke="#6aacd6"/><path d="M1863,441L2007,500L2002,432Z" fill="#71acd5" stroke="#71acd5"/><path d="M2002,432L2007,500L2077,515Z" fill="#6da7d3" stroke="#6da7d3"/><path d="M2002,432L2077,515L2126,442Z" fill="#70a6d2" stroke="#70a6d2"/><path d="M2126,442L2077,515L2184,507Z" fill="#6ca1d0" stroke="#6ca1d0"/><path d="M2126,442L2184,507L2229,379Z" fill="#74a1cf" stroke="#74a1cf"/><path d="M2229,379L2184,507L2253,635Z" fill="#699acd" stroke="#699acd"/><path d="M-85,575L-98,994L-80,758Z" fill="#b0a1a3" stroke="#b0a1a3"/><path d="M-85,575L-80,758L-46,675Z" fill="#c3aaa6" stroke="#c3aaa6"/><path d="M-85,575L-46,675L71,632Z" fill="#cbb1ac" stroke="#cbb1ac"/><path d="M-85,575L71,632L54,527Z" fill="#d4b7b0" stroke="#d4b7b0"/><path d="M54,527L71,632L195,509Z" fill="#d8c0ba" stroke="#d8c0ba"/><path d="M195,509L71,632L208,641Z" fill="#d2c2bf" stroke="#d2c2bf"/><path d="M195,509L208,641L293,559Z" fill="#d7c9c8" stroke="#d7c9c8"/><path d="M293,559L208,641L306,686Z" fill="#ccc8cc" stroke="#ccc8cc"/><path d="M293,559L306,686L437,637Z" fill="#cdced4" stroke="#cdced4"/><path d="M293,559L437,637L393,538Z" fill="#d6d4d8" stroke="#d6d4d8"/><path d="M393,538L437,637L575,583Z" fill="#d5dbe2" stroke="#d5dbe2"/><path d="M575,583L437,637L541,636Z" fill="#cfdde7" stroke="#cfdde7"/><path d="M575,583L541,636L685,681Z" fill="#cde2f0" stroke="#cde2f0"/><path d="M575,583L685,681L647,535Z" fill="#d3e7f4" stroke="#d3e7f4"/><path d="M647,535L685,681L755,503Z" fill="#d7edf9" stroke="#d7edf9"/><path d="M755,503L685,681L784,677Z" fill="#cae6f7" stroke="#cae6f7"/><path d="M755,503L784,677L886,528Z" fill="#cce6f6" stroke="#cce6f6"/><path d="M886,528L784,677L909,694Z" fill="#bbdff4" stroke="#bbdff4"/><path d="M886,528L909,694L1015,639Z" fill="#b5dbf1" stroke="#b5dbf1"/><path d="M886,528L1015,639L1028,511Z" fill="#bcddf1" stroke="#bcddf1"/><path d="M1028,511L1015,639L1183,634Z" fill="#abd5ed" stroke="#abd5ed"/><path d="M1028,511L1183,634L1172,500Z" fill="#aed5ec" stroke="#aed5ec"/><path d="M1172,500L1183,634L1230,528Z" fill="#a6d1ea" stroke="#a6d1ea"/><path d="M1230,528L1183,634L1267,617Z" fill="#9bcde9" stroke="#9bcde9"/><path d="M1230,528L1267,617L1393,564Z" fill="#98cae7" stroke="#98cae7"/><path d="M1393,564L1267,617L1362,643Z" fill="#8dc5e5" stroke="#8dc5e5"/><path d="M1393,564L1362,643L1504,642Z" fill="#83c0e3" stroke="#83c0e3"/><path d="M1393,564L1504,642L1523,575Z" fill="#81bfe2" stroke="#81bfe2"/><path d="M1523,575L1504,642L1642,617Z" fill="#76b8df" stroke="#76b8df"/><path d="M1523,575L1642,617L1592,550Z" fill="#78b9df" stroke="#78b9df"/><path d="M1592,550L1642,617L1745,575Z" fill="#70b4dd" stroke="#70b4dd"/><path d="M1745,575L1642,617L1748,657Z" fill="#64afdb" stroke="#64afdb"/><path d="M1745,575L1748,657L1826,655Z" fill="#5cabd9" stroke="#5cabd9"/><path d="M1745,575L1826,655L1873,563Z" fill="#5dabd8" stroke="#5dabd8"/><path d="M1873,563L1826,655L1948,630Z" fill="#55a5d6" stroke="#55a5d6"/><path d="M1873,563L1948,630L2007,500Z" fill="#5fa6d4" stroke="#5fa6d4"/><path d="M2007,500L1948,630L2093,642Z" fill="#5aa0d2" stroke="#5aa0d2"/><path d="M2007,500L2093,642L2077,515Z" fill="#61a0d1" stroke="#61a0d1"/><path d="M2077,515L2093,642L2184,507Z" fill="#609ccf" stroke="#609ccf"/><path d="M2184,507L2093,642L2253,635Z" fill="#5996cd" stroke="#5996cd"/><path d="M-46,675L-80,758L74,783Z" fill="#b7a9ab" stroke="#b7a9ab"/><path d="M-46,675L74,783L71,632Z" fill="#bfb0b1" stroke="#bfb0b1"/><path d="M71,632L74,783L175,739Z" fill="#bbb5b9" stroke="#bbb5b9"/><path d="M71,632L175,739L208,641Z" fill="#c4bcbe" stroke="#c4bcbe"/><path d="M208,641L175,739L269,747Z" fill="#bebec5" stroke="#bebec5"/><path d="M208,641L269,747L306,686Z" fill="#c1c3ca" stroke="#c1c3ca"/><path d="M306,686L269,747L416,778Z" fill="#bac5d1" stroke="#bac5d1"/><path d="M306,686L416,778L437,637Z" fill="#c1ccd7" stroke="#c1ccd7"/><path d="M437,637L416,778L512,806Z" fill="#bacfde" stroke="#bacfde"/><path d="M437,637L512,806L541,636Z" fill="#c2d5e3" stroke="#c2d5e3"/><path d="M541,636L512,806L664,763Z" fill="#bcd8eb" stroke="#bcd8eb"/><path d="M541,636L664,763L685,681Z" fill="#c3e0f2" stroke="#c3e0f2"/><path d="M685,681L664,763L776,791Z" fill="#b8dff6" stroke="#b8dff6"/><path d="M685,681L776,791L784,677Z" fill="#b8dff6" stroke="#b8dff6"/><path d="M784,677L776,791L909,743Z" fill="#add9f3" stroke="#add9f3"/><path d="M784,677L909,743L909,694Z" fill="#aed9f2" stroke="#aed9f2"/><path d="M909,694L909,743L1009,753Z" fill="#a1d3f0" stroke="#a1d3f0"/><path d="M909,694L1009,753L1015,639Z" fill="#a4d3ef" stroke="#a4d3ef"/><path d="M1015,639L1009,753L1183,634Z" fill="#9ed0ed" stroke="#9ed0ed"/><path d="M1183,634L1009,753L1163,788Z" fill="#90c9eb" stroke="#90c9eb"/><path d="M1183,634L1163,788L1292,779Z" fill="#84c3e8" stroke="#84c3e8"/><path d="M1183,634L1292,779L1267,617Z" fill="#8bc5e8" stroke="#8bc5e8"/><path d="M1267,617L1292,779L1362,643Z" fill="#84c2e6" stroke="#84c2e6"/><path d="M1362,643L1292,779L1417,814Z" fill="#73bae3" stroke="#73bae3"/><path d="M1362,643L1417,814L1504,642Z" fill="#74b9e2" stroke="#74b9e2"/><path d="M1504,642L1417,814L1463,813Z" fill="#66b3e0" stroke="#66b3e0"/><path d="M1504,642L1463,813L1605,786Z" fill="#61b1df" stroke="#61b1df"/><path d="M1504,642L1605,786L1642,617Z" fill="#66b2dd" stroke="#66b2dd"/><path d="M1642,617L1605,786L1748,657Z" fill="#5daddb" stroke="#5daddb"/><path d="M1748,657L1605,786L1765,747Z" fill="#51a7d9" stroke="#51a7d9"/><path d="M1748,657L1765,747L1826,655Z" fill="#51a6d8" stroke="#51a6d8"/><path d="M1826,655L1765,747L1884,736Z" fill="#47a1d6" stroke="#47a1d6"/><path d="M1826,655L1884,736L1948,630Z" fill="#4ba1d5" stroke="#4ba1d5"/><path d="M1948,630L1884,736L1943,813Z" fill="#429bd3" stroke="#429bd3"/><path d="M1948,630L1943,813L2095,786Z" fill="#3f96d1" stroke="#3f96d1"/><path d="M1948,630L2095,786L2093,642Z" fill="#4997d0" stroke="#4997d0"/><path d="M2093,642L2095,786L2257,776Z" fill="#418ecc" stroke="#418ecc"/><path d="M2093,642L2257,776L2253,635Z" fill="#498fcb" stroke="#498fcb"/><path d="M-80,758L-98,994L-20,885Z" fill="#9e9ba4" stroke="#9e9ba4"/><path d="M-80,758L-20,885L74,783Z" fill="#aba5ab" stroke="#aba5ab"/><path d="M74,783L-20,885L54,877Z" fill="#a4a6b0" stroke="#a4a6b0"/><path d="M74,783L54,877L153,917Z" fill="#a3a9b6" stroke="#a3a9b6"/><path d="M74,783L153,917L175,739Z" fill="#abb0bb" stroke="#abb0bb"/><path d="M175,739L153,917L270,907Z" fill="#a4b2c2" stroke="#a4b2c2"/><path d="M175,739L270,907L269,747Z" fill="#aeb9c6" stroke="#aeb9c6"/><path d="M269,747L270,907L416,778Z" fill="#adbfcf" stroke="#adbfcf"/><path d="M416,778L270,907L409,914Z" fill="#a3bed4" stroke="#a3bed4"/><path d="M416,778L409,914L512,806Z" fill="#a9c7dc" stroke="#a9c7dc"/><path d="M512,806L409,914L513,917Z" fill="#a2c7df" stroke="#a2c7df"/><path d="M512,806L513,917L618,892Z" fill="#a3cde7" stroke="#a3cde7"/><path d="M512,806L618,892L664,763Z" fill="#acd4ee" stroke="#acd4ee"/><path d="M664,763L618,892L758,876Z" fill="#a9daf6" stroke="#a9daf6"/><path d="M664,763L758,876L776,791Z" fill="#a9d9f5" stroke="#a9d9f5"/><path d="M776,791L758,876L861,910Z" fill="#9ad2f3" stroke="#9ad2f3"/><path d="M776,791L861,910L909,743Z" fill="#9cd2f2" stroke="#9cd2f2"/><path d="M909,743L861,910L1029,868Z" fill="#8fcbef" stroke="#8fcbef"/><path d="M909,743L1029,868L1009,753Z" fill="#93cdee" stroke="#93cdee"/><path d="M1009,753L1029,868L1163,788Z" fill="#88c6eb" stroke="#88c6eb"/><path d="M1163,788L1029,868L1179,926Z" fill="#77bfe9" stroke="#77bfe9"/><path d="M1163,788L1179,926L1283,904Z" fill="#6cb9e6" stroke="#6cb9e6"/><path d="M1163,788L1283,904L1292,779Z" fill="#71bbe6" stroke="#71bbe6"/><path d="M1292,779L1283,904L1368,859Z" fill="#66b5e4" stroke="#66b5e4"/><path d="M1292,779L1368,859L1417,814Z" fill="#66b5e3" stroke="#66b5e3"/><path d="M1417,814L1368,859L1470,925Z" fill="#57aee1" stroke="#57aee1"/><path d="M1417,814L1470,925L1463,813Z" fill="#57ade0" stroke="#57ade0"/><path d="M1463,813L1470,925L1588,930Z" fill="#4aa7de" stroke="#4aa7de"/><path d="M1463,813L1588,930L1605,786Z" fill="#4ea8dd" stroke="#4ea8dd"/><path d="M1605,786L1588,930L1776,912Z" fill="#3da0d9" stroke="#3da0d9"/><path d="M1605,786L1776,912L1765,747Z" fill="#41a1d8" stroke="#41a1d8"/><path d="M1765,747L1776,912L1842,902Z" fill="#3299d6" stroke="#3299d6"/><path d="M1765,747L1842,902L1884,736Z" fill="#389cd5" stroke="#389cd5"/><path d="M1884,736L1842,902L1943,813Z" fill="#3296d3" stroke="#3296d3"/><path d="M1943,813L1842,902L1936,910Z" fill="#2891d2" stroke="#2891d2"/><path d="M1943,813L1936,910L2125,907Z" fill="#288ccf" stroke="#288ccf"/><path d="M1943,813L2125,907L2095,786Z" fill="#2f8cce" stroke="#2f8cce"/><path d="M2095,786L2125,907L2228,895Z" fill="#2a84cb" stroke="#2a84cb"/><path d="M2095,786L2228,895L2257,776Z" fill="#3285ca" stroke="#3285ca"/><path d="M2257,776L2228,895L2196,1256Z" fill="#1678c8" stroke="#1678c8"/><path d="M-20,885L-98,994L75,1050Z" fill="#8e99a9" stroke="#8e99a9"/><path d="M-20,885L75,1050L54,877Z" fill="#949faf" stroke="#949faf"/><path d="M54,877L75,1050L153,917Z" fill="#93a3b5" stroke="#93a3b5"/><path d="M153,917L75,1050L188,998Z" fill="#8ca4b9" stroke="#8ca4b9"/><path d="M153,917L188,998L270,907Z" fill="#95adc1" stroke="#95adc1"/><path d="M270,907L188,998L299,1000Z" fill="#90aec6" stroke="#90aec6"/><path d="M270,907L299,1000L409,914Z" fill="#96b6ce" stroke="#96b6ce"/><path d="M409,914L299,1000L421,984Z" fill="#91b8d3" stroke="#91b8d3"/><path d="M409,914L421,984L513,917Z" fill="#97c0dc" stroke="#97c0dc"/><path d="M513,917L421,984L503,1050Z" fill="#8fbfdf" stroke="#8fbfdf"/><path d="M513,917L503,1050L638,990Z" fill="#8fc5e6" stroke="#8fc5e6"/><path d="M513,917L638,990L618,892Z" fill="#99cceb" stroke="#99cceb"/><path d="M618,892L638,990L758,876Z" fill="#9cd3f4" stroke="#9cd3f4"/><path d="M758,876L638,990L791,1039Z" fill="#8ecef3" stroke="#8ecef3"/><path d="M758,876L791,1039L861,910Z" fill="#8bccf2" stroke="#8bccf2"/><path d="M861,910L791,1039L935,1008Z" fill="#7dc5ef" stroke="#7dc5ef"/><path d="M861,910L935,1008L1029,868Z" fill="#7ec4ee" stroke="#7ec4ee"/><path d="M1029,868L935,1008L998,998Z" fill="#75c0ec" stroke="#75c0ec"/><path d="M1029,868L998,998L1179,926Z" fill="#71bdea" stroke="#71bdea"/><path d="M1179,926L998,998L1178,996Z" fill="#64b7e8" stroke="#64b7e8"/><path d="M1179,926L1178,996L1228,1031Z" fill="#5ab2e6" stroke="#5ab2e6"/><path d="M1179,926L1228,1031L1283,904Z" fill="#5cb2e5" stroke="#5cb2e5"/><path d="M1283,904L1228,1031L1347,1007Z" fill="#51ade3" stroke="#51ade3"/><path d="M1283,904L1347,1007L1368,859Z" fill="#56afe2" stroke="#56afe2"/><path d="M1368,859L1347,1007L1470,925Z" fill="#4fabe0" stroke="#4fabe0"/><path d="M1470,925L1347,1007L1510,1049Z" fill="#3fa3de" stroke="#3fa3de"/><path d="M1470,925L1510,1049L1582,994Z" fill="#379fdc" stroke="#379fdc"/><path d="M1470,925L1582,994L1588,930Z" fill="#3ba0dc" stroke="#3ba0dc"/><path d="M1588,930L1582,994L1782,999Z" fill="#2c99d8" stroke="#2c99d8"/><path d="M1588,930L1782,999L1776,912Z" fill="#2a97d7" stroke="#2a97d7"/><path d="M1776,912L1782,999L1842,902Z" fill="#2293d5" stroke="#2293d5"/><path d="M1842,902L1782,999L1866,990Z" fill="#1b8fd3" stroke="#1b8fd3"/><path d="M1842,902L1866,990L1936,910Z" fill="#1e8fd2" stroke="#1e8fd2"/><path d="M1936,910L1866,990L1959,1016Z" fill="#178ad0" stroke="#178ad0"/><path d="M1936,910L1959,1016L2125,907Z" fill="#1c87ce" stroke="#1c87ce"/><path d="M2125,907L1959,1016L2104,1028Z" fill="#1580cc" stroke="#1580cc"/><path d="M2125,907L2104,1028L2194,985Z" fill="#177dca" stroke="#177dca"/><path d="M2125,907L2194,985L2228,895Z" fill="#1e7ec9" stroke="#1e7ec9"/><path d="M2228,895L2194,985L2196,1256Z" fill="#0a74c8" stroke="#0a74c8"/><path d="M-98,994L-17,1280L-16,1173Z" fill="#778aa4" stroke="#778aa4"/><path d="M-98,994L-16,1173L75,1050Z" fill="#7d92a8" stroke="#7d92a8"/><path d="M75,1050L-16,1173L65,1143Z" fill="#7893ad" stroke="#7893ad"/><path d="M75,1050L65,1143L160,1114Z" fill="#7898b4" stroke="#7898b4"/><path d="M75,1050L160,1114L188,998Z" fill="#819fb9" stroke="#819fb9"/><path d="M188,998L160,1114L299,1000Z" fill="#84a6c1" stroke="#84a6c1"/><path d="M299,1000L160,1114L300,1147Z" fill="#7ca6c5" stroke="#7ca6c5"/><path d="M299,1000L300,1147L444,1137Z" fill="#7badcf" stroke="#7badcf"/><path d="M299,1000L444,1137L421,984Z" fill="#85b4d4" stroke="#85b4d4"/><path d="M421,984L444,1137L503,1050Z" fill="#82b8db" stroke="#82b8db"/><path d="M503,1050L444,1137L528,1119Z" fill="#7bb8df" stroke="#7bb8df"/><path d="M503,1050L528,1119L638,990Z" fill="#84c1e6" stroke="#84c1e6"/><path d="M638,990L528,1119L662,1149Z" fill="#7ec2ec" stroke="#7ec2ec"/><path d="M638,990L662,1149L737,1121Z" fill="#7ec8f3" stroke="#7ec8f3"/><path d="M638,990L737,1121L791,1039Z" fill="#81c9f3" stroke="#81c9f3"/><path d="M791,1039L737,1121L918,1155Z" fill="#6ebfef" stroke="#6ebfef"/><path d="M791,1039L918,1155L935,1008Z" fill="#6dbeee" stroke="#6dbeee"/><path d="M935,1008L918,1155L1008,1157Z" fill="#5fb7eb" stroke="#5fb7eb"/><path d="M935,1008L1008,1157L998,998Z" fill="#64b9ec" stroke="#64b9ec"/><path d="M998,998L1008,1157L1178,996Z" fill="#5db5e9" stroke="#5db5e9"/><path d="M1178,996L1008,1157L1181,1160Z" fill="#4daee6" stroke="#4daee6"/><path d="M1178,996L1181,1160L1228,1031Z" fill="#4cace5" stroke="#4cace5"/><path d="M1228,1031L1181,1160L1231,1146Z" fill="#44a8e4" stroke="#44a8e4"/><path d="M1228,1031L1231,1146L1356,1115Z" fill="#3ea6e2" stroke="#3ea6e2"/><path d="M1228,1031L1356,1115L1347,1007Z" fill="#42a7e2" stroke="#42a7e2"/><path d="M1347,1007L1356,1115L1510,1049Z" fill="#37a1df" stroke="#37a1df"/><path d="M1510,1049L1356,1115L1487,1142Z" fill="#2b9bdd" stroke="#2b9bdd"/><path d="M1510,1049L1487,1142L1627,1128Z" fill="#2196da" stroke="#2196da"/><path d="M1510,1049L1627,1128L1582,994Z" fill="#2597da" stroke="#2597da"/><path d="M1582,994L1627,1128L1782,999Z" fill="#1f93d8" stroke="#1f93d8"/><path d="M1782,999L1627,1128L1698,1160Z" fill="#118dd6" stroke="#118dd6"/><path d="M1782,999L1698,1160L1833,1127Z" fill="#0a89d4" stroke="#0a89d4"/><path d="M1782,999L1833,1127L1866,990Z" fill="#0e8ad3" stroke="#0e8ad3"/><path d="M1866,990L1833,1127L1959,1016Z" fill="#0a87d1" stroke="#0a87d1"/><path d="M1959,1016L1833,1127L2015,1101Z" fill="#0481cf" stroke="#0481cf"/><path d="M1959,1016L2015,1101L2104,1028Z" fill="#097ecd" stroke="#097ecd"/><path d="M2104,1028L2015,1101L2097,1107Z" fill="#0479cb" stroke="#0479cb"/><path d="M2104,1028L2097,1107L2175,1154Z" fill="#0175c9" stroke="#0175c9"/><path d="M2104,1028L2175,1154L2194,985Z" fill="#0876c9" stroke="#0876c9"/><path d="M2194,985L2175,1154L2196,1256Z" fill="#006fc7" stroke="#006fc7"/><path d="M-16,1173L-17,1280L76,1251Z" fill="#7888a9" stroke="#7888a9"/><path d="M-16,1173L76,1251L65,1143Z" fill="#788ead" stroke="#788ead"/><path d="M65,1143L76,1251L160,1114Z" fill="#7894b3" stroke="#7894b3"/><path d="M160,1114L76,1251L199,1251Z" fill="#7995b8" stroke="#7995b8"/><path d="M160,1114L199,1251L300,1147Z" fill="#799dc0" stroke="#799dc0"/><path d="M300,1147L199,1251L270,1250Z" fill="#799dc4" stroke="#799dc4"/><path d="M300,1147L270,1250L432,1278Z" fill="#7aa2cc" stroke="#7aa2cc"/><path d="M300,1147L432,1278L444,1137Z" fill="#7aaad3" stroke="#7aaad3"/><path d="M444,1137L432,1278L570,1222Z" fill="#7bafdc" stroke="#7bafdc"/><path d="M444,1137L570,1222L528,1119Z" fill="#7bb5e0" stroke="#7bb5e0"/><path d="M528,1119L570,1222L662,1149Z" fill="#7bbbe8" stroke="#7bbbe8"/><path d="M662,1149L570,1222L639,1236Z" fill="#7bbbec" stroke="#7bbbec"/><path d="M662,1149L639,1236L737,1121Z" fill="#7cc2f2" stroke="#7cc2f2"/><path d="M737,1121L639,1236L824,1292Z" fill="#76bcf1" stroke="#76bcf1"/><path d="M737,1121L824,1292L918,1155Z" fill="#6db9ef" stroke="#6db9ef"/><path d="M918,1155L824,1292L941,1271Z" fill="#65b1ec" stroke="#65b1ec"/><path d="M918,1155L941,1271L1008,1157Z" fill="#5fb1eb" stroke="#5fb1eb"/><path d="M1008,1157L941,1271L1047,1281Z" fill="#5aabe9" stroke="#5aabe9"/><path d="M1008,1157L1047,1281L1181,1160Z" fill="#52a9e7" stroke="#52a9e7"/><path d="M1181,1160L1047,1281L1179,1281Z" fill="#4ca3e5" stroke="#4ca3e5"/><path d="M1181,1160L1179,1281L1243,1233Z" fill="#45a1e3" stroke="#45a1e3"/><path d="M1181,1160L1243,1233L1231,1146Z" fill="#43a3e3" stroke="#43a3e3"/><path d="M1231,1146L1243,1233L1356,1115Z" fill="#3da0e1" stroke="#3da0e1"/><path d="M1356,1115L1243,1233L1420,1239Z" fill="#369be0" stroke="#369be0"/><path d="M1356,1115L1420,1239L1487,1142Z" fill="#2e98dd" stroke="#2e98dd"/><path d="M1487,1142L1420,1239L1504,1234Z" fill="#2993db" stroke="#2993db"/><path d="M1487,1142L1504,1234L1627,1128Z" fill="#2191da" stroke="#2191da"/><path d="M1627,1128L1504,1234L1638,1280Z" fill="#1c8bd8" stroke="#1c8bd8"/><path d="M1627,1128L1638,1280L1698,1160Z" fill="#1589d6" stroke="#1589d6"/><path d="M1698,1160L1638,1280L1721,1235Z" fill="#1285d5" stroke="#1285d5"/><path d="M1698,1160L1721,1235L1833,1127Z" fill="#0b85d3" stroke="#0b85d3"/><path d="M1833,1127L1721,1235L1828,1298Z" fill="#077fd2" stroke="#077fd2"/><path d="M1833,1127L1828,1298L1958,1278Z" fill="#0079cf" stroke="#0079cf"/><path d="M1833,1127L1958,1278L2015,1101Z" fill="#007bce" stroke="#007bce"/><path d="M2015,1101L1958,1278L2121,1238Z" fill="#0073cb" stroke="#0073cb"/><path d="M2015,1101L2121,1238L2097,1107Z" fill="#0074ca" stroke="#0074ca"/><path d="M2097,1107L2121,1238L2175,1154Z" fill="#0070c8" stroke="#0070c8"/><path d="M2175,1154L2121,1238L2196,1256Z" fill="#006ac7" stroke="#006ac7"/><path d="M-17,1280L824,1292L432,1278Z" fill="#7aa4d4" stroke="#7aa4d4"/><path d="M-17,1280L432,1278L199,1251Z" fill="#7995be" stroke="#7995be"/><path d="M-17,1280L199,1251L76,1251Z" fill="#788cb1" stroke="#788cb1"/><path d="M199,1251L432,1278L270,1250Z" fill="#7a9dc8" stroke="#7a9dc8"/><path d="M432,1278L824,1292L639,1236Z" fill="#7bb7ec" stroke="#7bb7ec"/><path d="M432,1278L639,1236L570,1222Z" fill="#7bb2e3" stroke="#7bb2e3"/><path d="M824,1292L1828,1298L1179,1281Z" fill="#3d97e0" stroke="#3d97e0"/><path d="M824,1292L1179,1281L1047,1281Z" fill="#59a7e8" stroke="#59a7e8"/><path d="M824,1292L1047,1281L941,1271Z" fill="#61acea" stroke="#61acea"/><path d="M1179,1281L1828,1298L1638,1280Z" fill="#2088d8" stroke="#2088d8"/><path d="M1179,1281L1638,1280L1420,1239Z" fill="#2f92dc" stroke="#2f92dc"/><path d="M1179,1281L1420,1239L1243,1233Z" fill="#3d9ae0" stroke="#3d9ae0"/><path d="M1420,1239L1638,1280L1504,1234Z" fill="#238cd9" stroke="#238cd9"/><path d="M1638,1280L1828,1298L1721,1235Z" fill="#0d7fd3" stroke="#0d7fd3"/><path d="M1828,1298L2196,1256L1958,1278Z" fill="#006fcb" stroke="#006fcb"/><path d="M1958,1278L2196,1256L2121,1238Z" fill="#006bc8" stroke="#006bc8"/></g></svg>