<svg width="2048" height="1126" xmlns="http://www.w3.org/2000/svg"><g transform="rotate(180 1024 563)"><path d="M-105,-82L-121,508L-91,20Z" fill="#e6f5fd" stroke="#e6f5fd"/><path d="M-105,-82L-91,20L102,-24Z" fill="#f0f6fc" stroke="#f0f6fc"/><path d="M-105,-82L102,-24L264,-75Z" fill="#ebf3fa" stroke="#ebf3fa"/><path d="M-105,-82L264,-75L519,-123Z" fill="#e4f0f8" stroke="#e4f0f8"/><path d="M102,-24L-91,20L24,109Z" fill="#ebf4fb" stroke="#ebf4fb"/><path d="M102,-24L24,109L234,81Z" fill="#e4f1f9" stroke="#e4f1f9"/><path d="M102,-24L234,81L264,-75Z" fill="#e5f0f8" stroke="#e5f0f8"/><path d="M264,-75L234,81L308,-63Z" fill="#e2eff7" stroke="#e2eff7"/><path d="M264,-75L308,-63L519,-123Z" fill="#deecf5" stroke="#deecf5"/><path d="M308,-63L234,81L396,67Z" fill="#deedf6" stroke="#deedf6"/><path d="M308,-63L396,67L519,-123Z" fill="#dcebf5" stroke="#dcebf5"/><path d="M519,-123L396,67L502,117Z" fill="#d7e9f4" stroke="#d7e9f4"/><path d="M519,-123L502,117L634,-48Z" fill="#d5e8f2" stroke="#d5e8f2"/><path d="M519,-123L634,-48L743,-120Z" fill="#d1e6f1" stroke="#d1e6f1"/><path d="M519,-123L743,-120L1042,-123Z" fill="#cae1ee" stroke="#cae1ee"/><path d="M634,-48L502,117L677,121Z" fill="#cde6f2" stroke="#cde6f2"/><path d="M634,-48L677,121L819,66Z" fill="#c9e3f0" stroke="#c9e3f0"/><path d="M634,-48L819,66L743,-120Z" fill="#cce3ef" stroke="#cce3ef"/><path d="M743,-120L819,66L873,31Z" fill="#c8e0ed" stroke="#c8e0ed"/><path d="M743,-120L873,31L939,-76Z" fill="#c6deec" stroke="#c6deec"/><path d="M743,-120L939,-76L1042,-123Z" fill="#c3dcea" stroke="#c3dcea"/><path d="M939,-76L873,31L1066,25Z" fill="#c0dae9" stroke="#c0dae9"/><path d="M939,-76L1066,25L1042,-123Z" fill="#bdd8e7" stroke="#bdd8e7"/><path d="M1042,-123L1066,25L1141,-92Z" fill="#b9d5e6" stroke="#b9d5e6"/><path d="M1042,-123L1141,-92L1298,-103Z" fill="#b5d2e4" stroke="#b5d2e4"/><path d="M1042,-123L1298,-103L1905,-105Z" fill="#a8c8dd" stroke="#a8c8dd"/><path d="M1141,-92L1066,25L1235,28Z" fill="#b6d3e4" stroke="#b6d3e4"/><path d="M1141,-92L1235,28L1298,-103Z" fill="#b2d0e2" stroke="#b2d0e2"/><path d="M1298,-103L1235,28L1333,79Z" fill="#aecde0" stroke="#aecde0"/><path d="M1298,-103L1333,79L1467,-93Z" fill="#aacade" stroke="#aacade"/><path d="M1298,-103L1467,-93L1905,-105Z" fill="#a0c3d9" stroke="#a0c3d9"/><path d="M1467,-93L1333,79L1493,48Z" fill="#a6c8dd" stroke="#a6c8dd"/><path d="M1467,-93L1493,48L1557,-69Z" fill="#a3c5db" stroke="#a3c5db"/><path d="M1467,-93L1557,-69L1905,-105Z" fill="#9bbfd7" stroke="#9bbfd7"/><path d="M1557,-69L1493,48L1649,53Z" fill="#9fc2d9" stroke="#9fc2d9"/><path d="M1557,-69L1649,53L1784,-59Z" fill="#9abfd6" stroke="#9abfd6"/><path d="M1557,-69L1784,-59L1905,-105Z" fill="#96bbd4" stroke="#96bbd4"/><path d="M1784,-59L1649,53L1763,95Z" fill="#94bcd5" stroke="#94bcd5"/><path d="M1784,-59L1763,95L1846,25Z" fill="#91b9d3" stroke="#91b9d3"/><path d="M1784,-59L1846,25L1905,-105Z" fill="#91b8d2" stroke="#91b8d2"/><path d="M1905,-105L1846,25L1998,50Z" fill="#8db5d0" stroke="#8db5d0"/><path d="M1905,-105L1998,50L2027,-63Z" fill="#8ab3ce" stroke="#8ab3ce"/><path d="M1905,-105L2027,-63L2158,-39Z" fill="#87b0cd" stroke="#87b0cd"/><path d="M2027,-63L1998,50L2118,18Z" fill="#86b0cc" stroke="#86b0cc"/><path d="M2027,-63L2118,18L2158,-39Z" fill="#83aecb" stroke="#83aecb"/><path d="M2158,-39L2118,18L2156,202Z" fill="#7babca" stroke="#7babca"/><path d="M2158,-39L2156,202L2190,513Z" fill="#6ca7c9" stroke="#6ca7c9"/><path d="M-91,20L-121,508L-29,164Z" fill="#def3fd" stroke="#def3fd"/><path d="M-91,20L-29,164L24,109Z" fill="#e8f4fc" stroke="#e8f4fc"/><path d="M24,109L-29,164L89,226Z" fill="#def2fb" stroke="#def2fb"/><path d="M24,109L89,226L234,81Z" fill="#ddf0f9" stroke="#ddf0f9"/><path d="M234,81L89,226L225,238Z" fill="#d6edf8" stroke="#d6edf8"/><path d="M234,81L225,238L376,191Z" fill="#d3ecf7" stroke="#d3ecf7"/><path d="M234,81L376,191L396,67Z" fill="#d5ebf6" stroke="#d5ebf6"/><path d="M396,67L376,191L502,117Z" fill="#d0e8f4" stroke="#d0e8f4"/><path d="M502,117L376,191L505,246Z" fill="#c9e7f4" stroke="#c9e7f4"/><path d="M502,117L505,246L636,252Z" fill="#c3e4f2" stroke="#c3e4f2"/><path d="M502,117L636,252L677,121Z" fill="#c4e4f2" stroke="#c4e4f2"/><path d="M677,121L636,252L751,170Z" fill="#bee1f0" stroke="#bee1f0"/><path d="M677,121L751,170L819,66Z" fill="#c1e0ef" stroke="#c1e0ef"/><path d="M819,66L751,170L900,156Z" fill="#bcdded" stroke="#bcdded"/><path d="M819,66L900,156L873,31Z" fill="#bedceb" stroke="#bedceb"/><path d="M873,31L900,156L1066,25Z" fill="#bad9e9" stroke="#bad9e9"/><path d="M1066,25L900,156L1052,181Z" fill="#b2d6e8" stroke="#b2d6e8"/><path d="M1066,25L1052,181L1139,166Z" fill="#aed3e6" stroke="#aed3e6"/><path d="M1066,25L1139,166L1235,28Z" fill="#afd1e4" stroke="#afd1e4"/><path d="M1235,28L1139,166L1333,79Z" fill="#a9cee2" stroke="#a9cee2"/><path d="M1333,79L1139,166L1375,225Z" fill="#a1cae0" stroke="#a1cae0"/><path d="M1333,79L1375,225L1501,161Z" fill="#9ac6dd" stroke="#9ac6dd"/><path d="M1333,79L1501,161L1493,48Z" fill="#9ec5dc" stroke="#9ec5dc"/><path d="M1493,48L1501,161L1649,53Z" fill="#99c2d9" stroke="#99c2d9"/><path d="M1649,53L1501,161L1580,257Z" fill="#91bfd9" stroke="#91bfd9"/><path d="M1649,53L1580,257L1763,95Z" fill="#8ebcd6" stroke="#8ebcd6"/><path d="M1763,95L1580,257L1797,190Z" fill="#88b9d5" stroke="#88b9d5"/><path d="M1763,95L1797,190L1918,167Z" fill="#84b5d2" stroke="#84b5d2"/><path d="M1763,95L1918,167L1846,25Z" fill="#88b6d2" stroke="#88b6d2"/><path d="M1846,25L1918,167L1998,50Z" fill="#86b3d0" stroke="#86b3d0"/><path d="M1998,50L1918,167L2005,236Z" fill="#7cb0ce" stroke="#7cb0ce"/><path d="M1998,50L2005,236L2156,202Z" fill="#77adcc" stroke="#77adcc"/><path d="M1998,50L2156,202L2118,18Z" fill="#7badcb" stroke="#7badcb"/><path d="M-29,164L-121,508L-19,391Z" fill="#d2f0fc" stroke="#d2f0fc"/><path d="M-29,164L-19,391L89,226Z" fill="#d7f0fb" stroke="#d7f0fb"/><path d="M89,226L-19,391L71,387Z" fill="#cfeefa" stroke="#cfeefa"/><path d="M89,226L71,387L194,375Z" fill="#ccecf9" stroke="#ccecf9"/><path d="M89,226L194,375L225,238Z" fill="#ceecf9" stroke="#ceecf9"/><path d="M225,238L194,375L328,333Z" fill="#c7e9f7" stroke="#c7e9f7"/><path d="M225,238L328,333L376,191Z" fill="#cae9f6" stroke="#cae9f6"/><path d="M376,191L328,333L498,331Z" fill="#c2e6f5" stroke="#c2e6f5"/><path d="M376,191L498,331L505,246Z" fill="#c2e5f4" stroke="#c2e5f4"/><path d="M505,246L498,331L636,252Z" fill="#bde3f2" stroke="#bde3f2"/><path d="M636,252L498,331L606,378Z" fill="#b7e1f2" stroke="#b7e1f2"/><path d="M636,252L606,378L798,402Z" fill="#b0def0" stroke="#b0def0"/><path d="M636,252L798,402L751,170Z" fill="#b4deef" stroke="#b4deef"/><path d="M751,170L798,402L867,379Z" fill="#acdaed" stroke="#acdaed"/><path d="M751,170L867,379L900,156Z" fill="#b1daec" stroke="#b1daec"/><path d="M900,156L867,379L1004,404Z" fill="#a6d5ea" stroke="#a6d5ea"/><path d="M900,156L1004,404L1052,181Z" fill="#a9d5e8" stroke="#a9d5e8"/><path d="M1052,181L1004,404L1240,333Z" fill="#9dcfe5" stroke="#9dcfe5"/><path d="M1052,181L1240,333L1139,166Z" fill="#a2cfe4" stroke="#a2cfe4"/><path d="M1139,166L1240,333L1375,225Z" fill="#9bcae1" stroke="#9bcae1"/><path d="M1375,225L1240,333L1352,332Z" fill="#92c6df" stroke="#92c6df"/><path d="M1375,225L1352,332L1511,320Z" fill="#8ec3dd" stroke="#8ec3dd"/><path d="M1375,225L1511,320L1501,161Z" fill="#90c2dc" stroke="#90c2dc"/><path d="M1501,161L1511,320L1580,257Z" fill="#8bbfda" stroke="#8bbfda"/><path d="M1580,257L1511,320L1654,391Z" fill="#82bcd9" stroke="#82bcd9"/><path d="M1580,257L1654,391L1700,310Z" fill="#7fb9d7" stroke="#7fb9d7"/><path d="M1580,257L1700,310L1797,190Z" fill="#82b9d6" stroke="#82b9d6"/><path d="M1797,190L1700,310L1873,313Z" fill="#7cb5d3" stroke="#7cb5d3"/><path d="M1797,190L1873,313L1918,167Z" fill="#7cb3d1" stroke="#7cb3d1"/><path d="M1918,167L1873,313L2005,236Z" fill="#76b0cf" stroke="#76b0cf"/><path d="M2005,236L1873,313L1987,351Z" fill="#70aecf" stroke="#70aecf"/><path d="M2005,236L1987,351L2149,345Z" fill="#6aaacc" stroke="#6aaacc"/><path d="M2005,236L2149,345L2156,202Z" fill="#6ba9cb" stroke="#6ba9cb"/><path d="M2156,202L2149,345L2190,513Z" fill="#60a5c9" stroke="#60a5c9"/><path d="M-19,391L-121,508L110,441Z" fill="#c5e8f8" stroke="#c5e8f8"/><path d="M-19,391L110,441L71,387Z" fill="#c7eaf9" stroke="#c7eaf9"/><path d="M71,387L110,441L194,375Z" fill="#c4e9f8" stroke="#c4e9f8"/><path d="M194,375L110,441L240,509Z" fill="#bde4f6" stroke="#bde4f6"/><path d="M194,375L240,509L328,333Z" fill="#bee6f6" stroke="#bee6f6"/><path d="M328,333L240,509L380,484Z" fill="#b7e1f4" stroke="#b7e1f4"/><path d="M328,333L380,484L498,331Z" fill="#b9e4f4" stroke="#b9e4f4"/><path d="M498,331L380,484L464,525Z" fill="#b0ddf1" stroke="#b0ddf1"/><path d="M498,331L464,525L606,378Z" fill="#b1dff1" stroke="#b1dff1"/><path d="M606,378L464,525L643,439Z" fill="#aadaef" stroke="#aadaef"/><path d="M606,378L643,439L798,402Z" fill="#aadbef" stroke="#aadbef"/><path d="M798,402L643,439L789,512Z" fill="#a1d5ec" stroke="#a1d5ec"/><path d="M798,402L789,512L867,379Z" fill="#a0d4eb" stroke="#a0d4eb"/><path d="M867,379L789,512L950,521Z" fill="#98cfe7" stroke="#98cfe7"/><path d="M867,379L950,521L1004,404Z" fill="#98cfe7" stroke="#98cfe7"/><path d="M1004,404L950,521L1002,520Z" fill="#91c9e4" stroke="#91c9e4"/><path d="M1004,404L1002,520L1222,541Z" fill="#8bc5e1" stroke="#8bc5e1"/><path d="M1004,404L1222,541L1240,333Z" fill="#8ec7e2" stroke="#8ec7e2"/><path d="M1240,333L1222,541L1379,491Z" fill="#84c0dd" stroke="#84c0dd"/><path d="M1240,333L1379,491L1352,332Z" fill="#8ac4df" stroke="#8ac4df"/><path d="M1352,332L1379,491L1468,443Z" fill="#81bedb" stroke="#81bedb"/><path d="M1352,332L1468,443L1511,320Z" fill="#86c0dc" stroke="#86c0dc"/><path d="M1511,320L1468,443L1623,474Z" fill="#7bbad8" stroke="#7bbad8"/><path d="M1511,320L1623,474L1654,391Z" fill="#7ab9d7" stroke="#7ab9d7"/><path d="M1654,391L1623,474L1773,490Z" fill="#6fb0d3" stroke="#6fb0d3"/><path d="M1654,391L1773,490L1700,310Z" fill="#74b4d4" stroke="#74b4d4"/><path d="M1700,310L1773,490L1873,313Z" fill="#73b3d3" stroke="#73b3d3"/><path d="M1873,313L1773,490L1835,543Z" fill="#68abcf" stroke="#68abcf"/><path d="M1873,313L1835,543L1987,351Z" fill="#69accf" stroke="#69accf"/><path d="M1987,351L1835,543L1942,578Z" fill="#5ea4cb" stroke="#5ea4cb"/><path d="M1987,351L1942,578L2061,440Z" fill="#5da4cb" stroke="#5da4cb"/><path d="M1987,351L2061,440L2149,345Z" fill="#63a8cc" stroke="#63a8cc"/><path d="M2149,345L2061,440L2190,513Z" fill="#59a0c8" stroke="#59a0c8"/><path d="M-121,508L-113,1009L-103,915Z" fill="#a0ccec" stroke="#a0ccec"/><path d="M-121,508L-103,915L-84,806Z" fill="#a8d2ee" stroke="#a8d2ee"/><path d="M-121,508L-84,806L-72,647Z" fill="#b1d9f2" stroke="#b1d9f2"/><path d="M-121,508L-72,647L91,637Z" fill="#b5ddf3" stroke="#b5ddf3"/><path d="M-121,508L91,637L110,441Z" fill="#bae1f5" stroke="#bae1f5"/><path d="M110,441L91,637L226,582Z" fill="#b2dcf2" stroke="#b2dcf2"/><path d="M110,441L226,582L240,509Z" fill="#b5def3" stroke="#b5def3"/><path d="M240,509L226,582L323,617Z" fill="#aad7ef" stroke="#aad7ef"/><path d="M240,509L323,617L380,484Z" fill="#acd9f0" stroke="#acd9f0"/><path d="M380,484L323,617L464,525Z" fill="#a8d7ee" stroke="#a8d7ee"/><path d="M464,525L323,617L483,580Z" fill="#a2d4ec" stroke="#a2d4ec"/><path d="M464,525L483,580L643,439Z" fill="#a4d6ed" stroke="#a4d6ed"/><path d="M643,439L483,580L585,627Z" fill="#9fd2eb" stroke="#9fd2eb"/><path d="M643,439L585,627L789,512Z" fill="#9cd1ea" stroke="#9cd1ea"/><path d="M789,512L585,627L795,659Z" fill="#91c9e6" stroke="#91c9e6"/><path d="M789,512L795,659L950,521Z" fill="#8fc7e4" stroke="#8fc7e4"/><path d="M950,521L795,659L963,667Z" fill="#85c1e1" stroke="#85c1e1"/><path d="M950,521L963,667L1002,520Z" fill="#87c2e1" stroke="#87c2e1"/><path d="M1002,520L963,667L1095,675Z" fill="#7fbcdd" stroke="#7fbcdd"/><path d="M1002,520L1095,675L1222,541Z" fill="#7fbcdd" stroke="#7fbcdd"/><path d="M1222,541L1095,675L1198,673Z" fill="#76b5d9" stroke="#76b5d9"/><path d="M1222,541L1198,673L1281,678Z" fill="#72b3d8" stroke="#72b3d8"/><path d="M1222,541L1281,678L1379,491Z" fill="#76b6d8" stroke="#76b6d8"/><path d="M1379,491L1281,678L1449,683Z" fill="#6dafd5" stroke="#6dafd5"/><path d="M1379,491L1449,683L1564,614Z" fill="#6aadd3" stroke="#6aadd3"/><path d="M1379,491L1564,614L1468,443Z" fill="#73b3d6" stroke="#73b3d6"/><path d="M1468,443L1564,614L1623,474Z" fill="#6fb1d4" stroke="#6fb1d4"/><path d="M1623,474L1564,614L1698,603Z" fill="#65a9d0" stroke="#65a9d0"/><path d="M1623,474L1698,603L1773,490Z" fill="#66aacf" stroke="#66aacf"/><path d="M1773,490L1698,603L1835,543Z" fill="#60a5cd" stroke="#60a5cd"/><path d="M1835,543L1698,603L1774,765Z" fill="#559ec9" stroke="#559ec9"/><path d="M1835,543L1774,765L1928,763Z" fill="#4b96c5" stroke="#4b96c5"/><path d="M1835,543L1928,763L1942,578Z" fill="#4f99c6" stroke="#4f99c6"/><path d="M2061,440L1942,578L2067,601Z" fill="#539cc6" stroke="#539cc6"/><path d="M2061,440L2067,601L2190,513Z" fill="#519ac5" stroke="#519ac5"/><path d="M2190,513L2067,601L2142,600Z" fill="#4995c2" stroke="#4995c2"/><path d="M2190,513L2142,600L2155,777Z" fill="#418fbf" stroke="#418fbf"/><path d="M2190,513L2155,777L2178,860Z" fill="#3787bb" stroke="#3787bb"/><path d="M2190,513L2178,860L2185,998Z" fill="#2e80b8" stroke="#2e80b8"/><path d="M2190,513L2185,998L2204,1180Z" fill="#2277b3" stroke="#2277b3"/><path d="M-72,647L-84,806L72,801Z" fill="#a3cfed" stroke="#a3cfed"/><path d="M-72,647L72,801L91,637Z" fill="#a7d3ee" stroke="#a7d3ee"/><path d="M91,637L72,801L239,725Z" fill="#9fceeb" stroke="#9fceeb"/><path d="M91,637L239,725L226,582Z" fill="#a5d3ed" stroke="#a5d3ed"/><path d="M226,582L239,725L323,617Z" fill="#a2d1ed" stroke="#a2d1ed"/><path d="M323,617L239,725L322,777Z" fill="#99cbea" stroke="#99cbea"/><path d="M323,617L322,777L483,580Z" fill="#9bceea" stroke="#9bceea"/><path d="M483,580L322,777L482,823Z" fill="#91c6e6" stroke="#91c6e6"/><path d="M483,580L482,823L575,771Z" fill="#8dc4e5" stroke="#8dc4e5"/><path d="M483,580L575,771L585,627Z" fill="#93c9e7" stroke="#93c9e7"/><path d="M585,627L575,771L795,659Z" fill="#8bc4e4" stroke="#8bc4e4"/><path d="M795,659L575,771L793,787Z" fill="#81bee1" stroke="#81bee1"/><path d="M795,659L793,787L877,762Z" fill="#7cbade" stroke="#7cbade"/><path d="M795,659L877,762L963,667Z" fill="#7ebbde" stroke="#7ebbde"/><path d="M963,667L877,762L1048,762Z" fill="#75b5db" stroke="#75b5db"/><path d="M963,667L1048,762L1095,675Z" fill="#74b5da" stroke="#74b5da"/><path d="M1095,675L1048,762L1198,673Z" fill="#70b2d8" stroke="#70b2d8"/><path d="M1198,673L1048,762L1242,802Z" fill="#69acd5" stroke="#69acd5"/><path d="M1198,673L1242,802L1281,678Z" fill="#68acd4" stroke="#68acd4"/><path d="M1281,678L1242,802L1362,743Z" fill="#62a7d2" stroke="#62a7d2"/><path d="M1281,678L1362,743L1449,683Z" fill="#63a8d1" stroke="#63a8d1"/><path d="M1449,683L1362,743L1465,817Z" fill="#5ba2ce" stroke="#5ba2ce"/><path d="M1449,683L1465,817L1599,806Z" fill="#549dcb" stroke="#549dcb"/><path d="M1449,683L1599,806L1564,614Z" fill="#5aa1cd" stroke="#5aa1cd"/><path d="M1564,614L1599,806L1698,603Z" fill="#59a0cc" stroke="#59a0cc"/><path d="M1698,603L1599,806L1774,765Z" fill="#4f99c8" stroke="#4f99c8"/><path d="M1942,578L1928,763L2015,766Z" fill="#4391c2" stroke="#4391c2"/><path d="M1942,578L2015,766L2067,601Z" fill="#4793c2" stroke="#4793c2"/><path d="M2067,601L2015,766L2155,777Z" fill="#3b8bbe" stroke="#3b8bbe"/><path d="M2067,601L2155,777L2142,600Z" fill="#3f8ebf" stroke="#3f8ebf"/><path d="M-84,806L-103,915L48,922Z" fill="#95c5e8" stroke="#95c5e8"/><path d="M-84,806L48,922L72,801Z" fill="#97c7e9" stroke="#97c7e9"/><path d="M72,801L48,922L188,952Z" fill="#8cc0e5" stroke="#8cc0e5"/><path d="M72,801L188,952L239,725Z" fill="#91c4e7" stroke="#91c4e7"/><path d="M239,725L188,952L309,916Z" fill="#89bfe4" stroke="#89bfe4"/><path d="M239,725L309,916L322,777Z" fill="#8ec3e6" stroke="#8ec3e6"/><path d="M322,777L309,916L459,887Z" fill="#84bde2" stroke="#84bde2"/><path d="M322,777L459,887L482,823Z" fill="#85bee2" stroke="#85bee2"/><path d="M482,823L459,887L620,927Z" fill="#7ab7df" stroke="#7ab7df"/><path d="M482,823L620,927L575,771Z" fill="#7dbae0" stroke="#7dbae0"/><path d="M575,771L620,927L718,880Z" fill="#77b6dd" stroke="#77b6dd"/><path d="M575,771L718,880L793,787Z" fill="#7ab9de" stroke="#7ab9de"/><path d="M793,787L718,880L938,890Z" fill="#6fb1da" stroke="#6fb1da"/><path d="M793,787L938,890L877,762Z" fill="#71b2da" stroke="#71b2da"/><path d="M877,762L938,890L1048,762Z" fill="#6dafd8" stroke="#6dafd8"/><path d="M1048,762L938,890L1086,891Z" fill="#65a9d4" stroke="#65a9d4"/><path d="M1048,762L1086,891L1242,802Z" fill="#62a8d3" stroke="#62a8d3"/><path d="M1242,802L1086,891L1210,955Z" fill="#58a0cf" stroke="#58a0cf"/><path d="M1242,802L1210,955L1325,857Z" fill="#559ecd" stroke="#559ecd"/><path d="M1242,802L1325,857L1362,743Z" fill="#5aa2cf" stroke="#5aa2cf"/><path d="M1362,743L1325,857L1465,817Z" fill="#569fcd" stroke="#569fcd"/><path d="M1465,817L1325,857L1436,894Z" fill="#4f99ca" stroke="#4f99ca"/><path d="M1465,817L1436,894L1601,953Z" fill="#4693c6" stroke="#4693c6"/><path d="M1465,817L1601,953L1599,806Z" fill="#4793c6" stroke="#4793c6"/><path d="M1599,806L1601,953L1778,933Z" fill="#3d8cc1" stroke="#3d8cc1"/><path d="M1599,806L1778,933L1774,765Z" fill="#418fc2" stroke="#418fc2"/><path d="M1774,765L1778,933L1844,913Z" fill="#3889bf" stroke="#3889bf"/><path d="M1774,765L1844,913L1928,763Z" fill="#3c8bc0" stroke="#3c8bc0"/><path d="M1928,763L1844,913L2031,870Z" fill="#3386bc" stroke="#3386bc"/><path d="M1928,763L2031,870L2015,766Z" fill="#3687bd" stroke="#3687bd"/><path d="M2015,766L2031,870L2155,777Z" fill="#3284bb" stroke="#3284bb"/><path d="M2155,777L2031,870L2178,860Z" fill="#2b7fb8" stroke="#2b7fb8"/><path d="M-103,915L-113,1009L48,922Z" fill="#8dc0e5" stroke="#8dc0e5"/><path d="M48,922L-113,1009L124,1019Z" fill="#86bbe2" stroke="#86bbe2"/><path d="M48,922L124,1019L188,952Z" fill="#83bae2" stroke="#83bae2"/><path d="M188,952L124,1019L223,1095Z" fill="#7ab3de" stroke="#7ab3de"/><path d="M188,952L223,1095L340,1075Z" fill="#75b0dd" stroke="#75b0dd"/><path d="M188,952L340,1075L309,916Z" fill="#7ab5df" stroke="#7ab5df"/><path d="M309,916L340,1075L459,887Z" fill="#78b4de" stroke="#78b4de"/><path d="M459,887L340,1075L517,1051Z" fill="#70afdb" stroke="#70afdb"/><path d="M459,887L517,1051L620,927Z" fill="#71b1dc" stroke="#71b1dc"/><path d="M620,927L517,1051L635,1088Z" fill="#67a9d8" stroke="#67a9d8"/><path d="M620,927L635,1088L795,1039Z" fill="#63a8d7" stroke="#63a8d7"/><path d="M620,927L795,1039L718,880Z" fill="#69add9" stroke="#69add9"/><path d="M718,880L795,1039L938,890Z" fill="#65aad6" stroke="#65aad6"/><path d="M938,890L795,1039L898,1043Z" fill="#5ba3d3" stroke="#5ba3d3"/><path d="M938,890L898,1043L1060,1056Z" fill="#569fd0" stroke="#569fd0"/><path d="M938,890L1060,1056L1086,891Z" fill="#59a0d0" stroke="#59a0d0"/><path d="M1086,891L1060,1056L1155,1025Z" fill="#4f9acd" stroke="#4f9acd"/><path d="M1086,891L1155,1025L1210,955Z" fill="#519bcd" stroke="#519bcd"/><path d="M1210,955L1155,1025L1334,1076Z" fill="#4592c8" stroke="#4592c8"/><path d="M1210,955L1334,1076L1325,857Z" fill="#4995c9" stroke="#4995c9"/><path d="M1325,857L1334,1076L1436,894Z" fill="#4794c8" stroke="#4794c8"/><path d="M1436,894L1334,1076L1472,1037Z" fill="#3e8dc4" stroke="#3e8dc4"/><path d="M1436,894L1472,1037L1601,953Z" fill="#3d8dc3" stroke="#3d8dc3"/><path d="M1601,953L1472,1037L1612,1094Z" fill="#3385bf" stroke="#3385bf"/><path d="M1601,953L1612,1094L1697,1062Z" fill="#2e81bd" stroke="#2e81bd"/><path d="M1601,953L1697,1062L1778,933Z" fill="#3184bd" stroke="#3184bd"/><path d="M1778,933L1697,1062L1860,1043Z" fill="#297eba" stroke="#297eba"/><path d="M1778,933L1860,1043L1844,913Z" fill="#2c80bb" stroke="#2c80bb"/><path d="M1844,913L1860,1043L1981,1071Z" fill="#237ab7" stroke="#237ab7"/><path d="M1844,913L1981,1071L2031,870Z" fill="#267cb8" stroke="#267cb8"/><path d="M2031,870L1981,1071L2185,998Z" fill="#1d76b4" stroke="#1d76b4"/><path d="M2031,870L2185,998L2178,860Z" fill="#2279b5" stroke="#2279b5"/><path d="M-113,1009L-56,1385L-76,1203Z" fill="#73abdc" stroke="#73abdc"/><path d="M-113,1009L-76,1203L31,1168Z" fill="#79b1de" stroke="#79b1de"/><path d="M-113,1009L31,1168L124,1019Z" fill="#7db4e0" stroke="#7db4e0"/><path d="M124,1019L31,1168L175,1197Z" fill="#71addb" stroke="#71addb"/><path d="M124,1019L175,1197L223,1095Z" fill="#71addb" stroke="#71addb"/><path d="M223,1095L175,1197L399,1219Z" fill="#65a5d7" stroke="#65a5d7"/><path d="M223,1095L399,1219L340,1075Z" fill="#67a7d8" stroke="#67a7d8"/><path d="M340,1075L399,1219L443,1152Z" fill="#61a4d6" stroke="#61a4d6"/><path d="M340,1075L443,1152L517,1051Z" fill="#66a8d8" stroke="#66a8d8"/><path d="M517,1051L443,1152L609,1149Z" fill="#5fa3d5" stroke="#5fa3d5"/><path d="M517,1051L609,1149L635,1088Z" fill="#5ea4d5" stroke="#5ea4d5"/><path d="M635,1088L609,1149L732,1223Z" fill="#549dd2" stroke="#549dd2"/><path d="M635,1088L732,1223L795,1039Z" fill="#559ed2" stroke="#559ed2"/><path d="M795,1039L732,1223L921,1241Z" fill="#4a96cd" stroke="#4a96cd"/><path d="M795,1039L921,1241L898,1043Z" fill="#4e99ce" stroke="#4e99ce"/><path d="M898,1043L921,1241L1060,1056Z" fill="#4995cb" stroke="#4995cb"/><path d="M1060,1056L921,1241L1072,1228Z" fill="#3f8ec7" stroke="#3f8ec7"/><path d="M1060,1056L1072,1228L1144,1163Z" fill="#3e8dc6" stroke="#3e8dc6"/><path d="M1060,1056L1144,1163L1155,1025Z" fill="#4491c9" stroke="#4491c9"/><path d="M1155,1025L1144,1163L1276,1189Z" fill="#3b8bc5" stroke="#3b8bc5"/><path d="M1155,1025L1276,1189L1334,1076Z" fill="#3b8bc4" stroke="#3b8bc4"/><path d="M1334,1076L1276,1189L1437,1228Z" fill="#2e82bf" stroke="#2e82bf"/><path d="M1334,1076L1437,1228L1472,1037Z" fill="#3183bf" stroke="#3183bf"/><path d="M1472,1037L1437,1228L1612,1094Z" fill="#2b7fbd" stroke="#2b7fbd"/><path d="M1612,1094L1437,1228L1621,1174Z" fill="#2379ba" stroke="#2379ba"/><path d="M1612,1094L1621,1174L1697,1062Z" fill="#257bb9" stroke="#257bb9"/><path d="M1697,1062L1621,1174L1766,1235Z" fill="#1d75b7" stroke="#1d75b7"/><path d="M1697,1062L1766,1235L1843,1171Z" fill="#1972b5" stroke="#1972b5"/><path d="M1697,1062L1843,1171L1860,1043Z" fill="#1f76b6" stroke="#1f76b6"/><path d="M1860,1043L1843,1171L1981,1071Z" fill="#1972b3" stroke="#1972b3"/><path d="M1981,1071L1843,1171L2047,1161Z" fill="#116db0" stroke="#116db0"/><path d="M1981,1071L2047,1161L2185,998Z" fill="#126db0" stroke="#126db0"/><path d="M2185,998L2047,1161L2204,1180Z" fill="#0a67ac" stroke="#0a67ac"/><path d="M-76,1203L-56,1385L88,1347Z" fill="#70a0d6" stroke="#70a0d6"/><path d="M-76,1203L88,1347L31,1168Z" fill="#6fa5d9" stroke="#6fa5d9"/><path d="M31,1168L88,1347L175,1197Z" fill="#6ba3d7" stroke="#6ba3d7"/><path d="M175,1197L88,1347L258,1316Z" fill="#679ed4" stroke="#679ed4"/><path d="M175,1197L258,1316L399,1219Z" fill="#629fd4" stroke="#629fd4"/><path d="M399,1219L258,1316L336,1374Z" fill="#6098d1" stroke="#6098d1"/><path d="M399,1219L336,1374L476,1338Z" fill="#5c96cf" stroke="#5c96cf"/><path d="M399,1219L476,1338L443,1152Z" fill="#5b9bd2" stroke="#5b9bd2"/><path d="M443,1152L476,1338L609,1149Z" fill="#579bd2" stroke="#579bd2"/><path d="M609,1149L476,1338L614,1355Z" fill="#5595ce" stroke="#5595ce"/><path d="M609,1149L614,1355L732,1223Z" fill="#5195ce" stroke="#5195ce"/><path d="M732,1223L614,1355L745,1305Z" fill="#4e90cb" stroke="#4e90cb"/><path d="M732,1223L745,1305L921,1241Z" fill="#498fca" stroke="#498fca"/><path d="M921,1241L745,1305L901,1313Z" fill="#468bc7" stroke="#468bc7"/><path d="M921,1241L901,1313L1035,1355Z" fill="#4185c4" stroke="#4185c4"/><path d="M921,1241L1035,1355L1072,1228Z" fill="#3e86c4" stroke="#3e86c4"/><path d="M1072,1228L1035,1355L1139,1381Z" fill="#3a7fc0" stroke="#3a7fc0"/><path d="M1072,1228L1139,1381L1144,1163Z" fill="#3883c2" stroke="#3883c2"/><path d="M1144,1163L1139,1381L1276,1189Z" fill="#3481c0" stroke="#3481c0"/><path d="M1276,1189L1139,1381L1278,1375Z" fill="#3279bc" stroke="#3279bc"/><path d="M1276,1189L1278,1375L1437,1228Z" fill="#2d7abc" stroke="#2d7abc"/><path d="M1437,1228L1278,1375L1464,1363Z" fill="#2973b8" stroke="#2973b8"/><path d="M1437,1228L1464,1363L1617,1288Z" fill="#2371b6" stroke="#2371b6"/><path d="M1437,1228L1617,1288L1621,1174Z" fill="#2074b7" stroke="#2074b7"/><path d="M1621,1174L1617,1288L1766,1235Z" fill="#1b70b4" stroke="#1b70b4"/><path d="M1766,1235L1617,1288L1800,1307Z" fill="#176ab1" stroke="#176ab1"/><path d="M1766,1235L1800,1307L1843,1171Z" fill="#136ab0" stroke="#136ab0"/><path d="M1843,1171L1800,1307L1856,1361Z" fill="#1265ae" stroke="#1265ae"/><path d="M1843,1171L1856,1361L2042,1338Z" fill="#0d61ab" stroke="#0d61ab"/><path d="M1843,1171L2042,1338L2047,1161Z" fill="#0a64ac" stroke="#0a64ac"/><path d="M2047,1161L2042,1338L2204,1180Z" fill="#045fa9" stroke="#045fa9"/><path d="M2204,1180L2042,1338L2193,1368Z" fill="#0158a5" stroke="#0158a5"/><path d="M-56,1385L1139,1381L336,1374Z" fill="#598ecc" stroke="#598ecc"/><path d="M-56,1385L336,1374L88,1347Z" fill="#6a98d2" stroke="#6a98d2"/><path d="M88,1347L336,1374L258,1316Z" fill="#6597d1" stroke="#6597d1"/><path d="M336,1374L1139,1381L614,1355Z" fill="#4f8ac8" stroke="#4f8ac8"/><path d="M336,1374L614,1355L476,1338Z" fill="#5990cd" stroke="#5990cd"/><path d="M614,1355L1139,1381L1035,1355Z" fill="#4281c2" stroke="#4281c2"/><path d="M614,1355L1035,1355L901,1313Z" fill="#4686c5" stroke="#4686c5"/><path d="M614,1355L901,1313L745,1305Z" fill="#4b8cc8" stroke="#4b8cc8"/><path d="M1139,1381L2193,1368L1278,1375Z" fill="#2269b2" stroke="#2269b2"/><path d="M1278,1375L2193,1368L1856,1361Z" fill="#1560ac" stroke="#1560ac"/><path d="M1278,1375L1856,1361L1464,1363Z" fill="#226ab2" stroke="#226ab2"/><path d="M1464,1363L1856,1361L1617,1288Z" fill="#1c68b0" stroke="#1c68b0"/><path d="M1617,1288L1856,1361L1800,1307Z" fill="#1665ae" stroke="#1665ae"/><path d="M1856,1361L2193,1368L2042,1338Z" fill="#0757a6" stroke="#0757a6"/></g></svg>