<svg width="2048" height="1126" xmlns="http://www.w3.org/2000/svg"><g transform="rotate(180 1024 563)"><path d="M-78,-87L-99,167L-50,29Z" fill="#f8feff" stroke="#f8feff"/><path d="M-78,-87L-50,29L53,-60Z" fill="#f8fcfe" stroke="#f8fcfe"/><path d="M-78,-87L53,-60L279,-87Z" fill="#f0f9fb" stroke="#f0f9fb"/><path d="M-78,-87L279,-87L1423,-101Z" fill="#cdece7" stroke="#cdece7"/><path d="M53,-60L-50,29L42,96Z" fill="#f3fbfd" stroke="#f3fbfd"/><path d="M53,-60L42,96L190,-45Z" fill="#eff9fa" stroke="#eff9fa"/><path d="M53,-60L190,-45L279,-87Z" fill="#eaf7f8" stroke="#eaf7f8"/><path d="M190,-45L42,96L217,88Z" fill="#e7f8f9" stroke="#e7f8f9"/><path d="M190,-45L217,88L288,89Z" fill="#e2f6f6" stroke="#e2f6f6"/><path d="M190,-45L288,89L279,-87Z" fill="#e4f5f6" stroke="#e4f5f6"/><path d="M279,-87L288,89L426,-22Z" fill="#def3f3" stroke="#def3f3"/><path d="M279,-87L426,-22L636,-75Z" fill="#d5efee" stroke="#d5efee"/><path d="M279,-87L636,-75L1423,-101Z" fill="#b6e2d5" stroke="#b6e2d5"/><path d="M426,-22L288,89L422,82Z" fill="#d6f2f2" stroke="#d6f2f2"/><path d="M426,-22L422,82L499,60Z" fill="#d1efee" stroke="#d1efee"/><path d="M426,-22L499,60L545,-18Z" fill="#d1eeeb" stroke="#d1eeeb"/><path d="M426,-22L545,-18L636,-75Z" fill="#cdece7" stroke="#cdece7"/><path d="M545,-18L499,60L680,73Z" fill="#c6eae4" stroke="#c6eae4"/><path d="M545,-18L680,73L636,-75Z" fill="#c5e9e1" stroke="#c5e9e1"/><path d="M636,-75L680,73L744,-74Z" fill="#bfe6dc" stroke="#bfe6dc"/><path d="M636,-75L744,-74L1423,-101Z" fill="#abdcc8" stroke="#abdcc8"/><path d="M744,-74L680,73L770,56Z" fill="#b9e4d8" stroke="#b9e4d8"/><path d="M744,-74L770,56L881,61Z" fill="#b3e2d3" stroke="#b3e2d3"/><path d="M744,-74L881,61L945,-25Z" fill="#b0dfcf" stroke="#b0dfcf"/><path d="M744,-74L945,-25L1014,-65Z" fill="#addecb" stroke="#addecb"/><path d="M744,-74L1014,-65L1298,-90Z" fill="#a5d9c1" stroke="#a5d9c1"/><path d="M744,-74L1298,-90L1423,-101Z" fill="#9bd4b5" stroke="#9bd4b5"/><path d="M945,-25L881,61L1007,96Z" fill="#a6dcc7" stroke="#a6dcc7"/><path d="M945,-25L1007,96L1014,-65Z" fill="#a7dac3" stroke="#a7dac3"/><path d="M1014,-65L1007,96L1146,-45Z" fill="#a2d8be" stroke="#a2d8be"/><path d="M1014,-65L1146,-45L1298,-90Z" fill="#9bd4b6" stroke="#9bd4b6"/><path d="M1146,-45L1007,96L1156,88Z" fill="#9ad6ba" stroke="#9ad6ba"/><path d="M1146,-45L1156,88L1233,48Z" fill="#96d3b4" stroke="#96d3b4"/><path d="M1146,-45L1233,48L1298,-90Z" fill="#96d1b0" stroke="#96d1b0"/><path d="M1298,-90L1233,48L1384,69Z" fill="#91ccab" stroke="#91ccab"/><path d="M1298,-90L1384,69L1423,-101Z" fill="#8ec8a7" stroke="#8ec8a7"/><path d="M1423,-101L1384,69L1476,-26Z" fill="#8bc4a3" stroke="#8bc4a3"/><path d="M1423,-101L1476,-26L1629,-24Z" fill="#87bf9e" stroke="#87bf9e"/><path d="M1423,-101L1629,-24L1765,-96Z" fill="#82b898" stroke="#82b898"/><path d="M1476,-26L1384,69L1527,93Z" fill="#85c2a1" stroke="#85c2a1"/><path d="M1476,-26L1527,93L1622,32Z" fill="#82bd9c" stroke="#82bd9c"/><path d="M1476,-26L1622,32L1629,-24Z" fill="#83ba9a" stroke="#83ba9a"/><path d="M1629,-24L1622,32L1703,62Z" fill="#7eb595" stroke="#7eb595"/><path d="M1629,-24L1703,62L1765,-96Z" fill="#80b292" stroke="#80b292"/><path d="M1765,-96L1703,62L1830,-35Z" fill="#80ae8e" stroke="#80ae8e"/><path d="M1765,-96L1830,-35L2016,-15Z" fill="#80a787" stroke="#80a787"/><path d="M1765,-96L2016,-15L2110,-62Z" fill="#80a182" stroke="#80a182"/><path d="M1830,-35L1703,62L1870,102Z" fill="#7cac8c" stroke="#7cac8c"/><path d="M1830,-35L1870,102L2005,54Z" fill="#7ca585" stroke="#7ca585"/><path d="M1830,-35L2005,54L2016,-15Z" fill="#80a282" stroke="#80a282"/><path d="M2016,-15L2005,54L2086,94Z" fill="#7c9d80" stroke="#7c9d80"/><path d="M2016,-15L2086,94L2110,-62Z" fill="#7f9a80" stroke="#7f9a80"/><path d="M2110,-62L2086,94L2190,62Z" fill="#7d9780" stroke="#7d9780"/><path d="M2110,-62L2190,62L2258,-30Z" fill="#809380" stroke="#809380"/><path d="M2258,-30L2190,62L2193,193Z" fill="#799180" stroke="#799180"/><path d="M2258,-30L2193,193L2234,341Z" fill="#709080" stroke="#709080"/><path d="M2258,-30L2234,341L2253,783Z" fill="#4e876d" stroke="#4e876d"/><path d="M-50,29L-99,167L42,96Z" fill="#effdfe" stroke="#effdfe"/><path d="M42,96L-99,167L36,193Z" fill="#e8fcfd" stroke="#e8fcfd"/><path d="M42,96L36,193L144,190Z" fill="#e2fafb" stroke="#e2fafb"/><path d="M42,96L144,190L217,88Z" fill="#e1f8f9" stroke="#e1f8f9"/><path d="M217,88L144,190L286,210Z" fill="#d7f6f7" stroke="#d7f6f7"/><path d="M217,88L286,210L288,89Z" fill="#d7f5f5" stroke="#d7f5f5"/><path d="M288,89L286,210L387,217Z" fill="#cff3f3" stroke="#cff3f3"/><path d="M288,89L387,217L422,82Z" fill="#cff2f2" stroke="#cff2f2"/><path d="M422,82L387,217L518,173Z" fill="#c7efee" stroke="#c7efee"/><path d="M422,82L518,173L499,60Z" fill="#c8eeeb" stroke="#c8eeeb"/><path d="M499,60L518,173L680,73Z" fill="#c1ebe5" stroke="#c1ebe5"/><path d="M680,73L518,173L682,197Z" fill="#b7e8e0" stroke="#b7e8e0"/><path d="M680,73L682,197L764,185Z" fill="#afe5da" stroke="#afe5da"/><path d="M680,73L764,185L770,56Z" fill="#b0e4d8" stroke="#b0e4d8"/><path d="M770,56L764,185L881,61Z" fill="#abe1d3" stroke="#abe1d3"/><path d="M881,61L764,185L915,186Z" fill="#a3dfcf" stroke="#a3dfcf"/><path d="M881,61L915,186L995,139Z" fill="#9edcc8" stroke="#9edcc8"/><path d="M881,61L995,139L1007,96Z" fill="#9fdbc6" stroke="#9fdbc6"/><path d="M1007,96L995,139L1106,175Z" fill="#96d8bf" stroke="#96d8bf"/><path d="M1007,96L1106,175L1156,88Z" fill="#94d6bb" stroke="#94d6bb"/><path d="M1156,88L1106,175L1244,184Z" fill="#8cd3b4" stroke="#8cd3b4"/><path d="M1156,88L1244,184L1233,48Z" fill="#8dd1b1" stroke="#8dd1b1"/><path d="M1233,48L1244,184L1376,151Z" fill="#87cdac" stroke="#87cdac"/><path d="M1233,48L1376,151L1384,69Z" fill="#88caa9" stroke="#88caa9"/><path d="M1384,69L1376,151L1527,93Z" fill="#81c4a3" stroke="#81c4a3"/><path d="M1527,93L1376,151L1523,168Z" fill="#7cc1a0" stroke="#7cc1a0"/><path d="M1527,93L1523,168L1581,199Z" fill="#76bc9c" stroke="#76bc9c"/><path d="M1527,93L1581,199L1622,32Z" fill="#79ba9a" stroke="#79ba9a"/><path d="M1622,32L1581,199L1703,62Z" fill="#76b696" stroke="#76b696"/><path d="M1703,62L1581,199L1753,163Z" fill="#72b493" stroke="#72b493"/><path d="M1703,62L1753,163L1870,102Z" fill="#75ad8d" stroke="#75ad8d"/><path d="M1870,102L1753,163L1835,173Z" fill="#72ab8a" stroke="#72ab8a"/><path d="M1870,102L1835,173L1944,173Z" fill="#71a687" stroke="#71a687"/><path d="M1870,102L1944,173L2005,54Z" fill="#75a383" stroke="#75a383"/><path d="M2005,54L1944,173L2086,94Z" fill="#769e80" stroke="#769e80"/><path d="M2086,94L1944,173L2077,199Z" fill="#719d80" stroke="#719d80"/><path d="M2086,94L2077,199L2193,193Z" fill="#709780" stroke="#709780"/><path d="M2086,94L2193,193L2190,62Z" fill="#759580" stroke="#759580"/><path d="M-99,167L-102,1014L-93,269Z" fill="#b5efdc" stroke="#b5efdc"/><path d="M-99,167L-93,269L36,193Z" fill="#e6fdff" stroke="#e6fdff"/><path d="M36,193L-93,269L45,325Z" fill="#dafaf8" stroke="#dafaf8"/><path d="M36,193L45,325L144,190Z" fill="#d9f9f9" stroke="#d9f9f9"/><path d="M144,190L45,325L177,301Z" fill="#cef6f4" stroke="#cef6f4"/><path d="M144,190L177,301L286,210Z" fill="#d1f6f6" stroke="#d1f6f6"/><path d="M286,210L177,301L321,284Z" fill="#c6f3f0" stroke="#c6f3f0"/><path d="M286,210L321,284L387,217Z" fill="#c6f2f2" stroke="#c6f2f2"/><path d="M387,217L321,284L387,336Z" fill="#bbefeb" stroke="#bbefeb"/><path d="M387,217L387,336L576,320Z" fill="#b2ece5" stroke="#b2ece5"/><path d="M387,217L576,320L518,173Z" fill="#b9ede9" stroke="#b9ede9"/><path d="M518,173L576,320L646,256Z" fill="#aee9e1" stroke="#aee9e1"/><path d="M518,173L646,256L682,197Z" fill="#b2e9e1" stroke="#b2e9e1"/><path d="M682,197L646,256L800,315Z" fill="#a1e4d6" stroke="#a1e4d6"/><path d="M682,197L800,315L764,185Z" fill="#a2e3d6" stroke="#a2e3d6"/><path d="M764,185L800,315L915,186Z" fill="#9ce0d1" stroke="#9ce0d1"/><path d="M915,186L800,315L924,306Z" fill="#90dcc7" stroke="#90dcc7"/><path d="M915,186L924,306L1010,284Z" fill="#8ddac2" stroke="#8ddac2"/><path d="M915,186L1010,284L995,139Z" fill="#94dbc5" stroke="#94dbc5"/><path d="M995,139L1010,284L1106,175Z" fill="#90d8bf" stroke="#90d8bf"/><path d="M1106,175L1010,284L1184,277Z" fill="#85d5b8" stroke="#85d5b8"/><path d="M1106,175L1184,277L1244,184Z" fill="#85d3b4" stroke="#85d3b4"/><path d="M1244,184L1184,277L1216,305Z" fill="#7bd0ac" stroke="#7bd0ac"/><path d="M1244,184L1216,305L1353,285Z" fill="#77cda8" stroke="#77cda8"/><path d="M1244,184L1353,285L1376,151Z" fill="#7dcba9" stroke="#7dcba9"/><path d="M1376,151L1353,285L1523,168Z" fill="#79c5a4" stroke="#79c5a4"/><path d="M1523,168L1353,285L1499,330Z" fill="#6dc09c" stroke="#6dc09c"/><path d="M1523,168L1499,330L1581,199Z" fill="#6ebc9b" stroke="#6ebc9b"/><path d="M1581,199L1499,330L1618,280Z" fill="#65b894" stroke="#65b894"/><path d="M1581,199L1618,280L1753,163Z" fill="#6bb595" stroke="#6bb595"/><path d="M1753,163L1618,280L1719,324Z" fill="#64b18e" stroke="#64b18e"/><path d="M1753,163L1719,324L1835,173Z" fill="#6bae8e" stroke="#6bae8e"/><path d="M1835,173L1719,324L1873,332Z" fill="#60a985" stroke="#60a985"/><path d="M1835,173L1873,332L1944,173Z" fill="#6aa686" stroke="#6aa686"/><path d="M1944,173L1873,332L2005,314Z" fill="#61a07c" stroke="#61a07c"/><path d="M1944,173L2005,314L2077,199Z" fill="#6a9e7f" stroke="#6a9e7f"/><path d="M2077,199L2005,314L2087,292Z" fill="#62997a" stroke="#62997a"/><path d="M2077,199L2087,292L2193,193Z" fill="#6a977f" stroke="#6a977f"/><path d="M2193,193L2087,292L2234,341Z" fill="#609179" stroke="#609179"/><path d="M-93,269L-102,1014L-85,505Z" fill="#a3e6c7" stroke="#a3e6c7"/><path d="M-93,269L-85,505L-40,442Z" fill="#c1f4e8" stroke="#c1f4e8"/><path d="M-93,269L-40,442L45,325Z" fill="#caf6ef" stroke="#caf6ef"/><path d="M45,325L-40,442L50,463Z" fill="#baf1e5" stroke="#baf1e5"/><path d="M45,325L50,463L177,301Z" fill="#bef2e8" stroke="#bef2e8"/><path d="M177,301L50,463L142,499Z" fill="#b0eee0" stroke="#b0eee0"/><path d="M177,301L142,499L222,453Z" fill="#adecdf" stroke="#adecdf"/><path d="M177,301L222,453L333,388Z" fill="#b0ede1" stroke="#b0ede1"/><path d="M177,301L333,388L321,284Z" fill="#b9efe8" stroke="#b9efe8"/><path d="M321,284L333,388L387,336Z" fill="#b1ece4" stroke="#b1ece4"/><path d="M387,336L333,388L414,407Z" fill="#a7eade" stroke="#a7eade"/><path d="M387,336L414,407L500,393Z" fill="#a2e8db" stroke="#a2e8db"/><path d="M387,336L500,393L576,320Z" fill="#a3e7da" stroke="#a3e7da"/><path d="M576,320L500,393L674,422Z" fill="#94e2d0" stroke="#94e2d0"/><path d="M576,320L674,422L646,256Z" fill="#99e3d2" stroke="#99e3d2"/><path d="M646,256L674,422L800,315Z" fill="#92e0cc" stroke="#92e0cc"/><path d="M800,315L674,422L764,455Z" fill="#81dbc1" stroke="#81dbc1"/><path d="M800,315L764,455L868,411Z" fill="#7cd8bc" stroke="#7cd8bc"/><path d="M800,315L868,411L924,306Z" fill="#82d9be" stroke="#82d9be"/><path d="M924,306L868,411L1023,400Z" fill="#77d4b4" stroke="#77d4b4"/><path d="M924,306L1023,400L1010,284Z" fill="#7cd5b6" stroke="#7cd5b6"/><path d="M1010,284L1023,400L1184,277Z" fill="#78d2b0" stroke="#78d2b0"/><path d="M1184,277L1023,400L1146,453Z" fill="#6acda5" stroke="#6acda5"/><path d="M1184,277L1146,453L1216,305Z" fill="#6ccca4" stroke="#6ccca4"/><path d="M1216,305L1146,453L1285,404Z" fill="#60c99b" stroke="#60c99b"/><path d="M1216,305L1285,404L1353,285Z" fill="#68c89e" stroke="#68c89e"/><path d="M1353,285L1285,404L1367,424Z" fill="#5dc296" stroke="#5dc296"/><path d="M1353,285L1367,424L1499,330Z" fill="#5ebf94" stroke="#5ebf94"/><path d="M1499,330L1367,424L1545,440Z" fill="#50b88a" stroke="#50b88a"/><path d="M1499,330L1545,440L1618,280Z" fill="#56b58b" stroke="#56b58b"/><path d="M1618,280L1545,440L1623,457Z" fill="#4bb082" stroke="#4bb082"/><path d="M1618,280L1623,457L1719,324Z" fill="#50ae84" stroke="#50ae84"/><path d="M1719,324L1623,457L1763,456Z" fill="#44a879" stroke="#44a879"/><path d="M1719,324L1763,456L1873,332Z" fill="#4da57a" stroke="#4da57a"/><path d="M1873,332L1763,456L1842,461Z" fill="#44a071" stroke="#44a071"/><path d="M1873,332L1842,461L2021,389Z" fill="#489c6f" stroke="#489c6f"/><path d="M1873,332L2021,389L2005,314Z" fill="#529b72" stroke="#529b72"/><path d="M2005,314L2021,389L2087,292Z" fill="#559772" stroke="#559772"/><path d="M2087,292L2021,389L2089,400Z" fill="#4f946e" stroke="#4f946e"/><path d="M2087,292L2089,400L2234,341Z" fill="#529070" stroke="#529070"/><path d="M2234,341L2089,400L2232,401Z" fill="#4b8a6b" stroke="#4b8a6b"/><path d="M2234,341L2232,401L2253,783Z" fill="#347e58" stroke="#347e58"/><path d="M-40,442L-85,505L48,507Z" fill="#b0edda" stroke="#b0edda"/><path d="M-40,442L48,507L50,463Z" fill="#afeedc" stroke="#afeedc"/><path d="M50,463L48,507L142,499Z" fill="#a7ead6" stroke="#a7ead6"/><path d="M222,453L142,499L312,578Z" fill="#9ae5ce" stroke="#9ae5ce"/><path d="M222,453L312,578L378,552Z" fill="#91e1c8" stroke="#91e1c8"/><path d="M222,453L378,552L333,388Z" fill="#9be6d4" stroke="#9be6d4"/><path d="M333,388L378,552L414,407Z" fill="#99e6d4" stroke="#99e6d4"/><path d="M414,407L378,552L534,515Z" fill="#8ce0c9" stroke="#8ce0c9"/><path d="M414,407L534,515L500,393Z" fill="#91e2cf" stroke="#91e2cf"/><path d="M500,393L534,515L674,422Z" fill="#88dfc8" stroke="#88dfc8"/><path d="M674,422L534,515L626,522Z" fill="#7edabd" stroke="#7edabd"/><path d="M674,422L626,522L764,455Z" fill="#79d8bb" stroke="#79d8bb"/><path d="M764,455L626,522L801,549Z" fill="#6fd3b0" stroke="#6fd3b0"/><path d="M764,455L801,549L868,411Z" fill="#6dd3b1" stroke="#6dd3b1"/><path d="M868,411L801,549L873,555Z" fill="#65cfa8" stroke="#65cfa8"/><path d="M868,411L873,555L1023,400Z" fill="#68d0ab" stroke="#68d0ab"/><path d="M1023,400L873,555L1059,523Z" fill="#5ecb9e" stroke="#5ecb9e"/><path d="M1023,400L1059,523L1146,453Z" fill="#5cca9d" stroke="#5cca9d"/><path d="M1146,453L1059,523L1127,507Z" fill="#55c694" stroke="#55c694"/><path d="M1146,453L1127,507L1278,560Z" fill="#4dc28b" stroke="#4dc28b"/><path d="M1146,453L1278,560L1285,404Z" fill="#4fc28d" stroke="#4fc28d"/><path d="M1285,404L1278,560L1367,424Z" fill="#4cbe8a" stroke="#4cbe8a"/><path d="M1367,424L1278,560L1343,574Z" fill="#43b87f" stroke="#43b87f"/><path d="M1367,424L1343,574L1463,565Z" fill="#3fb47b" stroke="#3fb47b"/><path d="M1367,424L1463,565L1545,440Z" fill="#42b47e" stroke="#42b47e"/><path d="M1545,440L1463,565L1659,502Z" fill="#39ab74" stroke="#39ab74"/><path d="M1545,440L1659,502L1623,457Z" fill="#3cab77" stroke="#3cab77"/><path d="M1623,457L1659,502L1763,456Z" fill="#39a572" stroke="#39a572"/><path d="M1763,456L1659,502L1698,558Z" fill="#34a16a" stroke="#34a16a"/><path d="M1763,456L1698,558L1884,545Z" fill="#329b62" stroke="#329b62"/><path d="M1763,456L1884,545L1842,461Z" fill="#379b65" stroke="#379b65"/><path d="M1842,461L1884,545L1939,511Z" fill="#34965f" stroke="#34965f"/><path d="M1842,461L1939,511L2021,389Z" fill="#3c9765" stroke="#3c9765"/><path d="M2021,389L1939,511L2138,505Z" fill="#3a8f5f" stroke="#3a8f5f"/><path d="M2021,389L2138,505L2089,400Z" fill="#418f65" stroke="#418f65"/><path d="M2089,400L2138,505L2232,401Z" fill="#408a64" stroke="#408a64"/><path d="M2232,401L2138,505L2208,510Z" fill="#39845e" stroke="#39845e"/><path d="M2232,401L2208,510L2253,783Z" fill="#2b7a4d" stroke="#2b7a4d"/><path d="M-85,505L-102,1014L-44,859Z" fill="#89cea8" stroke="#89cea8"/><path d="M-85,505L-44,859L-31,695Z" fill="#94ddb6" stroke="#94ddb6"/><path d="M-85,505L-31,695L60,631Z" fill="#9ce3c3" stroke="#9ce3c3"/><path d="M-85,505L60,631L48,507Z" fill="#a4e8ce" stroke="#a4e8ce"/><path d="M48,507L60,631L142,499Z" fill="#9fe6cc" stroke="#9fe6cc"/><path d="M142,499L60,631L209,693Z" fill="#91dfbf" stroke="#91dfbf"/><path d="M142,499L209,693L312,578Z" fill="#8edec0" stroke="#8edec0"/><path d="M312,578L209,693L302,633Z" fill="#83d9b5" stroke="#83d9b5"/><path d="M312,578L302,633L378,552Z" fill="#86dbbc" stroke="#86dbbc"/><path d="M378,552L302,633L433,689Z" fill="#7ed7b4" stroke="#7ed7b4"/><path d="M378,552L433,689L507,654Z" fill="#77d4af" stroke="#77d4af"/><path d="M378,552L507,654L534,515Z" fill="#7dd8b8" stroke="#7dd8b8"/><path d="M534,515L507,654L626,522Z" fill="#77d6b3" stroke="#77d6b3"/><path d="M626,522L507,654L649,686Z" fill="#6bcfa6" stroke="#6bcfa6"/><path d="M626,522L649,686L801,549Z" fill="#67cea5" stroke="#67cea5"/><path d="M801,549L649,686L805,701Z" fill="#58c795" stroke="#58c795"/><path d="M801,549L805,701L907,618Z" fill="#54c693" stroke="#54c693"/><path d="M801,549L907,618L873,555Z" fill="#5ac99a" stroke="#5ac99a"/><path d="M873,555L907,618L1059,523Z" fill="#55c695" stroke="#55c695"/><path d="M1059,523L907,618L1026,698Z" fill="#4ac087" stroke="#4ac087"/><path d="M1059,523L1026,698L1174,681Z" fill="#41bb7c" stroke="#41bb7c"/><path d="M1059,523L1174,681L1127,507Z" fill="#48bf85" stroke="#48bf85"/><path d="M1127,507L1174,681L1278,560Z" fill="#41bb7c" stroke="#41bb7c"/><path d="M1278,560L1174,681L1288,637Z" fill="#37b570" stroke="#37b570"/><path d="M1278,560L1288,637L1343,574Z" fill="#39b473" stroke="#39b473"/><path d="M1343,574L1288,637L1370,668Z" fill="#32af6b" stroke="#32af6b"/><path d="M1343,574L1370,668L1458,621Z" fill="#30ac68" stroke="#30ac68"/><path d="M1343,574L1458,621L1463,565Z" fill="#33ad6d" stroke="#33ad6d"/><path d="M1463,565L1458,621L1595,680Z" fill="#29a461" stroke="#29a461"/><path d="M1463,565L1595,680L1659,502Z" fill="#2ca464" stroke="#2ca464"/><path d="M1659,502L1595,680L1698,558Z" fill="#299e5f" stroke="#299e5f"/><path d="M1698,558L1595,680L1719,702Z" fill="#1f9852" stroke="#1f9852"/><path d="M1698,558L1719,702L1886,627Z" fill="#21934f" stroke="#21934f"/><path d="M1698,558L1886,627L1884,545Z" fill="#299455" stroke="#299455"/><path d="M1884,545L1886,627L1939,511Z" fill="#2c9053" stroke="#2c9053"/><path d="M1939,511L1886,627L2005,647Z" fill="#278b4b" stroke="#278b4b"/><path d="M1939,511L2005,647L2138,505Z" fill="#2d884f" stroke="#2d884f"/><path d="M2138,505L2005,647L2109,651Z" fill="#268146" stroke="#268146"/><path d="M2138,505L2109,651L2208,510Z" fill="#2d804f" stroke="#2d804f"/><path d="M2208,510L2109,651L2182,675Z" fill="#247b44" stroke="#247b44"/><path d="M2208,510L2182,675L2253,783Z" fill="#1d733c" stroke="#1d733c"/><path d="M-31,695L-44,859L-21,818Z" fill="#86cea8" stroke="#86cea8"/><path d="M-31,695L-21,818L15,773Z" fill="#88d1ab" stroke="#88d1ab"/><path d="M-31,695L15,773L60,631Z" fill="#8dd9b2" stroke="#8dd9b2"/><path d="M60,631L15,773L209,693Z" fill="#87d7b0" stroke="#87d7b0"/><path d="M209,693L15,773L185,820Z" fill="#7dcda7" stroke="#7dcda7"/><path d="M209,693L185,820L260,783Z" fill="#77caa4" stroke="#77caa4"/><path d="M209,693L260,783L302,633Z" fill="#7bd2ab" stroke="#7bd2ab"/><path d="M302,633L260,783L415,741Z" fill="#74cea6" stroke="#74cea6"/><path d="M302,633L415,741L433,689Z" fill="#74d1a9" stroke="#74d1a9"/><path d="M433,689L415,741L575,775Z" fill="#66c79d" stroke="#66c79d"/><path d="M433,689L575,775L507,654Z" fill="#67ca9f" stroke="#67ca9f"/><path d="M507,654L575,775L649,686Z" fill="#60c799" stroke="#60c799"/><path d="M649,686L575,775L652,765Z" fill="#58c090" stroke="#58c090"/><path d="M649,686L652,765L767,774Z" fill="#52be8c" stroke="#52be8c"/><path d="M649,686L767,774L805,701Z" fill="#50be8b" stroke="#50be8b"/><path d="M805,701L767,774L857,751Z" fill="#47b982" stroke="#47b982"/><path d="M805,701L857,751L907,618Z" fill="#49be86" stroke="#49be86"/><path d="M907,618L857,751L1026,698Z" fill="#44bb7f" stroke="#44bb7f"/><path d="M1026,698L857,751L1045,763Z" fill="#3bb375" stroke="#3bb375"/><path d="M1026,698L1045,763L1174,681Z" fill="#36b270" stroke="#36b270"/><path d="M1174,681L1045,763L1110,819Z" fill="#30ab68" stroke="#30ab68"/><path d="M1174,681L1110,819L1268,768Z" fill="#2aa961" stroke="#2aa961"/><path d="M1174,681L1268,768L1288,637Z" fill="#2dae65" stroke="#2dae65"/><path d="M1288,637L1268,768L1370,668Z" fill="#2aab61" stroke="#2aab61"/><path d="M1370,668L1268,768L1372,805Z" fill="#22a158" stroke="#22a158"/><path d="M1370,668L1372,805L1542,814Z" fill="#1c9950" stroke="#1c9950"/><path d="M1370,668L1542,814L1458,621Z" fill="#21a057" stroke="#21a057"/><path d="M1458,621L1542,814L1595,680Z" fill="#1c9a51" stroke="#1c9a51"/><path d="M1595,680L1542,814L1639,749Z" fill="#149048" stroke="#149048"/><path d="M1595,680L1639,749L1719,702Z" fill="#169149" stroke="#169149"/><path d="M1719,702L1639,749L1753,789Z" fill="#128941" stroke="#128941"/><path d="M1719,702L1753,789L1886,627Z" fill="#178942" stroke="#178942"/><path d="M1886,627L1753,789L1895,808Z" fill="#138139" stroke="#138139"/><path d="M1886,627L1895,808L1997,746Z" fill="#147e36" stroke="#147e36"/><path d="M1886,627L1997,746L2005,647Z" fill="#1b823b" stroke="#1b823b"/><path d="M2005,647L1997,746L2109,651Z" fill="#1a7c38" stroke="#1a7c38"/><path d="M2109,651L1997,746L2064,797Z" fill="#147431" stroke="#147431"/><path d="M2109,651L2064,797L2182,675Z" fill="#177434" stroke="#177434"/><path d="M2182,675L2064,797L2253,783Z" fill="#116b2e" stroke="#116b2e"/><path d="M-21,818L-44,859L100,862Z" fill="#7cc49f" stroke="#7cc49f"/><path d="M-21,818L100,862L15,773Z" fill="#7ec8a2" stroke="#7ec8a2"/><path d="M15,773L100,862L185,820Z" fill="#79c6a0" stroke="#79c6a0"/><path d="M185,820L100,862L159,936Z" fill="#6fbd97" stroke="#6fbd97"/><path d="M185,820L159,936L311,904Z" fill="#69b993" stroke="#69b993"/><path d="M185,820L311,904L260,783Z" fill="#6cbf99" stroke="#6cbf99"/><path d="M260,783L311,904L430,855Z" fill="#65bc95" stroke="#65bc95"/><path d="M260,783L430,855L415,741Z" fill="#69c29b" stroke="#69c29b"/><path d="M415,741L430,855L575,775Z" fill="#60bf95" stroke="#60bf95"/><path d="M575,775L430,855L502,884Z" fill="#58b88d" stroke="#58b88d"/><path d="M575,775L502,884L664,870Z" fill="#50b486" stroke="#50b486"/><path d="M575,775L664,870L652,765Z" fill="#50b788" stroke="#50b788"/><path d="M652,765L664,870L767,774Z" fill="#4ab583" stroke="#4ab583"/><path d="M767,774L664,870L804,930Z" fill="#3fab78" stroke="#3fab78"/><path d="M767,774L804,930L879,912Z" fill="#37a670" stroke="#37a670"/><path d="M767,774L879,912L857,751Z" fill="#3cae77" stroke="#3cae77"/><path d="M857,751L879,912L977,881Z" fill="#33a66c" stroke="#33a66c"/><path d="M857,751L977,881L1045,763Z" fill="#35ab6e" stroke="#35ab6e"/><path d="M1045,763L977,881L1110,819Z" fill="#2ca464" stroke="#2ca464"/><path d="M1110,819L977,881L1130,883Z" fill="#269e5c" stroke="#269e5c"/><path d="M1110,819L1130,883L1268,768Z" fill="#23a059" stroke="#23a059"/><path d="M1268,768L1130,883L1234,931Z" fill="#1c9851" stroke="#1c9851"/><path d="M1268,768L1234,931L1336,940Z" fill="#16924a" stroke="#16924a"/><path d="M1268,768L1336,940L1372,805Z" fill="#19954c" stroke="#19954c"/><path d="M1372,805L1336,940L1486,890Z" fill="#108a42" stroke="#108a42"/><path d="M1372,805L1486,890L1542,814Z" fill="#118c43" stroke="#118c43"/><path d="M1542,814L1486,890L1603,934Z" fill="#088139" stroke="#088139"/><path d="M1542,814L1603,934L1639,749Z" fill="#0b843c" stroke="#0b843c"/><path d="M1639,749L1603,934L1753,789Z" fill="#098139" stroke="#098139"/><path d="M1753,789L1603,934L1769,917Z" fill="#03762f" stroke="#03762f"/><path d="M1753,789L1769,917L1895,808Z" fill="#08762e" stroke="#08762e"/><path d="M1895,808L1769,917L1896,913Z" fill="#036d26" stroke="#036d26"/><path d="M1895,808L1896,913L1951,896Z" fill="#046a23" stroke="#046a23"/><path d="M1895,808L1951,896L1997,746Z" fill="#0a7028" stroke="#0a7028"/><path d="M1997,746L1951,896L2064,797Z" fill="#0a6d26" stroke="#0a6d26"/><path d="M2064,797L1951,896L2105,884Z" fill="#056420" stroke="#056420"/><path d="M2064,797L2105,884L2253,783Z" fill="#096225" stroke="#096225"/><path d="M2253,783L2105,884L2184,926Z" fill="#045a1f" stroke="#045a1f"/><path d="M2253,783L2184,926L2233,1025Z" fill="#005019" stroke="#005019"/><path d="M-44,859L-102,1014L103,990Z" fill="#78b691" stroke="#78b691"/><path d="M-44,859L103,990L100,862Z" fill="#73bb96" stroke="#73bb96"/><path d="M100,862L103,990L159,936Z" fill="#6eb690" stroke="#6eb690"/><path d="M159,936L103,990L213,1015Z" fill="#6bae88" stroke="#6bae88"/><path d="M159,936L213,1015L311,904Z" fill="#66b08a" stroke="#66b08a"/><path d="M311,904L213,1015L257,1062Z" fill="#64a983" stroke="#64a983"/><path d="M311,904L257,1062L427,1057Z" fill="#5fa57f" stroke="#5fa57f"/><path d="M311,904L427,1057L430,855Z" fill="#5bad87" stroke="#5bad87"/><path d="M430,855L427,1057L502,884Z" fill="#55ac84" stroke="#55ac84"/><path d="M502,884L427,1057L509,1030Z" fill="#53a37a" stroke="#53a37a"/><path d="M502,884L509,1030L659,1023Z" fill="#4ca276" stroke="#4ca276"/><path d="M502,884L659,1023L664,870Z" fill="#47a779" stroke="#47a779"/><path d="M664,870L659,1023L747,1002Z" fill="#3f9e6e" stroke="#3f9e6e"/><path d="M664,870L747,1002L804,930Z" fill="#3ba16e" stroke="#3ba16e"/><path d="M804,930L747,1002L910,1048Z" fill="#339560" stroke="#339560"/><path d="M804,930L910,1048L879,912Z" fill="#309860" stroke="#309860"/><path d="M879,912L910,1048L977,881Z" fill="#2c985d" stroke="#2c985d"/><path d="M977,881L910,1048L1059,985Z" fill="#289255" stroke="#289255"/><path d="M977,881L1059,985L1130,883Z" fill="#239756" stroke="#239756"/><path d="M1130,883L1059,985L1183,976Z" fill="#1e904c" stroke="#1e904c"/><path d="M1130,883L1183,976L1234,931Z" fill="#1a904a" stroke="#1a904a"/><path d="M1234,931L1183,976L1219,978Z" fill="#178a43" stroke="#178a43"/><path d="M1234,931L1219,978L1336,940Z" fill="#148941" stroke="#148941"/><path d="M1336,940L1219,978L1396,1038Z" fill="#128139" stroke="#128139"/><path d="M1336,940L1396,1038L1486,890Z" fill="#0d7f37" stroke="#0d7f37"/><path d="M1486,890L1396,1038L1506,1038Z" fill="#0a772f" stroke="#0a772f"/><path d="M1486,890L1506,1038L1603,934Z" fill="#067730" stroke="#067730"/><path d="M1603,934L1506,1038L1604,1058Z" fill="#046d25" stroke="#046d25"/><path d="M1603,934L1604,1058L1738,1018Z" fill="#006922" stroke="#006922"/><path d="M1603,934L1738,1018L1769,917Z" fill="#006c25" stroke="#006c25"/><path d="M1769,917L1738,1018L1882,1061Z" fill="#006019" stroke="#006019"/><path d="M1769,917L1882,1061L1896,913Z" fill="#00611b" stroke="#00611b"/><path d="M1896,913L1882,1061L1998,1003Z" fill="#005812" stroke="#005812"/><path d="M1896,913L1998,1003L1951,896Z" fill="#005f18" stroke="#005f18"/><path d="M1951,896L1998,1003L2105,884Z" fill="#005b17" stroke="#005b17"/><path d="M2105,884L1998,1003L2144,1054Z" fill="#00500f" stroke="#00500f"/><path d="M2105,884L2144,1054L2184,926Z" fill="#005013" stroke="#005013"/><path d="M2184,926L2144,1054L2233,1025Z" fill="#00460d" stroke="#00460d"/><path d="M-102,1014L-90,1136L103,990Z" fill="#79aa85" stroke="#79aa85"/><path d="M103,990L-90,1136L86,1184Z" fill="#74a07d" stroke="#74a07d"/><path d="M103,990L86,1184L176,1177Z" fill="#6e9c7a" stroke="#6e9c7a"/><path d="M103,990L176,1177L213,1015Z" fill="#6ba27d" stroke="#6ba27d"/><path d="M213,1015L176,1177L257,1062Z" fill="#679e78" stroke="#679e78"/><path d="M257,1062L176,1177L340,1166Z" fill="#649576" stroke="#649576"/><path d="M257,1062L340,1166L427,1057Z" fill="#5e9973" stroke="#5e9973"/><path d="M427,1057L340,1166L448,1182Z" fill="#5a9171" stroke="#5a9171"/><path d="M427,1057L448,1182L509,1030Z" fill="#54966e" stroke="#54966e"/><path d="M509,1030L448,1182L557,1165Z" fill="#508f6a" stroke="#508f6a"/><path d="M509,1030L557,1165L629,1097Z" fill="#4b9165" stroke="#4b9165"/><path d="M509,1030L629,1097L659,1023Z" fill="#489669" stroke="#489669"/><path d="M659,1023L629,1097L809,1105Z" fill="#3e8e5e" stroke="#3e8e5e"/><path d="M659,1023L809,1105L747,1002Z" fill="#3b915f" stroke="#3b915f"/><path d="M747,1002L809,1105L910,1048Z" fill="#338d58" stroke="#338d58"/><path d="M910,1048L809,1105L925,1159Z" fill="#2f834d" stroke="#2f834d"/><path d="M910,1048L925,1159L983,1158Z" fill="#2b7f48" stroke="#2b7f48"/><path d="M910,1048L983,1158L1059,985Z" fill="#288548" stroke="#288548"/><path d="M1059,985L983,1158L1150,1180Z" fill="#227c3e" stroke="#227c3e"/><path d="M1059,985L1150,1180L1183,976Z" fill="#1d823e" stroke="#1d823e"/><path d="M1183,976L1150,1180L1219,978Z" fill="#19803a" stroke="#19803a"/><path d="M1219,978L1150,1180L1278,1178Z" fill="#177531" stroke="#177531"/><path d="M1219,978L1278,1178L1396,1038Z" fill="#13772f" stroke="#13772f"/><path d="M1396,1038L1278,1178L1423,1179Z" fill="#0f6927" stroke="#0f6927"/><path d="M1396,1038L1423,1179L1479,1138Z" fill="#0b6723" stroke="#0b6723"/><path d="M1396,1038L1479,1138L1506,1038Z" fill="#0a6b24" stroke="#0a6b24"/><path d="M1506,1038L1479,1138L1604,1058Z" fill="#06661f" stroke="#06661f"/><path d="M1604,1058L1479,1138L1616,1148Z" fill="#045e1b" stroke="#045e1b"/><path d="M1604,1058L1616,1148L1760,1108Z" fill="#005a15" stroke="#005a15"/><path d="M1604,1058L1760,1108L1738,1018Z" fill="#005d17" stroke="#005d17"/><path d="M1738,1018L1760,1108L1882,1061Z" fill="#005711" stroke="#005711"/><path d="M1882,1061L1760,1108L1854,1131Z" fill="#004f0a" stroke="#004f0a"/><path d="M1882,1061L1854,1131L1948,1121Z" fill="#004b06" stroke="#004b06"/><path d="M1882,1061L1948,1121L1998,1003Z" fill="#004e07" stroke="#004e07"/><path d="M1998,1003L1948,1121L2144,1054Z" fill="#004805" stroke="#004805"/><path d="M2144,1054L1948,1121L2125,1164Z" fill="#003e00" stroke="#003e00"/><path d="M2144,1054L2125,1164L2213,1158Z" fill="#003600" stroke="#003600"/><path d="M2144,1054L2213,1158L2233,1025Z" fill="#003b02" stroke="#003b02"/><path d="M2233,1025L2213,1158L2214,1251Z" fill="#003000" stroke="#003000"/><path d="M-90,1136L-23,1257L86,1184Z" fill="#77947e" stroke="#77947e"/><path d="M86,1184L-23,1257L76,1240Z" fill="#738f7c" stroke="#738f7c"/><path d="M86,1184L76,1240L176,1177Z" fill="#6f907a" stroke="#6f907a"/><path d="M176,1177L76,1240L215,1270Z" fill="#6c8b79" stroke="#6c8b79"/><path d="M176,1177L215,1270L340,1166Z" fill="#658c76" stroke="#658c76"/><path d="M340,1166L215,1270L304,1299Z" fill="#628675" stroke="#628675"/><path d="M340,1166L304,1299L438,1265Z" fill="#5d8473" stroke="#5d8473"/><path d="M340,1166L438,1265L448,1182Z" fill="#598871" stroke="#598871"/><path d="M448,1182L438,1265L539,1297Z" fill="#537f6c" stroke="#537f6c"/><path d="M448,1182L539,1297L557,1165Z" fill="#508269" stroke="#508269"/><path d="M557,1165L539,1297L705,1242Z" fill="#487c63" stroke="#487c63"/><path d="M557,1165L705,1242L629,1097Z" fill="#458461" stroke="#458461"/><path d="M629,1097L705,1242L809,1105Z" fill="#3d845a" stroke="#3d845a"/><path d="M809,1105L705,1242L892,1226Z" fill="#357a54" stroke="#357a54"/><path d="M809,1105L892,1226L925,1159Z" fill="#2f7c4e" stroke="#2f7c4e"/><path d="M925,1159L892,1226L983,1158Z" fill="#2b7749" stroke="#2b7749"/><path d="M983,1158L892,1226L1017,1280Z" fill="#297046" stroke="#297046"/><path d="M983,1158L1017,1280L1116,1270Z" fill="#246b40" stroke="#246b40"/><path d="M983,1158L1116,1270L1150,1180Z" fill="#216e3c" stroke="#216e3c"/><path d="M1150,1180L1116,1270L1218,1291Z" fill="#1b6435" stroke="#1b6435"/><path d="M1150,1180L1218,1291L1278,1178Z" fill="#176731" stroke="#176731"/><path d="M1278,1178L1218,1291L1391,1223Z" fill="#13602c" stroke="#13602c"/><path d="M1278,1178L1391,1223L1423,1179Z" fill="#0f6127" stroke="#0f6127"/><path d="M1423,1179L1391,1223L1541,1256Z" fill="#0a5722" stroke="#0a5722"/><path d="M1423,1179L1541,1256L1479,1138Z" fill="#095920" stroke="#095920"/><path d="M1479,1138L1541,1256L1616,1148Z" fill="#05571c" stroke="#05571c"/><path d="M1616,1148L1541,1256L1613,1222Z" fill="#035019" stroke="#035019"/><path d="M1616,1148L1613,1222L1754,1265Z" fill="#004b15" stroke="#004b15"/><path d="M1616,1148L1754,1265L1760,1108Z" fill="#004d12" stroke="#004d12"/><path d="M1760,1108L1754,1265L1854,1131Z" fill="#00480d" stroke="#00480d"/><path d="M1854,1131L1754,1265L1864,1269Z" fill="#003f0b" stroke="#003f0b"/><path d="M1854,1131L1864,1269L1948,1121Z" fill="#004207" stroke="#004207"/><path d="M1948,1121L1864,1269L1964,1271Z" fill="#003904" stroke="#003904"/><path d="M1948,1121L1964,1271L2125,1164Z" fill="#003800" stroke="#003800"/><path d="M2125,1164L1964,1271L2069,1287Z" fill="#002d00" stroke="#002d00"/><path d="M2125,1164L2069,1287L2214,1251Z" fill="#002900" stroke="#002900"/><path d="M2125,1164L2214,1251L2213,1158Z" fill="#002c00" stroke="#002c00"/><path d="M-23,1257L304,1299L215,1270Z" fill="#6b8479" stroke="#6b8479"/><path d="M-23,1257L215,1270L76,1240Z" fill="#70897b" stroke="#70897b"/><path d="M304,1299L753,1301L539,1297Z" fill="#4e7668" stroke="#4e7668"/><path d="M304,1299L539,1297L438,1265Z" fill="#587c70" stroke="#587c70"/><path d="M539,1297L753,1301L705,1242Z" fill="#41735e" stroke="#41735e"/><path d="M705,1242L753,1301L892,1226Z" fill="#377255" stroke="#377255"/><path d="M753,1301L2069,1287L1218,1291Z" fill="#105428" stroke="#105428"/><path d="M753,1301L1218,1291L1017,1280Z" fill="#276543" stroke="#276543"/><path d="M753,1301L1017,1280L892,1226Z" fill="#2e6c4d" stroke="#2e6c4d"/><path d="M1017,1280L1218,1291L1116,1270Z" fill="#1e6239" stroke="#1e6239"/><path d="M1218,1291L2069,1287L1754,1265Z" fill="#004014" stroke="#004014"/><path d="M1218,1291L1754,1265L1541,1256Z" fill="#074d1f" stroke="#074d1f"/><path d="M1218,1291L1541,1256L1391,1223Z" fill="#0e5626" stroke="#0e5626"/><path d="M1541,1256L1754,1265L1613,1222Z" fill="#004716" stroke="#004716"/><path d="M1754,1265L2069,1287L1864,1269Z" fill="#003306" stroke="#003306"/><path d="M1864,1269L2069,1287L1964,1271Z" fill="#002e02" stroke="#002e02"/></g></svg>