<svg width="2048" height="1126" xmlns="http://www.w3.org/2000/svg"><g transform="rotate(180 1024 563)"><path d="M-34,-67L-75,192L-21,103Z" fill="#fcfcfc" stroke="#fcfcfc"/><path d="M-34,-67L-21,103L37,59Z" fill="#fbfbfb" stroke="#fbfbfb"/><path d="M-34,-67L37,59L57,-102Z" fill="#fafafa" stroke="#fafafa"/><path d="M57,-102L37,59L167,53Z" fill="#f8f8f8" stroke="#f8f8f8"/><path d="M57,-102L167,53L165,-88Z" fill="#f6f6f6" stroke="#f6f6f6"/><path d="M57,-102L165,-88L398,-78Z" fill="#f3f3f3" stroke="#f3f3f3"/><path d="M57,-102L398,-78L653,-97Z" fill="#ececec" stroke="#ececec"/><path d="M57,-102L653,-97L1839,-98Z" fill="#d4d4d4" stroke="#d4d4d4"/><path d="M165,-88L167,53L306,-21Z" fill="#f2f2f2" stroke="#f2f2f2"/><path d="M165,-88L306,-21L398,-78Z" fill="#efefef" stroke="#efefef"/><path d="M306,-21L167,53L310,50Z" fill="#f0f0f0" stroke="#f0f0f0"/><path d="M306,-21L310,50L429,40Z" fill="#ececec" stroke="#ececec"/><path d="M306,-21L429,40L398,-78Z" fill="#ebebeb" stroke="#ebebeb"/><path d="M398,-78L429,40L584,-62Z" fill="#e7e7e7" stroke="#e7e7e7"/><path d="M398,-78L584,-62L653,-97Z" fill="#e4e4e4" stroke="#e4e4e4"/><path d="M584,-62L429,40L515,79Z" fill="#e5e5e5" stroke="#e5e5e5"/><path d="M584,-62L515,79L634,86Z" fill="#e2e2e2" stroke="#e2e2e2"/><path d="M584,-62L634,86L653,-97Z" fill="#e0e0e0" stroke="#e0e0e0"/><path d="M653,-97L634,86L747,-89Z" fill="#dddddd" stroke="#dddddd"/><path d="M653,-97L747,-89L918,-90Z" fill="#d8d8d8" stroke="#d8d8d8"/><path d="M653,-97L918,-90L1139,-92Z" fill="#d1d1d1" stroke="#d1d1d1"/><path d="M653,-97L1139,-92L1287,-94Z" fill="#cbcbcb" stroke="#cbcbcb"/><path d="M653,-97L1287,-94L1839,-98Z" fill="#bbbbbb" stroke="#bbbbbb"/><path d="M747,-89L634,86L776,73Z" fill="#dadada" stroke="#dadada"/><path d="M747,-89L776,73L918,-90Z" fill="#d6d6d6" stroke="#d6d6d6"/><path d="M918,-90L776,73L911,97Z" fill="#d2d2d2" stroke="#d2d2d2"/><path d="M918,-90L911,97L1031,19Z" fill="#cecece" stroke="#cecece"/><path d="M918,-90L1031,19L1051,-18Z" fill="#cccccc" stroke="#cccccc"/><path d="M918,-90L1051,-18L1139,-92Z" fill="#cacaca" stroke="#cacaca"/><path d="M1051,-18L1031,19L1108,26Z" fill="#c8c8c8" stroke="#c8c8c8"/><path d="M1051,-18L1108,26L1139,-92Z" fill="#c6c6c6" stroke="#c6c6c6"/><path d="M1139,-92L1108,26L1239,73Z" fill="#c2c2c2" stroke="#c2c2c2"/><path d="M1139,-92L1239,73L1287,-94Z" fill="#bebebe" stroke="#bebebe"/><path d="M1287,-94L1239,73L1391,-69Z" fill="#b8b8b8" stroke="#b8b8b8"/><path d="M1287,-94L1391,-69L1604,-64Z" fill="#b0b0b0" stroke="#b0b0b0"/><path d="M1287,-94L1604,-64L1839,-98Z" fill="#a6a6a6" stroke="#a6a6a6"/><path d="M1391,-69L1239,73L1394,100Z" fill="#b5b5b5" stroke="#b5b5b5"/><path d="M1391,-69L1394,100L1466,69Z" fill="#b0b0b0" stroke="#b0b0b0"/><path d="M1391,-69L1466,69L1542,-24Z" fill="#adadad" stroke="#adadad"/><path d="M1391,-69L1542,-24L1604,-64Z" fill="#aaaaaa" stroke="#aaaaaa"/><path d="M1542,-24L1466,69L1578,34Z" fill="#a9a9a9" stroke="#a9a9a9"/><path d="M1542,-24L1578,34L1604,-64Z" fill="#a6a6a6" stroke="#a6a6a6"/><path d="M1604,-64L1578,34L1734,-50Z" fill="#a2a2a2" stroke="#a2a2a2"/><path d="M1604,-64L1734,-50L1839,-98Z" fill="#9c9c9c" stroke="#9c9c9c"/><path d="M1734,-50L1578,34L1776,38Z" fill="#9e9e9e" stroke="#9e9e9e"/><path d="M1734,-50L1776,38L1839,-98Z" fill="#989898" stroke="#989898"/><path d="M1839,-98L1776,38L1898,99Z" fill="#949494" stroke="#949494"/><path d="M1839,-98L1898,99L1983,-96Z" fill="#909090" stroke="#909090"/><path d="M1983,-96L1898,99L1961,103Z" fill="#8c8c8c" stroke="#8c8c8c"/><path d="M1983,-96L1961,103L2070,-53Z" fill="#8a8a8a" stroke="#8a8a8a"/><path d="M1983,-96L2070,-53L2178,-25Z" fill="#858585" stroke="#858585"/><path d="M2070,-53L1961,103L2117,16Z" fill="#868686" stroke="#868686"/><path d="M2070,-53L2117,16L2178,-25Z" fill="#828282" stroke="#828282"/><path d="M2178,-25L2117,16L2228,89Z" fill="#7f7f7f" stroke="#7f7f7f"/><path d="M-21,103L-75,192L25,151Z" fill="#f9f9f9" stroke="#f9f9f9"/><path d="M-21,103L25,151L37,59Z" fill="#f9f9f9" stroke="#f9f9f9"/><path d="M37,59L25,151L146,172Z" fill="#f6f6f6" stroke="#f6f6f6"/><path d="M37,59L146,172L167,53Z" fill="#f4f4f4" stroke="#f4f4f4"/><path d="M167,53L146,172L310,50Z" fill="#f1f1f1" stroke="#f1f1f1"/><path d="M310,50L146,172L308,217Z" fill="#eeeeee" stroke="#eeeeee"/><path d="M310,50L308,217L418,191Z" fill="#e9e9e9" stroke="#e9e9e9"/><path d="M310,50L418,191L429,40Z" fill="#e9e9e9" stroke="#e9e9e9"/><path d="M429,40L418,191L515,79Z" fill="#e6e6e6" stroke="#e6e6e6"/><path d="M515,79L418,191L506,198Z" fill="#e4e4e4" stroke="#e4e4e4"/><path d="M515,79L506,198L634,86Z" fill="#e1e1e1" stroke="#e1e1e1"/><path d="M634,86L506,198L677,135Z" fill="#dedede" stroke="#dedede"/><path d="M634,86L677,135L776,73Z" fill="#dadada" stroke="#dadada"/><path d="M776,73L677,135L788,148Z" fill="#d7d7d7" stroke="#d7d7d7"/><path d="M776,73L788,148L911,97Z" fill="#d3d3d3" stroke="#d3d3d3"/><path d="M911,97L788,148L925,155Z" fill="#d0d0d0" stroke="#d0d0d0"/><path d="M911,97L925,155L1031,19Z" fill="#cccccc" stroke="#cccccc"/><path d="M1031,19L925,155L983,221Z" fill="#cacaca" stroke="#cacaca"/><path d="M1031,19L983,221L1108,26Z" fill="#c8c8c8" stroke="#c8c8c8"/><path d="M1108,26L983,221L1173,185Z" fill="#c4c4c4" stroke="#c4c4c4"/><path d="M1108,26L1173,185L1239,73Z" fill="#bfbfbf" stroke="#bfbfbf"/><path d="M1239,73L1173,185L1260,161Z" fill="#bababa" stroke="#bababa"/><path d="M1239,73L1260,161L1394,100Z" fill="#b6b6b6" stroke="#b6b6b6"/><path d="M1394,100L1260,161L1378,165Z" fill="#b3b3b3" stroke="#b3b3b3"/><path d="M1394,100L1378,165L1525,180Z" fill="#adadad" stroke="#adadad"/><path d="M1394,100L1525,180L1466,69Z" fill="#ababab" stroke="#ababab"/><path d="M1466,69L1525,180L1578,34Z" fill="#a8a8a8" stroke="#a8a8a8"/><path d="M1578,34L1525,180L1649,160Z" fill="#a3a3a3" stroke="#a3a3a3"/><path d="M1578,34L1649,160L1776,38Z" fill="#9f9f9f" stroke="#9f9f9f"/><path d="M1776,38L1649,160L1751,151Z" fill="#9a9a9a" stroke="#9a9a9a"/><path d="M1776,38L1751,151L1898,99Z" fill="#959595" stroke="#959595"/><path d="M1898,99L1751,151L1897,171Z" fill="#919191" stroke="#919191"/><path d="M1898,99L1897,171L1961,103Z" fill="#8d8d8d" stroke="#8d8d8d"/><path d="M1961,103L1897,171L1982,180Z" fill="#8a8a8a" stroke="#8a8a8a"/><path d="M1961,103L1982,180L2077,152Z" fill="#868686" stroke="#868686"/><path d="M1961,103L2077,152L2117,16Z" fill="#858585" stroke="#858585"/><path d="M2117,16L2077,152L2184,151Z" fill="#7f7f7f" stroke="#7f7f7f"/><path d="M2117,16L2184,151L2228,89Z" fill="#7e7e7e" stroke="#7e7e7e"/><path d="M2228,89L2184,151L2214,324Z" fill="#7c7c7c" stroke="#7c7c7c"/><path d="M2228,89L2214,324L2244,553Z" fill="#757575" stroke="#757575"/><path d="M2228,89L2244,553L2254,804Z" fill="#636363" stroke="#636363"/><path d="M-75,192L-92,657L-79,312Z" fill="#ededed" stroke="#ededed"/><path d="M-75,192L-79,312L18,305Z" fill="#f8f8f8" stroke="#f8f8f8"/><path d="M-75,192L18,305L25,151Z" fill="#f7f7f7" stroke="#f7f7f7"/><path d="M25,151L18,305L146,172Z" fill="#f4f4f4" stroke="#f4f4f4"/><path d="M146,172L18,305L155,334Z" fill="#f1f1f1" stroke="#f1f1f1"/><path d="M146,172L155,334L308,217Z" fill="#eeeeee" stroke="#eeeeee"/><path d="M308,217L155,334L341,299Z" fill="#eaeaea" stroke="#eaeaea"/><path d="M308,217L341,299L418,191Z" fill="#e7e7e7" stroke="#e7e7e7"/><path d="M418,191L341,299L429,326Z" fill="#e5e5e5" stroke="#e5e5e5"/><path d="M418,191L429,326L506,198Z" fill="#e3e3e3" stroke="#e3e3e3"/><path d="M506,198L429,326L543,327Z" fill="#e1e1e1" stroke="#e1e1e1"/><path d="M506,198L543,327L696,266Z" fill="#dddddd" stroke="#dddddd"/><path d="M506,198L696,266L677,135Z" fill="#dbdbdb" stroke="#dbdbdb"/><path d="M677,135L696,266L788,148Z" fill="#d7d7d7" stroke="#d7d7d7"/><path d="M788,148L696,266L808,315Z" fill="#d3d3d3" stroke="#d3d3d3"/><path d="M788,148L808,315L926,270Z" fill="#cfcfcf" stroke="#cfcfcf"/><path d="M788,148L926,270L925,155Z" fill="#cecece" stroke="#cecece"/><path d="M925,155L926,270L983,221Z" fill="#cacaca" stroke="#cacaca"/><path d="M983,221L926,270L1023,313Z" fill="#c8c8c8" stroke="#c8c8c8"/><path d="M983,221L1023,313L1120,275Z" fill="#c4c4c4" stroke="#c4c4c4"/><path d="M983,221L1120,275L1173,185Z" fill="#c1c1c1" stroke="#c1c1c1"/><path d="M1173,185L1120,275L1288,337Z" fill="#bababa" stroke="#bababa"/><path d="M1173,185L1288,337L1260,161Z" fill="#b7b7b7" stroke="#b7b7b7"/><path d="M1260,161L1288,337L1359,284Z" fill="#b3b3b3" stroke="#b3b3b3"/><path d="M1260,161L1359,284L1378,165Z" fill="#b2b2b2" stroke="#b2b2b2"/><path d="M1378,165L1359,284L1487,271Z" fill="#acacac" stroke="#acacac"/><path d="M1378,165L1487,271L1525,180Z" fill="#a9a9a9" stroke="#a9a9a9"/><path d="M1525,180L1487,271L1654,261Z" fill="#a2a2a2" stroke="#a2a2a2"/><path d="M1525,180L1654,261L1649,160Z" fill="#9f9f9f" stroke="#9f9f9f"/><path d="M1649,160L1654,261L1751,151Z" fill="#9b9b9b" stroke="#9b9b9b"/><path d="M1751,151L1654,261L1784,298Z" fill="#979797" stroke="#979797"/><path d="M1751,151L1784,298L1897,171Z" fill="#929292" stroke="#929292"/><path d="M1897,171L1784,298L1827,327Z" fill="#8f8f8f" stroke="#8f8f8f"/><path d="M1897,171L1827,327L1981,293Z" fill="#8b8b8b" stroke="#8b8b8b"/><path d="M1897,171L1981,293L1982,180Z" fill="#898989" stroke="#898989"/><path d="M1982,180L1981,293L2090,294Z" fill="#838383" stroke="#838383"/><path d="M1982,180L2090,294L2077,152Z" fill="#828282" stroke="#828282"/><path d="M2077,152L2090,294L2184,151Z" fill="#7e7e7e" stroke="#7e7e7e"/><path d="M2184,151L2090,294L2214,324Z" fill="#7a7a7a" stroke="#7a7a7a"/><path d="M-79,312L-92,657L-74,384Z" fill="#e5e5e5" stroke="#e5e5e5"/><path d="M-79,312L-74,384L18,305Z" fill="#f1f1f1" stroke="#f1f1f1"/><path d="M18,305L-74,384L90,390Z" fill="#ececec" stroke="#ececec"/><path d="M18,305L90,390L155,334Z" fill="#ebebeb" stroke="#ebebeb"/><path d="M155,334L90,390L138,460Z" fill="#e3e3e3" stroke="#e3e3e3"/><path d="M155,334L138,460L332,416Z" fill="#dfdfdf" stroke="#dfdfdf"/><path d="M155,334L332,416L341,299Z" fill="#e2e2e2" stroke="#e2e2e2"/><path d="M341,299L332,416L429,326Z" fill="#dedede" stroke="#dedede"/><path d="M429,326L332,416L378,465Z" fill="#d8d8d8" stroke="#d8d8d8"/><path d="M429,326L378,465L522,510Z" fill="#d1d1d1" stroke="#d1d1d1"/><path d="M429,326L522,510L581,399Z" fill="#d1d1d1" stroke="#d1d1d1"/><path d="M429,326L581,399L543,327Z" fill="#d7d7d7" stroke="#d7d7d7"/><path d="M543,327L581,399L696,266Z" fill="#d5d5d5" stroke="#d5d5d5"/><path d="M696,266L581,399L635,434Z" fill="#d0d0d0" stroke="#d0d0d0"/><path d="M696,266L635,434L809,415Z" fill="#cbcbcb" stroke="#cbcbcb"/><path d="M696,266L809,415L808,315Z" fill="#cdcdcd" stroke="#cdcdcd"/><path d="M808,315L809,415L937,427Z" fill="#c2c2c2" stroke="#c2c2c2"/><path d="M808,315L937,427L926,270Z" fill="#c5c5c5" stroke="#c5c5c5"/><path d="M926,270L937,427L1003,376Z" fill="#c0c0c0" stroke="#c0c0c0"/><path d="M926,270L1003,376L1023,313Z" fill="#c2c2c2" stroke="#c2c2c2"/><path d="M1023,313L1003,376L1165,421Z" fill="#b8b8b8" stroke="#b8b8b8"/><path d="M1023,313L1165,421L1120,275Z" fill="#bababa" stroke="#bababa"/><path d="M1120,275L1165,421L1222,400Z" fill="#b2b2b2" stroke="#b2b2b2"/><path d="M1120,275L1222,400L1288,337Z" fill="#b2b2b2" stroke="#b2b2b2"/><path d="M1288,337L1222,400L1346,450Z" fill="#a6a6a6" stroke="#a6a6a6"/><path d="M1288,337L1346,450L1359,284Z" fill="#a8a8a8" stroke="#a8a8a8"/><path d="M1359,284L1346,450L1487,271Z" fill="#a6a6a6" stroke="#a6a6a6"/><path d="M1487,271L1346,450L1540,442Z" fill="#9c9c9c" stroke="#9c9c9c"/><path d="M1487,271L1540,442L1612,397Z" fill="#989898" stroke="#989898"/><path d="M1487,271L1612,397L1654,261Z" fill="#9d9d9d" stroke="#9d9d9d"/><path d="M1654,261L1612,397L1754,417Z" fill="#919191" stroke="#919191"/><path d="M1654,261L1754,417L1784,298Z" fill="#919191" stroke="#919191"/><path d="M1784,298L1754,417L1827,327Z" fill="#8a8a8a" stroke="#8a8a8a"/><path d="M1827,327L1754,417L1899,431Z" fill="#838383" stroke="#838383"/><path d="M1827,327L1899,431L1951,407Z" fill="#7f7f7f" stroke="#7f7f7f"/><path d="M1827,327L1951,407L1981,293Z" fill="#828282" stroke="#828282"/><path d="M1981,293L1951,407L2090,294Z" fill="#7e7e7e" stroke="#7e7e7e"/><path d="M2090,294L1951,407L2136,393Z" fill="#777777" stroke="#777777"/><path d="M2090,294L2136,393L2214,324Z" fill="#747474" stroke="#747474"/><path d="M2214,324L2136,393L2186,415Z" fill="#6f6f6f" stroke="#6f6f6f"/><path d="M2214,324L2186,415L2244,553Z" fill="#696969" stroke="#696969"/><path d="M-74,384L-92,657L-47,557Z" fill="#dcdcdc" stroke="#dcdcdc"/><path d="M-74,384L-47,557L20,511Z" fill="#e0e0e0" stroke="#e0e0e0"/><path d="M-74,384L20,511L90,390Z" fill="#e4e4e4" stroke="#e4e4e4"/><path d="M90,390L20,511L138,460Z" fill="#dedede" stroke="#dedede"/><path d="M138,460L20,511L205,563Z" fill="#d6d6d6" stroke="#d6d6d6"/><path d="M138,460L205,563L311,520Z" fill="#d2d2d2" stroke="#d2d2d2"/><path d="M138,460L311,520L332,416Z" fill="#d5d5d5" stroke="#d5d5d5"/><path d="M332,416L311,520L378,465Z" fill="#d2d2d2" stroke="#d2d2d2"/><path d="M378,465L311,520L390,531Z" fill="#cdcdcd" stroke="#cdcdcd"/><path d="M378,465L390,531L522,510Z" fill="#cacaca" stroke="#cacaca"/><path d="M581,399L522,510L635,434Z" fill="#c9c9c9" stroke="#c9c9c9"/><path d="M635,434L522,510L696,578Z" fill="#c1c1c1" stroke="#c1c1c1"/><path d="M635,434L696,578L809,415Z" fill="#bfbfbf" stroke="#bfbfbf"/><path d="M809,415L696,578L792,582Z" fill="#b7b7b7" stroke="#b7b7b7"/><path d="M809,415L792,582L922,524Z" fill="#b5b5b5" stroke="#b5b5b5"/><path d="M809,415L922,524L937,427Z" fill="#b8b8b8" stroke="#b8b8b8"/><path d="M937,427L922,524L1037,524Z" fill="#b0b0b0" stroke="#b0b0b0"/><path d="M937,427L1037,524L1003,376Z" fill="#b4b4b4" stroke="#b4b4b4"/><path d="M1003,376L1037,524L1165,421Z" fill="#b0b0b0" stroke="#b0b0b0"/><path d="M1165,421L1037,524L1133,542Z" fill="#a6a6a6" stroke="#a6a6a6"/><path d="M1165,421L1133,542L1272,542Z" fill="#a1a1a1" stroke="#a1a1a1"/><path d="M1165,421L1272,542L1222,400Z" fill="#a4a4a4" stroke="#a4a4a4"/><path d="M1222,400L1272,542L1346,450Z" fill="#9f9f9f" stroke="#9f9f9f"/><path d="M1346,450L1272,542L1408,511Z" fill="#979797" stroke="#979797"/><path d="M1346,450L1408,511L1540,442Z" fill="#959595" stroke="#959595"/><path d="M1540,442L1408,511L1528,521Z" fill="#8e8e8e" stroke="#8e8e8e"/><path d="M1540,442L1528,521L1647,548Z" fill="#878787" stroke="#878787"/><path d="M1540,442L1647,548L1612,397Z" fill="#8a8a8a" stroke="#8a8a8a"/><path d="M1612,397L1647,548L1754,417Z" fill="#868686" stroke="#868686"/><path d="M1754,417L1647,548L1776,575Z" fill="#7c7c7c" stroke="#7c7c7c"/><path d="M1754,417L1776,575L1832,571Z" fill="#777777" stroke="#777777"/><path d="M1754,417L1832,571L1899,431Z" fill="#797979" stroke="#797979"/><path d="M1899,431L1832,571L1944,573Z" fill="#707070" stroke="#707070"/><path d="M1899,431L1944,573L1951,407Z" fill="#737373" stroke="#737373"/><path d="M1951,407L1944,573L2072,515Z" fill="#6c6c6c" stroke="#6c6c6c"/><path d="M1951,407L2072,515L2136,393Z" fill="#6e6e6e" stroke="#6e6e6e"/><path d="M2136,393L2072,515L2186,415Z" fill="#696969" stroke="#696969"/><path d="M2186,415L2072,515L2244,553Z" fill="#626262" stroke="#626262"/><path d="M-47,557L-92,657L79,680Z" fill="#cccccc" stroke="#cccccc"/><path d="M-47,557L79,680L20,511Z" fill="#d2d2d2" stroke="#d2d2d2"/><path d="M20,511L79,680L205,563Z" fill="#cecece" stroke="#cecece"/><path d="M205,563L79,680L145,696Z" fill="#c3c3c3" stroke="#c3c3c3"/><path d="M205,563L145,696L286,620Z" fill="#c3c3c3" stroke="#c3c3c3"/><path d="M205,563L286,620L311,520Z" fill="#cacaca" stroke="#cacaca"/><path d="M311,520L286,620L390,531Z" fill="#c8c8c8" stroke="#c8c8c8"/><path d="M390,531L286,620L408,694Z" fill="#bfbfbf" stroke="#bfbfbf"/><path d="M390,531L408,694L570,622Z" fill="#bbbbbb" stroke="#bbbbbb"/><path d="M390,531L570,622L522,510Z" fill="#c2c2c2" stroke="#c2c2c2"/><path d="M522,510L570,622L696,578Z" fill="#bababa" stroke="#bababa"/><path d="M696,578L570,622L677,642Z" fill="#b1b1b1" stroke="#b1b1b1"/><path d="M696,578L677,642L792,582Z" fill="#afafaf" stroke="#afafaf"/><path d="M792,582L677,642L785,700Z" fill="#a8a8a8" stroke="#a8a8a8"/><path d="M792,582L785,700L883,705Z" fill="#a1a1a1" stroke="#a1a1a1"/><path d="M792,582L883,705L922,524Z" fill="#a7a7a7" stroke="#a7a7a7"/><path d="M922,524L883,705L983,650Z" fill="#a1a1a1" stroke="#a1a1a1"/><path d="M922,524L983,650L1037,524Z" fill="#a7a7a7" stroke="#a7a7a7"/><path d="M1037,524L983,650L1133,542Z" fill="#a1a1a1" stroke="#a1a1a1"/><path d="M1133,542L983,650L1176,703Z" fill="#969696" stroke="#969696"/><path d="M1133,542L1176,703L1272,542Z" fill="#959595" stroke="#959595"/><path d="M1272,542L1176,703L1286,664Z" fill="#8c8c8c" stroke="#8c8c8c"/><path d="M1272,542L1286,664L1408,511Z" fill="#8f8f8f" stroke="#8f8f8f"/><path d="M1408,511L1286,664L1361,702Z" fill="#868686" stroke="#868686"/><path d="M1408,511L1361,702L1538,628Z" fill="#828282" stroke="#828282"/><path d="M1408,511L1538,628L1528,521Z" fill="#878787" stroke="#878787"/><path d="M1528,521L1538,628L1647,548Z" fill="#808080" stroke="#808080"/><path d="M1647,548L1538,628L1638,636Z" fill="#787878" stroke="#787878"/><path d="M1647,548L1638,636L1776,575Z" fill="#757575" stroke="#757575"/><path d="M1776,575L1638,636L1744,685Z" fill="#6d6d6d" stroke="#6d6d6d"/><path d="M1776,575L1744,685L1869,691Z" fill="#656565" stroke="#656565"/><path d="M1776,575L1869,691L1832,571Z" fill="#696969" stroke="#696969"/><path d="M1832,571L1869,691L1944,573Z" fill="#656565" stroke="#656565"/><path d="M1944,573L1869,691L1986,616Z" fill="#5f5f5f" stroke="#5f5f5f"/><path d="M1944,573L1986,616L2072,515Z" fill="#636363" stroke="#636363"/><path d="M2072,515L1986,616L2132,616Z" fill="#5d5d5d" stroke="#5d5d5d"/><path d="M2072,515L2132,616L2244,553Z" fill="#5a5a5a" stroke="#5a5a5a"/><path d="M2244,553L2132,616L2178,660Z" fill="#535353" stroke="#535353"/><path d="M2244,553L2178,660L2254,804Z" fill="#4a4a4a" stroke="#4a4a4a"/><path d="M-92,657L-90,1182L-82,938Z" fill="#a5a5a5" stroke="#a5a5a5"/><path d="M-92,657L-82,938L-52,769Z" fill="#b8b8b8" stroke="#b8b8b8"/><path d="M-92,657L-52,769L79,680Z" fill="#c2c2c2" stroke="#c2c2c2"/><path d="M79,680L-52,769L68,798Z" fill="#b9b9b9" stroke="#b9b9b9"/><path d="M79,680L68,798L145,696Z" fill="#bababa" stroke="#bababa"/><path d="M145,696L68,798L187,792Z" fill="#b3b3b3" stroke="#b3b3b3"/><path d="M145,696L187,792L286,620Z" fill="#b9b9b9" stroke="#b9b9b9"/><path d="M286,620L187,792L328,766Z" fill="#b3b3b3" stroke="#b3b3b3"/><path d="M286,620L328,766L408,694Z" fill="#b4b4b4" stroke="#b4b4b4"/><path d="M408,694L328,766L405,804Z" fill="#aaaaaa" stroke="#aaaaaa"/><path d="M408,694L405,804L527,812Z" fill="#a4a4a4" stroke="#a4a4a4"/><path d="M408,694L527,812L570,622Z" fill="#ababab" stroke="#ababab"/><path d="M570,622L527,812L685,803Z" fill="#a1a1a1" stroke="#a1a1a1"/><path d="M570,622L685,803L677,642Z" fill="#a7a7a7" stroke="#a7a7a7"/><path d="M677,642L685,803L738,768Z" fill="#9d9d9d" stroke="#9d9d9d"/><path d="M677,642L738,768L785,700Z" fill="#a0a0a0" stroke="#a0a0a0"/><path d="M785,700L738,768L910,788Z" fill="#959595" stroke="#959595"/><path d="M785,700L910,788L883,705Z" fill="#959595" stroke="#959595"/><path d="M883,705L910,788L983,650Z" fill="#949494" stroke="#949494"/><path d="M983,650L910,788L1033,757Z" fill="#8f8f8f" stroke="#8f8f8f"/><path d="M983,650L1033,757L1176,703Z" fill="#8e8e8e" stroke="#8e8e8e"/><path d="M1176,703L1033,757L1134,816Z" fill="#838383" stroke="#838383"/><path d="M1176,703L1134,816L1275,781Z" fill="#7c7c7c" stroke="#7c7c7c"/><path d="M1176,703L1275,781L1286,664Z" fill="#808080" stroke="#808080"/><path d="M1286,664L1275,781L1361,702Z" fill="#7c7c7c" stroke="#7c7c7c"/><path d="M1361,702L1275,781L1364,778Z" fill="#757575" stroke="#757575"/><path d="M1361,702L1364,778L1539,782Z" fill="#6f6f6f" stroke="#6f6f6f"/><path d="M1361,702L1539,782L1538,628Z" fill="#727272" stroke="#727272"/><path d="M1538,628L1539,782L1632,763Z" fill="#6a6a6a" stroke="#6a6a6a"/><path d="M1538,628L1632,763L1638,636Z" fill="#6e6e6e" stroke="#6e6e6e"/><path d="M1638,636L1632,763L1744,685Z" fill="#676767" stroke="#676767"/><path d="M1744,685L1632,763L1708,772Z" fill="#5f5f5f" stroke="#5f5f5f"/><path d="M1744,685L1708,772L1832,742Z" fill="#5b5b5b" stroke="#5b5b5b"/><path d="M1744,685L1832,742L1869,691Z" fill="#5c5c5c" stroke="#5c5c5c"/><path d="M1869,691L1832,742L1964,758Z" fill="#535353" stroke="#535353"/><path d="M1869,691L1964,758L1986,616Z" fill="#565656" stroke="#565656"/><path d="M1986,616L1964,758L2132,616Z" fill="#545454" stroke="#545454"/><path d="M2132,616L1964,758L2131,811Z" fill="#474747" stroke="#474747"/><path d="M2132,616L2131,811L2178,660Z" fill="#474747" stroke="#474747"/><path d="M2178,660L2131,811L2254,804Z" fill="#3e3e3e" stroke="#3e3e3e"/><path d="M-52,769L-82,938L61,925Z" fill="#a9a9a9" stroke="#a9a9a9"/><path d="M-52,769L61,925L68,798Z" fill="#aeaeae" stroke="#aeaeae"/><path d="M68,798L61,925L156,884Z" fill="#a5a5a5" stroke="#a5a5a5"/><path d="M68,798L156,884L187,792Z" fill="#aaaaaa" stroke="#aaaaaa"/><path d="M187,792L156,884L320,874Z" fill="#a2a2a2" stroke="#a2a2a2"/><path d="M187,792L320,874L328,766Z" fill="#a6a6a6" stroke="#a6a6a6"/><path d="M328,766L320,874L405,804Z" fill="#a3a3a3" stroke="#a3a3a3"/><path d="M405,804L320,874L389,940Z" fill="#999999" stroke="#999999"/><path d="M405,804L389,940L527,812Z" fill="#999999" stroke="#999999"/><path d="M527,812L389,940L567,897Z" fill="#929292" stroke="#929292"/><path d="M527,812L567,897L685,803Z" fill="#949494" stroke="#949494"/><path d="M685,803L567,897L656,925Z" fill="#8c8c8c" stroke="#8c8c8c"/><path d="M685,803L656,925L771,931Z" fill="#878787" stroke="#878787"/><path d="M685,803L771,931L738,768Z" fill="#8d8d8d" stroke="#8d8d8d"/><path d="M738,768L771,931L910,788Z" fill="#8a8a8a" stroke="#8a8a8a"/><path d="M910,788L771,931L929,913Z" fill="#808080" stroke="#808080"/><path d="M910,788L929,913L986,924Z" fill="#7c7c7c" stroke="#7c7c7c"/><path d="M910,788L986,924L1033,757Z" fill="#828282" stroke="#828282"/><path d="M1033,757L986,924L1134,816Z" fill="#7c7c7c" stroke="#7c7c7c"/><path d="M1134,816L986,924L1125,942Z" fill="#717171" stroke="#717171"/><path d="M1134,816L1125,942L1233,926Z" fill="#6c6c6c" stroke="#6c6c6c"/><path d="M1134,816L1233,926L1275,781Z" fill="#707070" stroke="#707070"/><path d="M1275,781L1233,926L1366,896Z" fill="#676767" stroke="#676767"/><path d="M1275,781L1366,896L1364,778Z" fill="#6c6c6c" stroke="#6c6c6c"/><path d="M1364,778L1366,896L1511,901Z" fill="#606060" stroke="#606060"/><path d="M1364,778L1511,901L1539,782Z" fill="#626262" stroke="#626262"/><path d="M1539,782L1511,901L1626,860Z" fill="#585858" stroke="#585858"/><path d="M1539,782L1626,860L1632,763Z" fill="#5c5c5c" stroke="#5c5c5c"/><path d="M1632,763L1626,860L1708,772Z" fill="#595959" stroke="#595959"/><path d="M1708,772L1626,860L1707,903Z" fill="#515151" stroke="#515151"/><path d="M1708,772L1707,903L1832,742Z" fill="#525252" stroke="#525252"/><path d="M1832,742L1707,903L1855,944Z" fill="#464646" stroke="#464646"/><path d="M1832,742L1855,944L1964,758Z" fill="#484848" stroke="#484848"/><path d="M1964,758L1855,944L2020,906Z" fill="#3c3c3c" stroke="#3c3c3c"/><path d="M1964,758L2020,906L2089,883Z" fill="#393939" stroke="#393939"/><path d="M1964,758L2089,883L2131,811Z" fill="#3b3b3b" stroke="#3b3b3b"/><path d="M2131,811L2089,883L2246,878Z" fill="#2f2f2f" stroke="#2f2f2f"/><path d="M2131,811L2246,878L2254,804Z" fill="#333333" stroke="#333333"/><path d="M2254,804L2246,878L2231,1111Z" fill="#252525" stroke="#252525"/><path d="M2254,804L2231,1111L2228,1276Z" fill="#121212" stroke="#121212"/><path d="M-82,938L-90,1182L-58,1061Z" fill="#919191" stroke="#919191"/><path d="M-82,938L-58,1061L61,925Z" fill="#9b9b9b" stroke="#9b9b9b"/><path d="M61,925L-58,1061L80,1024Z" fill="#959595" stroke="#959595"/><path d="M61,925L80,1024L157,984Z" fill="#969696" stroke="#969696"/><path d="M61,925L157,984L156,884Z" fill="#9b9b9b" stroke="#9b9b9b"/><path d="M156,884L157,984L320,874Z" fill="#9a9a9a" stroke="#9a9a9a"/><path d="M320,874L157,984L262,1038Z" fill="#919191" stroke="#919191"/><path d="M320,874L262,1038L389,940Z" fill="#909090" stroke="#909090"/><path d="M389,940L262,1038L448,1013Z" fill="#878787" stroke="#878787"/><path d="M389,940L448,1013L567,897Z" fill="#8a8a8a" stroke="#8a8a8a"/><path d="M567,897L448,1013L585,1039Z" fill="#828282" stroke="#828282"/><path d="M567,897L585,1039L627,1016Z" fill="#7f7f7f" stroke="#7f7f7f"/><path d="M567,897L627,1016L656,925Z" fill="#838383" stroke="#838383"/><path d="M656,925L627,1016L771,931Z" fill="#7e7e7e" stroke="#7e7e7e"/><path d="M771,931L627,1016L779,1099Z" fill="#737373" stroke="#737373"/><path d="M771,931L779,1099L815,1058Z" fill="#6e6e6e" stroke="#6e6e6e"/><path d="M771,931L815,1058L942,1011Z" fill="#6f6f6f" stroke="#6f6f6f"/><path d="M771,931L942,1011L929,913Z" fill="#747474" stroke="#747474"/><path d="M929,913L942,1011L986,924Z" fill="#717171" stroke="#717171"/><path d="M986,924L942,1011L1012,989Z" fill="#6c6c6c" stroke="#6c6c6c"/><path d="M986,924L1012,989L1101,978Z" fill="#6b6b6b" stroke="#6b6b6b"/><path d="M986,924L1101,978L1125,942Z" fill="#6a6a6a" stroke="#6a6a6a"/><path d="M1125,942L1101,978L1246,1063Z" fill="#5e5e5e" stroke="#5e5e5e"/><path d="M1125,942L1246,1063L1233,926Z" fill="#5d5d5d" stroke="#5d5d5d"/><path d="M1233,926L1246,1063L1369,991Z" fill="#565656" stroke="#565656"/><path d="M1233,926L1369,991L1366,896Z" fill="#5b5b5b" stroke="#5b5b5b"/><path d="M1366,896L1369,991L1481,1010Z" fill="#515151" stroke="#515151"/><path d="M1366,896L1481,1010L1511,901Z" fill="#535353" stroke="#535353"/><path d="M1511,901L1481,1010L1620,1001Z" fill="#484848" stroke="#484848"/><path d="M1511,901L1620,1001L1626,860Z" fill="#4c4c4c" stroke="#4c4c4c"/><path d="M1626,860L1620,1001L1707,903Z" fill="#484848" stroke="#484848"/><path d="M1707,903L1620,1001L1713,1012Z" fill="#3e3e3e" stroke="#3e3e3e"/><path d="M1707,903L1713,1012L1855,944Z" fill="#3c3c3c" stroke="#3c3c3c"/><path d="M1855,944L1713,1012L1821,1116Z" fill="#2f2f2f" stroke="#2f2f2f"/><path d="M1855,944L1821,1116L1895,981Z" fill="#2c2c2c" stroke="#2c2c2c"/><path d="M1855,944L1895,981L2020,906Z" fill="#323232" stroke="#323232"/><path d="M2020,906L1895,981L1965,1020Z" fill="#2c2c2c" stroke="#2c2c2c"/><path d="M2020,906L1965,1020L2106,1058Z" fill="#242424" stroke="#242424"/><path d="M2020,906L2106,1058L2089,883Z" fill="#282828" stroke="#282828"/><path d="M2089,883L2106,1058L2231,978Z" fill="#202020" stroke="#202020"/><path d="M2089,883L2231,978L2246,878Z" fill="#272727" stroke="#272727"/><path d="M2246,878L2231,978L2231,1111Z" fill="#1c1c1c" stroke="#1c1c1c"/><path d="M-58,1061L-90,1182L25,1132Z" fill="#868686" stroke="#868686"/><path d="M-58,1061L25,1132L80,1024Z" fill="#8b8b8b" stroke="#8b8b8b"/><path d="M80,1024L25,1132L157,1159Z" fill="#848484" stroke="#848484"/><path d="M80,1024L157,1159L157,984Z" fill="#898989" stroke="#898989"/><path d="M157,984L157,1159L262,1038Z" fill="#868686" stroke="#868686"/><path d="M262,1038L157,1159L324,1182Z" fill="#7a7a7a" stroke="#7a7a7a"/><path d="M262,1038L324,1182L448,1013Z" fill="#7d7d7d" stroke="#7d7d7d"/><path d="M448,1013L324,1182L427,1171Z" fill="#747474" stroke="#747474"/><path d="M448,1013L427,1171L580,1132Z" fill="#737373" stroke="#737373"/><path d="M448,1013L580,1132L585,1039Z" fill="#777777" stroke="#777777"/><path d="M585,1039L580,1132L672,1100Z" fill="#6e6e6e" stroke="#6e6e6e"/><path d="M585,1039L672,1100L627,1016Z" fill="#737373" stroke="#737373"/><path d="M627,1016L672,1100L779,1099Z" fill="#6d6d6d" stroke="#6d6d6d"/><path d="M815,1058L779,1099L886,1135Z" fill="#626262" stroke="#626262"/><path d="M815,1058L886,1135L942,1011Z" fill="#646464" stroke="#646464"/><path d="M942,1011L886,1135L1032,1159Z" fill="#5b5b5b" stroke="#5b5b5b"/><path d="M942,1011L1032,1159L1012,989Z" fill="#606060" stroke="#606060"/><path d="M1012,989L1032,1159L1101,978Z" fill="#5e5e5e" stroke="#5e5e5e"/><path d="M1101,978L1032,1159L1178,1178Z" fill="#515151" stroke="#515151"/><path d="M1101,978L1178,1178L1246,1063Z" fill="#515151" stroke="#515151"/><path d="M1246,1063L1178,1178L1267,1127Z" fill="#474747" stroke="#474747"/><path d="M1246,1063L1267,1127L1369,991Z" fill="#4b4b4b" stroke="#4b4b4b"/><path d="M1369,991L1267,1127L1374,1163Z" fill="#434343" stroke="#434343"/><path d="M1369,991L1374,1163L1481,1010Z" fill="#454545" stroke="#454545"/><path d="M1481,1010L1374,1163L1501,1157Z" fill="#3a3a3a" stroke="#3a3a3a"/><path d="M1481,1010L1501,1157L1620,1001Z" fill="#3c3c3c" stroke="#3c3c3c"/><path d="M1620,1001L1501,1157L1619,1159Z" fill="#323232" stroke="#323232"/><path d="M1620,1001L1619,1159L1713,1012Z" fill="#343434" stroke="#343434"/><path d="M1713,1012L1619,1159L1698,1172Z" fill="#2a2a2a" stroke="#2a2a2a"/><path d="M1713,1012L1698,1172L1821,1116Z" fill="#272727" stroke="#272727"/><path d="M1895,981L1821,1116L1965,1020Z" fill="#262626" stroke="#262626"/><path d="M1965,1020L1821,1116L1968,1158Z" fill="#1c1c1c" stroke="#1c1c1c"/><path d="M1965,1020L1968,1158L2106,1058Z" fill="#191919" stroke="#191919"/><path d="M2106,1058L1968,1158L2131,1095Z" fill="#111111" stroke="#111111"/><path d="M2106,1058L2131,1095L2231,978Z" fill="#151515" stroke="#151515"/><path d="M2231,978L2131,1095L2231,1111Z" fill="#121212" stroke="#121212"/><path d="M-90,1182L-53,1281L25,1132Z" fill="#7d7d7d" stroke="#7d7d7d"/><path d="M25,1132L-53,1281L63,1261Z" fill="#7b7b7b" stroke="#7b7b7b"/><path d="M25,1132L63,1261L157,1159Z" fill="#787878" stroke="#787878"/><path d="M157,1159L63,1261L149,1246Z" fill="#777777" stroke="#777777"/><path d="M157,1159L149,1246L324,1182Z" fill="#737373" stroke="#737373"/><path d="M324,1182L149,1246L318,1288Z" fill="#717171" stroke="#717171"/><path d="M324,1182L318,1288L400,1240Z" fill="#6d6d6d" stroke="#6d6d6d"/><path d="M324,1182L400,1240L427,1171Z" fill="#6c6c6c" stroke="#6c6c6c"/><path d="M427,1171L400,1240L559,1290Z" fill="#686868" stroke="#686868"/><path d="M427,1171L559,1290L580,1132Z" fill="#666666" stroke="#666666"/><path d="M580,1132L559,1290L675,1256Z" fill="#616161" stroke="#616161"/><path d="M580,1132L675,1256L672,1100Z" fill="#626262" stroke="#626262"/><path d="M672,1100L675,1256L779,1099Z" fill="#616161" stroke="#616161"/><path d="M779,1099L675,1256L800,1303Z" fill="#5a5a5a" stroke="#5a5a5a"/><path d="M779,1099L800,1303L893,1252Z" fill="#565656" stroke="#565656"/><path d="M779,1099L893,1252L886,1135Z" fill="#585858" stroke="#585858"/><path d="M886,1135L893,1252L1032,1159Z" fill="#505050" stroke="#505050"/><path d="M1032,1159L893,1252L975,1284Z" fill="#4e4e4e" stroke="#4e4e4e"/><path d="M1032,1159L975,1284L1161,1262Z" fill="#494949" stroke="#494949"/><path d="M1032,1159L1161,1262L1178,1178Z" fill="#454545" stroke="#454545"/><path d="M1178,1178L1161,1262L1252,1279Z" fill="#404040" stroke="#404040"/><path d="M1178,1178L1252,1279L1267,1127Z" fill="#3d3d3d" stroke="#3d3d3d"/><path d="M1267,1127L1252,1279L1355,1219Z" fill="#393939" stroke="#393939"/><path d="M1267,1127L1355,1219L1374,1163Z" fill="#393939" stroke="#393939"/><path d="M1374,1163L1355,1219L1494,1263Z" fill="#323232" stroke="#323232"/><path d="M1374,1163L1494,1263L1501,1157Z" fill="#2f2f2f" stroke="#2f2f2f"/><path d="M1501,1157L1494,1263L1619,1159Z" fill="#292929" stroke="#292929"/><path d="M1619,1159L1494,1263L1600,1294Z" fill="#272727" stroke="#272727"/><path d="M1619,1159L1600,1294L1704,1219Z" fill="#222222" stroke="#222222"/><path d="M1619,1159L1704,1219L1698,1172Z" fill="#212121" stroke="#212121"/><path d="M1698,1172L1704,1219L1821,1116Z" fill="#1e1e1e" stroke="#1e1e1e"/><path d="M1821,1116L1704,1219L1866,1243Z" fill="#181818" stroke="#181818"/><path d="M1821,1116L1866,1243L1968,1158Z" fill="#141414" stroke="#141414"/><path d="M1968,1158L1866,1243L1948,1257Z" fill="#0f0f0f" stroke="#0f0f0f"/><path d="M1968,1158L1948,1257L2110,1289Z" fill="#0a0a0a" stroke="#0a0a0a"/><path d="M1968,1158L2110,1289L2131,1095Z" fill="#060606" stroke="#060606"/><path d="M2131,1095L2110,1289L2228,1276Z" fill="#000000" stroke="#000000"/><path d="M2131,1095L2228,1276L2231,1111Z" fill="#040404" stroke="#040404"/><path d="M-53,1281L800,1303L318,1288Z" fill="#6d6d6d" stroke="#6d6d6d"/><path d="M-53,1281L318,1288L63,1261Z" fill="#777777" stroke="#777777"/><path d="M63,1261L318,1288L149,1246Z" fill="#747474" stroke="#747474"/><path d="M318,1288L800,1303L559,1290Z" fill="#646464" stroke="#646464"/><path d="M318,1288L559,1290L400,1240Z" fill="#6a6a6a" stroke="#6a6a6a"/><path d="M559,1290L800,1303L675,1256Z" fill="#5d5d5d" stroke="#5d5d5d"/><path d="M800,1303L2110,1289L1600,1294Z" fill="#2b2b2b" stroke="#2b2b2b"/><path d="M800,1303L1600,1294L1252,1279Z" fill="#3e3e3e" stroke="#3e3e3e"/><path d="M800,1303L1252,1279L975,1284Z" fill="#4c4c4c" stroke="#4c4c4c"/><path d="M800,1303L975,1284L893,1252Z" fill="#525252" stroke="#525252"/><path d="M975,1284L1252,1279L1161,1262Z" fill="#444444" stroke="#444444"/><path d="M1252,1279L1600,1294L1494,1263Z" fill="#2f2f2f" stroke="#2f2f2f"/><path d="M1252,1279L1494,1263L1355,1219Z" fill="#343434" stroke="#343434"/><path d="M1600,1294L2110,1289L1948,1257Z" fill="#121212" stroke="#121212"/><path d="M1600,1294L1948,1257L1866,1243Z" fill="#171717" stroke="#171717"/><path d="M1600,1294L1866,1243L1704,1219Z" fill="#1d1d1d" stroke="#1d1d1d"/></g></svg>