<svg width="1793" height="1106" xmlns="http://www.w3.org/2000/svg"><g><path d="M-52,-21L-111,76L126,42Z" fill="#ecf5fb" stroke="#ecf5fb"/><path d="M-52,-21L126,42L124,-82Z" fill="#ebf3fa" stroke="#ebf3fa"/><path d="M124,-82L126,42L193,-75Z" fill="#e7f1f9" stroke="#e7f1f9"/><path d="M124,-82L193,-75L422,-119Z" fill="#e2eef7" stroke="#e2eef7"/><path d="M193,-75L126,42L175,79Z" fill="#e4f0f8" stroke="#e4f0f8"/><path d="M193,-75L175,79L317,22Z" fill="#e2eff7" stroke="#e2eff7"/><path d="M193,-75L317,22L422,-119Z" fill="#deedf6" stroke="#deedf6"/><path d="M422,-119L317,22L467,-26Z" fill="#d9eaf4" stroke="#d9eaf4"/><path d="M422,-119L467,-26L629,-103Z" fill="#d4e7f2" stroke="#d4e7f2"/><path d="M422,-119L629,-103L864,-104Z" fill="#cbe2ef" stroke="#cbe2ef"/><path d="M422,-119L864,-104L1423,-93Z" fill="#b3d2e7" stroke="#b3d2e7"/><path d="M422,-119L1423,-93L1895,-90Z" fill="#94bedd" stroke="#94bedd"/><path d="M467,-26L317,22L334,193Z" fill="#d5eaf4" stroke="#d5eaf4"/><path d="M467,-26L334,193L569,62Z" fill="#cfe7f3" stroke="#cfe7f3"/><path d="M467,-26L569,62L629,-103Z" fill="#d1e6f1" stroke="#d1e6f1"/><path d="M629,-103L569,62L731,16Z" fill="#cbe2ef" stroke="#cbe2ef"/><path d="M629,-103L731,16L864,-104Z" fill="#c2dcec" stroke="#c2dcec"/><path d="M864,-104L731,16L802,33Z" fill="#bcd9ea" stroke="#bcd9ea"/><path d="M864,-104L802,33L924,-26Z" fill="#b7d5e8" stroke="#b7d5e8"/><path d="M864,-104L924,-26L1175,-50Z" fill="#abcde5" stroke="#abcde5"/><path d="M864,-104L1175,-50L1266,-71Z" fill="#a1c6e1" stroke="#a1c6e1"/><path d="M864,-104L1266,-71L1423,-93Z" fill="#99c1df" stroke="#99c1df"/><path d="M924,-26L802,33L1026,86Z" fill="#afd1e7" stroke="#afd1e7"/><path d="M924,-26L1026,86L1104,32Z" fill="#a5cbe4" stroke="#a5cbe4"/><path d="M924,-26L1104,32L1175,-50Z" fill="#a4c8e2" stroke="#a4c8e2"/><path d="M1175,-50L1104,32L1241,91Z" fill="#98c2df" stroke="#98c2df"/><path d="M1175,-50L1241,91L1266,-71Z" fill="#95bfdd" stroke="#95bfdd"/><path d="M1266,-71L1241,91L1437,27Z" fill="#8cb9db" stroke="#8cb9db"/><path d="M1266,-71L1437,27L1423,-93Z" fill="#88b6d9" stroke="#88b6d9"/><path d="M1423,-93L1437,27L1560,-81Z" fill="#80b0d6" stroke="#80b0d6"/><path d="M1423,-93L1560,-81L1895,-90Z" fill="#80a7d1" stroke="#80a7d1"/><path d="M1560,-81L1437,27L1577,104Z" fill="#7eacd4" stroke="#7eacd4"/><path d="M1560,-81L1577,104L1666,21Z" fill="#7ea8d2" stroke="#7ea8d2"/><path d="M1560,-81L1666,21L1748,-37Z" fill="#80a5d0" stroke="#80a5d0"/><path d="M1560,-81L1748,-37L1895,-90Z" fill="#80a0ce" stroke="#80a0ce"/><path d="M1748,-37L1666,21L1785,191Z" fill="#7a9fce" stroke="#7a9fce"/><path d="M1748,-37L1785,191L1899,45Z" fill="#7a9acc" stroke="#7a9acc"/><path d="M1748,-37L1899,45L1895,-90Z" fill="#8099cb" stroke="#8099cb"/><path d="M1895,-90L1899,45L1918,205Z" fill="#7b95c9" stroke="#7b95c9"/><path d="M-111,76L-132,652L-103,432Z" fill="#d0effd" stroke="#d0effd"/><path d="M-111,76L-103,432L-66,261Z" fill="#dcf3fd" stroke="#dcf3fd"/><path d="M-111,76L-66,261L126,42Z" fill="#e4f3fc" stroke="#e4f3fc"/><path d="M126,42L-66,261L129,246Z" fill="#dbf0fa" stroke="#dbf0fa"/><path d="M126,42L129,246L175,79Z" fill="#dceff9" stroke="#dceff9"/><path d="M175,79L129,246L210,258Z" fill="#d4edf8" stroke="#d4edf8"/><path d="M175,79L210,258L334,193Z" fill="#d2ebf7" stroke="#d2ebf7"/><path d="M175,79L334,193L317,22Z" fill="#d7ecf6" stroke="#d7ecf6"/><path d="M569,62L334,193L539,273Z" fill="#c5e4f2" stroke="#c5e4f2"/><path d="M569,62L539,273L728,257Z" fill="#bbe0f0" stroke="#bbe0f0"/><path d="M569,62L728,257L775,170Z" fill="#b7dced" stroke="#b7dced"/><path d="M569,62L775,170L731,16Z" fill="#bfdeed" stroke="#bfdeed"/><path d="M731,16L775,170L802,33Z" fill="#b9d9eb" stroke="#b9d9eb"/><path d="M802,33L775,170L1026,86Z" fill="#add2e8" stroke="#add2e8"/><path d="M1026,86L775,170L926,273Z" fill="#a2cee7" stroke="#a2cee7"/><path d="M1026,86L926,273L1109,248Z" fill="#96c7e4" stroke="#96c7e4"/><path d="M1026,86L1109,248L1104,32Z" fill="#98c5e2" stroke="#98c5e2"/><path d="M1104,32L1109,248L1241,91Z" fill="#91c1e0" stroke="#91c1e0"/><path d="M1241,91L1109,248L1241,237Z" fill="#87bdde" stroke="#87bdde"/><path d="M1241,91L1241,237L1375,185Z" fill="#81b8dc" stroke="#81b8dc"/><path d="M1241,91L1375,185L1437,27Z" fill="#81b5da" stroke="#81b5da"/><path d="M1437,27L1375,185L1577,104Z" fill="#76afd6" stroke="#76afd6"/><path d="M1577,104L1375,185L1572,237Z" fill="#70aad5" stroke="#70aad5"/><path d="M1577,104L1572,237L1785,191Z" fill="#70a2d1" stroke="#70a2d1"/><path d="M1577,104L1785,191L1666,21Z" fill="#76a2d0" stroke="#76a2d0"/><path d="M1899,45L1785,191L1918,205Z" fill="#7295ca" stroke="#7295ca"/><path d="M-66,261L-103,432L98,359Z" fill="#d0effc" stroke="#d0effc"/><path d="M-66,261L98,359L129,246Z" fill="#d2eefa" stroke="#d2eefa"/><path d="M129,246L98,359L236,317Z" fill="#caebf8" stroke="#caebf8"/><path d="M129,246L236,317L210,258Z" fill="#cbebf8" stroke="#cbebf8"/><path d="M210,258L236,317L331,318Z" fill="#c6e9f6" stroke="#c6e9f6"/><path d="M210,258L331,318L334,193Z" fill="#c8e8f6" stroke="#c8e8f6"/><path d="M334,193L331,318L539,273Z" fill="#c2e5f4" stroke="#c2e5f4"/><path d="M539,273L331,318L541,428Z" fill="#b7e2f3" stroke="#b7e2f3"/><path d="M539,273L541,428L675,429Z" fill="#acddf0" stroke="#acddf0"/><path d="M539,273L675,429L728,257Z" fill="#addcef" stroke="#addcef"/><path d="M728,257L675,429L848,406Z" fill="#a0d5ec" stroke="#a0d5ec"/><path d="M728,257L848,406L926,273Z" fill="#9dd1e9" stroke="#9dd1e9"/><path d="M728,257L926,273L775,170Z" fill="#a6d3ea" stroke="#a6d3ea"/><path d="M926,273L848,406L967,364Z" fill="#92cbe7" stroke="#92cbe7"/><path d="M926,273L967,364L1109,248Z" fill="#8fc7e4" stroke="#8fc7e4"/><path d="M1109,248L967,364L1170,322Z" fill="#86c2e2" stroke="#86c2e2"/><path d="M1109,248L1170,322L1241,237Z" fill="#82bddf" stroke="#82bddf"/><path d="M1241,237L1170,322L1222,371Z" fill="#7bbade" stroke="#7bbade"/><path d="M1241,237L1222,371L1368,427Z" fill="#71b5dc" stroke="#71b5dc"/><path d="M1241,237L1368,427L1375,185Z" fill="#73b3da" stroke="#73b3da"/><path d="M1375,185L1368,427L1519,318Z" fill="#68add7" stroke="#68add7"/><path d="M1375,185L1519,318L1572,237Z" fill="#69abd5" stroke="#69abd5"/><path d="M1572,237L1519,318L1710,334Z" fill="#65a3d2" stroke="#65a3d2"/><path d="M1572,237L1710,334L1785,191Z" fill="#699ecf" stroke="#699ecf"/><path d="M1785,191L1710,334L1831,383Z" fill="#6498cd" stroke="#6498cd"/><path d="M1785,191L1831,383L1918,205Z" fill="#6895cb" stroke="#6895cb"/><path d="M1918,205L1831,383L1838,483Z" fill="#5f92ca" stroke="#5f92ca"/><path d="M1918,205L1838,483L1921,862Z" fill="#447ec3" stroke="#447ec3"/><path d="M-103,432L-132,652L-40,540Z" fill="#b4ddf6" stroke="#b4ddf6"/><path d="M-103,432L-40,540L85,497Z" fill="#b9e1f7" stroke="#b9e1f7"/><path d="M-103,432L85,497L98,359Z" fill="#c1e7f8" stroke="#c1e7f8"/><path d="M98,359L85,497L279,480Z" fill="#b8e1f5" stroke="#b8e1f5"/><path d="M98,359L279,480L236,317Z" fill="#bfe7f7" stroke="#bfe7f7"/><path d="M236,317L279,480L331,318Z" fill="#bee6f6" stroke="#bee6f6"/><path d="M331,318L279,480L389,527Z" fill="#aeddf2" stroke="#aeddf2"/><path d="M331,318L389,527L486,501Z" fill="#aadaf0" stroke="#aadaf0"/><path d="M331,318L486,501L541,428Z" fill="#addcf1" stroke="#addcf1"/><path d="M541,428L486,501L705,490Z" fill="#9cd2ed" stroke="#9cd2ed"/><path d="M541,428L705,490L675,429Z" fill="#9bd2eb" stroke="#9bd2eb"/><path d="M675,429L705,490L848,406Z" fill="#93cde9" stroke="#93cde9"/><path d="M848,406L705,490L871,499Z" fill="#89c6e6" stroke="#89c6e6"/><path d="M848,406L871,499L967,364Z" fill="#89c5e5" stroke="#89c5e5"/><path d="M967,364L871,499L1013,541Z" fill="#7cbde2" stroke="#7cbde2"/><path d="M967,364L1013,541L1087,560Z" fill="#72b6de" stroke="#72b6de"/><path d="M967,364L1087,560L1170,322Z" fill="#7abce0" stroke="#7abce0"/><path d="M1170,322L1087,560L1222,371Z" fill="#72b6dd" stroke="#72b6dd"/><path d="M1222,371L1087,560L1298,582Z" fill="#5ea9d9" stroke="#5ea9d9"/><path d="M1222,371L1298,582L1368,427Z" fill="#5ea9d8" stroke="#5ea9d8"/><path d="M1368,427L1298,582L1435,560Z" fill="#4c9dd3" stroke="#4c9dd3"/><path d="M1368,427L1435,560L1519,318Z" fill="#55a3d4" stroke="#55a3d4"/><path d="M1519,318L1435,560L1616,544Z" fill="#4c99d0" stroke="#4c99d0"/><path d="M1519,318L1616,544L1710,334Z" fill="#599dd1" stroke="#599dd1"/><path d="M1710,334L1616,544L1772,516Z" fill="#4d90cb" stroke="#4d90cb"/><path d="M1710,334L1772,516L1831,383Z" fill="#5792cb" stroke="#5792cb"/><path d="M1831,383L1772,516L1838,483Z" fill="#4e8ac8" stroke="#4e8ac8"/><path d="M-40,540L-132,652L19,677Z" fill="#a3d2f2" stroke="#a3d2f2"/><path d="M-40,540L19,677L85,497Z" fill="#a9d6f3" stroke="#a9d6f3"/><path d="M85,497L19,677L224,617Z" fill="#9fd1f0" stroke="#9fd1f0"/><path d="M85,497L224,617L279,480Z" fill="#a6d6f1" stroke="#a6d6f1"/><path d="M279,480L224,617L389,527Z" fill="#9fd2ef" stroke="#9fd2ef"/><path d="M389,527L224,617L380,668Z" fill="#92caec" stroke="#92caec"/><path d="M389,527L380,668L486,501Z" fill="#94ccec" stroke="#94ccec"/><path d="M486,501L380,668L548,720Z" fill="#86c3e8" stroke="#86c3e8"/><path d="M486,501L548,720L690,654Z" fill="#81c0e6" stroke="#81c0e6"/><path d="M486,501L690,654L705,490Z" fill="#8bc7e8" stroke="#8bc7e8"/><path d="M705,490L690,654L871,499Z" fill="#7fbfe4" stroke="#7fbfe4"/><path d="M871,499L690,654L876,683Z" fill="#6fb4e0" stroke="#6fb4e0"/><path d="M871,499L876,683L926,691Z" fill="#66aedd" stroke="#66aedd"/><path d="M871,499L926,691L1013,541Z" fill="#6ab1de" stroke="#6ab1de"/><path d="M1013,541L926,691L1087,560Z" fill="#5faada" stroke="#5faada"/><path d="M1087,560L926,691L1156,659Z" fill="#54a3d7" stroke="#54a3d7"/><path d="M1087,560L1156,659L1298,582Z" fill="#4fa0d5" stroke="#4fa0d5"/><path d="M1298,582L1156,659L1311,729Z" fill="#3e95d1" stroke="#3e95d1"/><path d="M1298,582L1311,729L1400,642Z" fill="#3890cf" stroke="#3890cf"/><path d="M1298,582L1400,642L1435,560Z" fill="#3e94d0" stroke="#3e94d0"/><path d="M1435,560L1400,642L1543,713Z" fill="#2f8acb" stroke="#2f8acb"/><path d="M1435,560L1543,713L1616,544Z" fill="#348acb" stroke="#348acb"/><path d="M1616,544L1543,713L1702,621Z" fill="#3182c7" stroke="#3182c7"/><path d="M1616,544L1702,621L1772,516Z" fill="#3c85c7" stroke="#3c85c7"/><path d="M1772,516L1702,621L1821,620Z" fill="#387ec4" stroke="#387ec4"/><path d="M1772,516L1821,620L1838,483Z" fill="#4081c5" stroke="#4081c5"/><path d="M1838,483L1821,620L1921,862Z" fill="#2c70bf" stroke="#2c70bf"/><path d="M-132,652L-132,1270L-96,1172Z" fill="#76a4e2" stroke="#76a4e2"/><path d="M-132,652L-96,1172L-66,862Z" fill="#75b3e8" stroke="#75b3e8"/><path d="M-132,652L-66,862L19,677Z" fill="#90c6ee" stroke="#90c6ee"/><path d="M19,677L-66,862L123,865Z" fill="#7fbbe9" stroke="#7fbbe9"/><path d="M19,677L123,865L224,617Z" fill="#89c2eb" stroke="#89c2eb"/><path d="M224,617L123,865L258,813Z" fill="#7cbbe8" stroke="#7cbbe8"/><path d="M224,617L258,813L380,668Z" fill="#83c0e8" stroke="#83c0e8"/><path d="M380,668L258,813L349,796Z" fill="#77b8e5" stroke="#77b8e5"/><path d="M380,668L349,796L488,844Z" fill="#71b5e3" stroke="#71b5e3"/><path d="M380,668L488,844L548,720Z" fill="#72b5e3" stroke="#72b5e3"/><path d="M548,720L488,844L616,842Z" fill="#63ade0" stroke="#63ade0"/><path d="M548,720L616,842L690,654Z" fill="#6ab2e1" stroke="#6ab2e1"/><path d="M690,654L616,842L858,876Z" fill="#57a5dc" stroke="#57a5dc"/><path d="M690,654L858,876L876,683Z" fill="#59a6db" stroke="#59a6db"/><path d="M876,683L858,876L926,691Z" fill="#50a0d8" stroke="#50a0d8"/><path d="M926,691L858,876L969,883Z" fill="#4196d5" stroke="#4196d5"/><path d="M926,691L969,883L1107,782Z" fill="#3f95d3" stroke="#3f95d3"/><path d="M926,691L1107,782L1156,659Z" fill="#469ad4" stroke="#469ad4"/><path d="M1156,659L1107,782L1243,766Z" fill="#3990d0" stroke="#3990d0"/><path d="M1156,659L1243,766L1311,729Z" fill="#358fcf" stroke="#358fcf"/><path d="M1311,729L1243,766L1468,799Z" fill="#2383ca" stroke="#2383ca"/><path d="M1311,729L1468,799L1400,642Z" fill="#2684ca" stroke="#2684ca"/><path d="M1400,642L1468,799L1543,713Z" fill="#2181c8" stroke="#2181c8"/><path d="M1543,713L1468,799L1624,854Z" fill="#1474c3" stroke="#1474c3"/><path d="M1543,713L1624,854L1757,791Z" fill="#156ec0" stroke="#156ec0"/><path d="M1543,713L1757,791L1702,621Z" fill="#2276c2" stroke="#2276c2"/><path d="M1702,621L1757,791L1821,620Z" fill="#2874c1" stroke="#2874c1"/><path d="M1821,620L1757,791L1921,862Z" fill="#1a66bb" stroke="#1a66bb"/><path d="M-66,862L-96,1172L-59,995Z" fill="#73a5e3" stroke="#73a5e3"/><path d="M-66,862L-59,995L95,945Z" fill="#70ade4" stroke="#70ade4"/><path d="M-66,862L95,945L123,865Z" fill="#6fb0e5" stroke="#6fb0e5"/><path d="M123,865L95,945L218,939Z" fill="#67aae2" stroke="#67aae2"/><path d="M123,865L218,939L258,813Z" fill="#6aaee3" stroke="#6aaee3"/><path d="M258,813L218,939L349,796Z" fill="#6aafe3" stroke="#6aafe3"/><path d="M349,796L218,939L334,1016Z" fill="#5fa6df" stroke="#5fa6df"/><path d="M349,796L334,1016L488,844Z" fill="#5da7df" stroke="#5da7df"/><path d="M488,844L334,1016L548,926Z" fill="#57a0dc" stroke="#57a0dc"/><path d="M488,844L548,926L616,842Z" fill="#57a5dd" stroke="#57a5dd"/><path d="M616,842L548,926L728,1000Z" fill="#4c9bd9" stroke="#4c9bd9"/><path d="M616,842L728,1000L858,876Z" fill="#4397d6" stroke="#4397d6"/><path d="M858,876L728,1000L828,1034Z" fill="#3c8bd2" stroke="#3c8bd2"/><path d="M858,876L828,1034L969,883Z" fill="#358bd1" stroke="#358bd1"/><path d="M969,883L828,1034L955,1078Z" fill="#3281cd" stroke="#3281cd"/><path d="M969,883L955,1078L1033,985Z" fill="#2c7fcc" stroke="#2c7fcc"/><path d="M969,883L1033,985L1136,948Z" fill="#2680cc" stroke="#2680cc"/><path d="M969,883L1136,948L1107,782Z" fill="#2a87ce" stroke="#2a87ce"/><path d="M1107,782L1136,948L1243,766Z" fill="#2886cc" stroke="#2886cc"/><path d="M1243,766L1136,948L1220,1028Z" fill="#187ac8" stroke="#187ac8"/><path d="M1243,766L1220,1028L1479,992Z" fill="#0e71c4" stroke="#0e71c4"/><path d="M1243,766L1479,992L1468,799Z" fill="#0f75c5" stroke="#0f75c5"/><path d="M1468,799L1479,992L1596,958Z" fill="#0067be" stroke="#0067be"/><path d="M1468,799L1596,958L1624,854Z" fill="#0669bf" stroke="#0669bf"/><path d="M1624,854L1596,958L1677,1026Z" fill="#005cba" stroke="#005cba"/><path d="M1624,854L1677,1026L1757,791Z" fill="#025fba" stroke="#025fba"/><path d="M1757,791L1677,1026L1855,956Z" fill="#0057b7" stroke="#0057b7"/><path d="M1757,791L1855,956L1921,862Z" fill="#0658b6" stroke="#0658b6"/><path d="M1921,862L1855,956L1855,1097Z" fill="#004ab1" stroke="#004ab1"/><path d="M1921,862L1855,1097L1866,1273Z" fill="#003ead" stroke="#003ead"/><path d="M-59,995L-96,1172L48,1169Z" fill="#7199de" stroke="#7199de"/><path d="M-59,995L48,1169L95,945Z" fill="#6e9fe0" stroke="#6e9fe0"/><path d="M95,945L48,1169L236,1112Z" fill="#6898dc" stroke="#6898dc"/><path d="M95,945L236,1112L218,939Z" fill="#65a0de" stroke="#65a0de"/><path d="M218,939L236,1112L334,1016Z" fill="#619bdc" stroke="#619bdc"/><path d="M334,1016L236,1112L350,1179Z" fill="#5f90d8" stroke="#5f90d8"/><path d="M334,1016L350,1179L489,1077Z" fill="#5a8fd7" stroke="#5a8fd7"/><path d="M334,1016L489,1077L548,926Z" fill="#5797d9" stroke="#5797d9"/><path d="M548,926L489,1077L665,1093Z" fill="#5191d6" stroke="#5191d6"/><path d="M548,926L665,1093L728,1000Z" fill="#4b90d5" stroke="#4b90d5"/><path d="M728,1000L665,1093L828,1034Z" fill="#4287d0" stroke="#4287d0"/><path d="M828,1034L665,1093L842,1143Z" fill="#3f7fcd" stroke="#3f7fcd"/><path d="M828,1034L842,1143L955,1078Z" fill="#367acb" stroke="#367acb"/><path d="M1033,985L955,1078L1163,1125Z" fill="#2671c7" stroke="#2671c7"/><path d="M1033,985L1163,1125L1136,948Z" fill="#2073c6" stroke="#2073c6"/><path d="M1136,948L1163,1125L1220,1028Z" fill="#1b6ec4" stroke="#1b6ec4"/><path d="M1220,1028L1163,1125L1218,1089Z" fill="#1866c1" stroke="#1866c1"/><path d="M1220,1028L1218,1089L1409,1093Z" fill="#1163bf" stroke="#1163bf"/><path d="M1220,1028L1409,1093L1479,992Z" fill="#0961be" stroke="#0961be"/><path d="M1479,992L1409,1093L1617,1106Z" fill="#0056b9" stroke="#0056b9"/><path d="M1479,992L1617,1106L1596,958Z" fill="#0058b9" stroke="#0058b9"/><path d="M1596,958L1617,1106L1677,1026Z" fill="#0053b6" stroke="#0053b6"/><path d="M1677,1026L1617,1106L1684,1096Z" fill="#004bb3" stroke="#004bb3"/><path d="M1677,1026L1684,1096L1855,1097Z" fill="#0047b1" stroke="#0047b1"/><path d="M1677,1026L1855,1097L1855,956Z" fill="#0049b1" stroke="#0049b1"/><path d="M-96,1172L-132,1270L46,1277Z" fill="#728ad9" stroke="#728ad9"/><path d="M-96,1172L46,1277L48,1169Z" fill="#6f8dd9" stroke="#6f8dd9"/><path d="M48,1169L46,1277L202,1249Z" fill="#6a87d6" stroke="#6a87d6"/><path d="M48,1169L202,1249L236,1112Z" fill="#678cd7" stroke="#678cd7"/><path d="M236,1112L202,1249L350,1179Z" fill="#6188d5" stroke="#6188d5"/><path d="M350,1179L202,1249L340,1269Z" fill="#5f82d3" stroke="#5f82d3"/><path d="M350,1179L340,1269L485,1266Z" fill="#5a7ed1" stroke="#5a7ed1"/><path d="M350,1179L485,1266L489,1077Z" fill="#5884d2" stroke="#5884d2"/><path d="M489,1077L485,1266L665,1093Z" fill="#5285d2" stroke="#5285d2"/><path d="M665,1093L485,1266L672,1311Z" fill="#4e7acd" stroke="#4e7acd"/><path d="M665,1093L672,1311L790,1233Z" fill="#4575ca" stroke="#4575ca"/><path d="M665,1093L790,1233L842,1143Z" fill="#4078cb" stroke="#4078cb"/><path d="M842,1143L790,1233L982,1306Z" fill="#3669c5" stroke="#3669c5"/><path d="M842,1143L982,1306L955,1078Z" fill="#316cc5" stroke="#316cc5"/><path d="M955,1078L982,1306L1163,1125Z" fill="#2866c3" stroke="#2866c3"/><path d="M1163,1125L982,1306L1178,1324Z" fill="#2158bd" stroke="#2158bd"/><path d="M1163,1125L1178,1324L1292,1268Z" fill="#1753ba" stroke="#1753ba"/><path d="M1163,1125L1292,1268L1218,1089Z" fill="#165cbd" stroke="#165cbd"/><path d="M1218,1089L1292,1268L1409,1093Z" fill="#0f58bb" stroke="#0f58bb"/><path d="M1409,1093L1292,1268L1376,1293Z" fill="#0a4db7" stroke="#0a4db7"/><path d="M1409,1093L1376,1293L1599,1251Z" fill="#0047b4" stroke="#0047b4"/><path d="M1409,1093L1599,1251L1617,1106Z" fill="#004ab4" stroke="#004ab4"/><path d="M1617,1106L1599,1251L1684,1096Z" fill="#0044b1" stroke="#0044b1"/><path d="M1684,1096L1599,1251L1775,1256Z" fill="#003bad" stroke="#003bad"/><path d="M1684,1096L1775,1256L1855,1097Z" fill="#003cad" stroke="#003cad"/><path d="M1855,1097L1775,1256L1866,1273Z" fill="#0031a9" stroke="#0031a9"/><path d="M-132,1270L672,1311L46,1277Z" fill="#657ed2" stroke="#657ed2"/><path d="M46,1277L672,1311L340,1269Z" fill="#5c7acf" stroke="#5c7acf"/><path d="M46,1277L340,1269L202,1249Z" fill="#6580d3" stroke="#6580d3"/><path d="M340,1269L672,1311L485,1266Z" fill="#5576cd" stroke="#5576cd"/><path d="M672,1311L1178,1324L982,1306Z" fill="#305bbf" stroke="#305bbf"/><path d="M672,1311L982,1306L790,1233Z" fill="#3b66c5" stroke="#3b66c5"/><path d="M1178,1324L1866,1273L1376,1293Z" fill="#003db0" stroke="#003db0"/><path d="M1178,1324L1376,1293L1292,1268Z" fill="#1149b6" stroke="#1149b6"/><path d="M1376,1293L1866,1273L1599,1251Z" fill="#0037ad" stroke="#0037ad"/><path d="M1599,1251L1866,1273L1775,1256Z" fill="#0031a9" stroke="#0031a9"/></g></svg>