<!-- Generated by IcoMoon.io -->
<svg version="1.1" xmlns="http://www.w3.org/2000/svg" width="4112" height="1024" viewBox="0 0 4112 1024">
<title></title>
<g id="icomoon-ignore">
</g>
<path d="M531.845 603.287v0 0c55.566 15.876 111.132-15.876 127.008-63.504 7.938-55.566-15.876-103.194-71.442-119.070-23.814-7.938-39.69-7.938-55.566 0v182.574c0 0 0 0 0 0zM531.845 960.496l71.442 55.566 15.876-15.876-87.318-79.38v39.69zM531.845 841.426h-7.938v-31.752l142.884 134.946-15.876 15.876-119.070-119.070zM531.845 730.295v-31.752l198.45 198.45-15.876 15.876-182.574-182.574zM531.845 619.163l238.14 230.202 341.333-341.333-254.016-254.016c79.38 95.256 15.876 190.512-47.628 254.016-55.566 47.628-150.822 95.256-230.202 111.132 0 0-7.938 0-7.938 0-7.938 0-23.814 0-39.69 0 0-7.938 0-7.938 0 0v0 0zM531.845 404.837v-63.504l71.442 71.442c-7.938 0-7.938 0-15.876-7.938-15.876 0-23.814 0-39.69 0 0 0-7.938 0-15.876 0 7.938 0 0 0 0 0v0 0zM531.845 269.891l134.946 134.946c39.69 39.69 39.69 111.132-7.938 158.76 0 0 0 0 7.938 0 63.504-63.504 55.566-142.884 15.876-174.636l-158.76-150.822v31.752h7.938zM531.845 158.76l190.512 190.512c47.628 47.628 47.628 119.070 15.876 174.636 0 0 0 0 7.938 0 63.504-63.504 55.566-142.884 7.938-198.45l-222.264-206.388v39.69zM531.845 47.628l246.078 246.078c55.566 55.566 55.566 119.070 23.814 182.574 55.566-55.566 63.504-134.946 0-198.45l-269.891-269.891v39.69zM531.845 603.287v-182.574c-31.752 7.938-55.566 31.752-63.504 63.504-15.876 55.566 15.876 103.194 63.504 119.070v0zM531.845 7.938v39.69l-23.814-31.752 15.876-15.876 7.938 7.938zM531.845 119.070v39.69l-79.38-79.38 15.876-15.876 63.504 55.566zM531.845 230.202v39.69l-142.884-142.884 15.876-15.876 127.008 119.070zM531.845 341.333l-174.636-174.636-349.271 341.333 254.016 254.016c-79.38-95.256-15.876-190.512 47.628-254.016 55.566-47.628 150.822-87.318 222.264-103.194v-63.504zM531.845 611.225v0c0 0-7.938 0-7.938 0v0c0 0 0 0 0 0h7.938zM531.845 698.543l-79.38-79.38c-39.69-39.69-39.69-111.132 7.938-158.76 0 0 0 0-7.938 0-63.504 63.504-55.566 134.946-15.876 174.636l95.256 95.256v-31.752zM531.845 809.674l-134.946-134.946c-47.628-47.628-47.628-127.008-7.938-182.574 0 0 0 0-7.938 0-55.566 71.442-55.566 150.822 0 198.45l150.822 150.822v-31.752zM531.845 920.806l-190.512-190.512c-55.566-55.566-55.566-119.070-23.814-182.574-55.566 55.566-71.442 134.946 0 198.45l214.326 206.388v-31.752zM2929.116 984.31v-190.512h55.566l63.504 95.256v-95.256h31.752v190.512h-31.752l-95.256-142.884v142.884h-23.814zM3905.488 793.798v0h55.566l39.69 71.442 47.628-71.442h31.752l-55.566 95.256v95.256h-55.566v-87.318l-63.504-103.194zM3905.488 952.558v0-55.566h-55.566v55.566c-7.938 0-7.938 7.938-15.876 7.938s-7.938 0-15.876 0c-15.876 0-31.752-7.938-39.69-23.814s-15.876-31.752-15.876-55.566c0-23.814 7.938-39.69 15.876-55.566s23.814-23.814 39.69-23.814c7.938 0 23.814 0 31.752 7.938s15.876 15.876 23.814 23.814l23.814-15.876c-7.938-15.876-23.814-23.814-31.752-31.752-15.876-7.938-31.752-7.938-47.628-7.938s-23.814 0-39.69 7.938c-7.938 7.938-23.814 7.938-31.752 15.876s-15.876 23.814-23.814 31.752c-7.938 15.876-7.938 23.814-7.938 39.69s0 31.752 7.938 47.628c7.938 15.876 15.876 23.814 23.814 31.752s15.876 15.876 31.752 15.876c7.938 7.938 23.814 7.938 39.69 7.938s31.752 0 55.566-7.938c7.938 7.938 23.814 0 31.752-15.876v0zM3587.969 984.31c-15.876 0-23.814 0-39.69-7.938-7.938-7.938-23.814-7.938-31.752-15.876s-15.876-23.814-23.814-31.752c-7.938-15.876-7.938-23.814-7.938-39.69s0-31.752 7.938-39.69c7.938-7.938 15.876-23.814 23.814-31.752s15.876-15.876 31.752-15.876c15.876-7.938 23.814-7.938 39.69-7.938s23.814 0 39.69 7.938c15.876 7.938 23.814 7.938 31.752 15.876s15.876 23.814 23.814 31.752c7.938 15.876 7.938 23.814 7.938 39.69s0 31.752-7.938 39.69c-7.938 15.876-15.876 23.814-23.814 31.752s-15.876 15.876-31.752 15.876c-15.876 7.938-23.814 7.938-39.69 7.938v0zM3587.969 809.674c-15.876 0-23.814 7.938-31.752 23.814s-7.938 31.752-7.938 55.566c0 23.814 0 39.69 7.938 55.566s15.876 15.876 31.752 15.876c15.876 0 23.814-7.938 31.752-15.876 7.938-15.876 7.938-31.752 7.938-55.566s-7.938-39.69-7.938-55.566c-7.938-15.876-15.876-23.814-31.752-23.814v0zM3357.767 984.31v-190.512h55.566v166.698h71.442v23.814h-127.008zM1389.147 817.612v-23.814h158.76l-95.256 166.698h87.318v23.814h-158.76l95.256-166.698h-87.318zM3214.884 984.31c-15.876 0-23.814 0-39.69-7.938-7.938-7.938-23.814-7.938-31.752-15.876s-15.876-23.814-23.814-31.752c-7.938-15.876-7.938-23.814-7.938-39.69s0-31.752 7.938-39.69c7.938-7.938 15.876-23.814 23.814-31.752s15.876-15.876 31.752-15.876c7.938-7.938 23.814-7.938 39.69-7.938s23.814 0 39.69 7.938c7.938 7.938 23.814 7.938 31.752 15.876s15.876 23.814 23.814 31.752c7.938 15.876 7.938 23.814 7.938 39.69s0 31.752-7.938 39.69c-7.938 15.876-15.876 23.814-23.814 31.752s-15.876 15.876-31.752 15.876c-7.938 7.938-23.814 7.938-39.69 7.938v0zM3214.884 809.674c-15.876 0-23.814 7.938-31.752 23.814-7.938 7.938-7.938 31.752-7.938 55.566s0 39.69 7.938 55.566c7.938 15.876 15.876 15.876 31.752 15.876s23.814-7.938 31.752-15.876c7.938-15.876 7.938-31.752 7.938-55.566s-7.938-39.69-7.938-55.566c0-15.876-15.876-23.814-31.752-23.814v0zM1635.225 984.31h-55.566v-190.512h55.566v190.512zM1651.101 960.496v0c15.876 0 31.752 0 31.752-7.938 7.938-7.938 7.938-15.876 7.938-39.69v-119.070h55.566v127.008c0 23.814-7.938 39.69-15.876 47.628s-31.752 15.876-55.566 15.876h-7.938c0 0-7.938 0-7.938 0v-23.814h-7.938zM1849.55 984.31h-55.566v-190.512h55.566v190.512zM1897.178 984.31v-190.512h55.566l63.504 95.256v-95.256h31.752v190.512h-31.752l-95.256-142.884v142.884h-23.814zM2214.698 984.31v-166.698h-55.566v-23.814h158.76v23.814h-47.628v166.698h-55.566zM2349.643 984.31v-190.512h119.070v23.814h-63.504v55.566h55.566v23.814h-63.504v55.566h71.442v23.814h-119.070v7.938zM2690.977 936.682c-7.938 15.876-15.876 31.752-31.752 39.69s-31.752 15.876-55.566 15.876c-15.876 0-23.814 0-39.69-7.938-7.938 0-23.814-7.938-31.752-15.876-15.876-7.938-23.814-23.814-31.752-31.752-7.938-15.876-7.938-23.814-7.938-39.69 0-31.752 7.938-55.566 31.752-71.442 15.876-15.876 47.628-31.752 71.442-31.752 15.876 0 31.752 7.938 47.628 7.938 7.938 7.938 23.814 15.876 31.752 31.752l-23.814 15.876c-7.938-7.938-7.938-23.814-23.814-23.814-7.938-7.938-15.876-7.938-31.752-7.938s-31.752 7.938-39.69 23.814c-7.938 15.876-15.876 31.752-15.876 55.566s7.938 39.69 15.876 55.566c7.938 15.876 23.814 23.814 39.69 23.814 7.938 0 23.814 0 31.752-7.938s15.876-15.876 23.814-31.752h39.69zM2833.86 873.178v-79.38h55.566v190.512h-55.566v-87.318h-55.566v87.318h-55.566v-190.512h55.566v79.38h55.566zM2190.884 420.713v0l87.318 127.008h-95.256l-87.318-127.008h95.256zM2571.907 31.752l119.070 142.884h-127.008l-71.442-87.318h-230.202l-63.504 87.318h-119.070l111.132-142.884 7.938-7.938h357.209l15.876 7.938zM2571.907 420.713h87.318l-87.318 127.008h-95.256l95.256-127.008zM2571.907 563.597h-134.946v-166.698h222.264v-63.504h-222.264v-63.504h222.264v-71.442h-555.659v63.504h222.264v63.504h-222.264v71.442h222.264v166.698h-222.264v63.504h555.659v-63.504h-87.318zM1492.341 500.093h87.318l-87.318 127.008h-103.194l87.318-127.008h15.876zM1905.116 627.101v0l-95.256-127.008h103.194l87.318 127.008h-95.256zM1492.341 63.504v0l7.938 142.884 39.69-7.938v-174.636h87.318v47.628h71.442v63.504h-71.442v55.566c31.752-7.938 55.566-7.938 71.442-15.876v63.504c-55.566 15.876-134.946 23.814-214.326 31.752l-103.194 7.938v-63.504c7.938 0 15.876 0 23.814 0v-150.822h87.318zM1905.116 39.69h87.318l-79.38 119.070h-95.256l87.318-119.070zM1905.116 214.326h-55.566c-39.69 0-39.69-15.876-39.69-31.752v-158.76h-87.318v158.76c0 55.566 7.938 95.256 95.256 95.256h182.574v-63.504h-95.256zM1905.116 365.147l-47.628-55.566h-103.194l71.442 79.38c-55.566 23.814-111.132 23.814-238.14 23.814l79.38-71.442h-95.256l63.504-55.566h-103.194l-47.628 39.69-71.442 55.566h95.256l-23.814 15.876-87.318 79.38h246.078v158.76h103.194v-166.698c47.628-7.938 87.318-15.876 119.070-39.69l31.752 47.628h103.194l-95.256-111.132zM3921.364 39.69h142.884v71.442h-142.884v-71.442zM3857.86 587.411h-31.752v-357.209h55.566v357.209zM3619.721 182.574v-63.504h79.38v-95.256h111.132v95.256h15.876v-39.69h55.566v39.69h15.876v63.504h-87.318v460.403h-111.132v-460.403zM4048.372 555.659v7.938c0 39.69-31.752 79.38-63.504 79.38h-87.318v-63.504h23.814c15.876 0 23.814-15.876 31.752-23.814v-317.519h-31.752v-63.504h158.76v63.504h-31.752v317.519zM3659.411 587.411h-31.752v-357.209h55.566v357.209zM3556.217 277.829h31.752v365.147h-95.256v-333.395h-39.69l39.69-127.008h-39.69l55.566-158.76h95.256l-47.628 127.008h47.628zM2825.922 150.822h-63.504v-71.442h63.504v-55.566h103.194v55.566h39.69v71.442h-39.69v127.008l39.69-15.876v79.38l-39.69 15.876v198.45c0 39.69-31.752 79.38-63.504 79.38h-87.318v-55.566h23.814c15.876 0 23.814-15.876 23.814-23.814v-158.76l-63.504 23.814v-79.38l63.504-23.814v-166.698zM3127.566 341.333l47.628 63.504 95.256-111.132h-269.891v-63.504h134.946v-79.38h-134.946v-71.442h134.946v-55.566h103.194v55.566h142.884v71.442h-142.884v79.38h134.946v63.504l-142.884 174.636 150.822 174.636h-111.132l-95.256-111.132-87.318 111.132h-111.132l142.884-174.636-103.194-127.008z"></path>
</svg>
