<!-- Generated by IcoMoon.io -->
<svg version="1.1" xmlns="http://www.w3.org/2000/svg" width="1096" height="1024" viewBox="0 0 1096 1024">
<title></title>
<g id="icomoon-ignore">
</g>
<path d="M520.44 604.334c-49.938-14.966-78.932-66.896-64.943-116.795 8.987-33.956 33.995-57.909 64.943-67.951 16.998-4.963 34.972-5.939 52.947-0.938 50.915 13.95 80.924 66.857 67.912 118.866-13.012 50.993-66.936 81.979-117.889 67.912-0.977-0.039-1.954-1.094-2.97-1.094v0zM520.44 9.026l-7.971-9.026-18.99 18.99 26.962 25.985 246.72 247.736c37.981 50.954 50.954 118.866 20.006 181.816 52.947-57.948 60.957-126.877-2.032-199.791l-264.694-265.71zM520.44 120.898l-64.943-64.904-17.975 18.951 82.917 82.917 189.787 190.803c45.952 48.922 43.959 123.868 10.003 179.862 0.977-1.016 3.009-2.032 4.025-3.009 58.925-63.927 52.908-138.873 4.963-194.789l-208.778-209.833zM520.44 232.77l-120.859-119.843-17.975 17.975 138.834 138.834 133.871 134.887c35.949 40.951 38.958 109.84-4.025 161.81 0.977-0.938 2.97-0.938 4.025-1.954 64.904-61.934 57.948-139.928 18.951-177.87l-152.822-153.838zM520.44 345.658l-176.814-176.814-343.626 343.665 253.714 252.737c-76.9-98.899-18.951-189.787 45.952-249.768 52.947-49.899 144.851-90.928 220.735-106.909 1.993 0 4.025-0.938 6.018-0.938s5.002-1.016 8.010-1.016c13.012-1.993 25.946-1.016 39.935 1.993 3.986 1.016 8.987 3.009 13.989 5.041l-67.912-67.991zM520.44 614.337c-2.97 0-5.978-0.938-8.948-2.97-1.016 0-1.993 0-3.009-0.977l11.996 11.996 231.754 232.77 343.626-342.649-253.753-253.753c76.939 98.899 18.99 189.787-45.952 249.807-53.924 51.892-149.814 93.858-225.775 107.886-1.954 0.938-4.963 0.938-7.971 0.938-12.973 1.993-25.985 1.016-41.967-3.048v0zM520.44 698.31l-78.932-78.932c-35.949-41.029-38.958-109.879 4.025-161.888-1.016 1.016-3.009 1.993-4.025 1.993-65.92 62.012-57.948 139.85-18.951 177.87l273.721 273.721 17.975-18.014-193.812-194.75zM520.44 810.181l-134.848-134.848c-45.952-49-43.959-123.907-10.003-179.862-0.977 0.977-3.009 2.032-4.025 2.97-58.925 64.005-52.908 138.912-5.002 194.789l274.736 274.776 16.998-18.99-137.857-138.834zM520.44 923.069l-191.78-191.819c-37.942-49.86-50.915-117.85-19.967-181.699-52.947 58.964-60.957 126.838 1.993 200.767l209.755 208.778 63.927 64.943 18.99-17.975-82.917-82.995z"></path>
</svg>
